<?xml version="1.0" encoding="UTF-8" standalone="no"?>
<svg
   xmlns:dc="http://purl.org/dc/elements/1.1/"
   xmlns:cc="http://creativecommons.org/ns#"
   xmlns:rdf="http://www.w3.org/1999/02/22-rdf-syntax-ns#"
   xmlns:svg="http://www.w3.org/2000/svg"
   xmlns="http://www.w3.org/2000/svg"
   xmlns:sodipodi="http://sodipodi.sourceforge.net/DTD/sodipodi-0.dtd"
   xmlns:inkscape="http://www.inkscape.org/namespaces/inkscape"
   id="svg15712"
   viewBox="0 0 100 100"
   version="1.1"
   inkscape:version="0.48.4 r9939"
   width="100%"
   height="100%"
   sodipodi:docname="logo.svg">
  <defs
     id="defs9" />
  <sodipodi:namedview
     pagecolor="#ffffff"
     bordercolor="#666666"
     borderopacity="1"
     objecttolerance="10"
     gridtolerance="10"
     guidetolerance="10"
     inkscape:pageopacity="0"
     inkscape:pageshadow="2"
     inkscape:window-width="1440"
     inkscape:window-height="837"
     id="namedview7"
     showgrid="false"
     inkscape:zoom="4"
     inkscape:cx="5.0387529"
     inkscape:cy="33.952052"
     inkscape:window-x="-8"
     inkscape:window-y="-8"
     inkscape:window-maximized="1"
     inkscape:current-layer="layer3" />
  <metadata
     id="metadata5">
    <rdf:RDF>
      <cc:Work>
        <dc:format>image/svg+xml</dc:format>
        <dc:type
           rdf:resource="http://purl.org/dc/dcmitype/StillImage" />
        <cc:license
           rdf:resource="http://creativecommons.org/licenses/publicdomain/" />
        <dc:publisher>
          <cc:Agent
             rdf:about="http://openclipart.org/">
            <dc:title>Openclipart</dc:title>
          </cc:Agent>
        </dc:publisher>
        <dc:title />
        <dc:date>2013-04-16T09:31:51</dc:date>
        <dc:description>Sport bike</dc:description>
        <dc:source>https://openclipart.org/detail/177216/sport-bike-by-ribbla-177216</dc:source>
        <dc:creator>
          <cc:Agent>
            <dc:title>ribbla</dc:title>
          </cc:Agent>
        </dc:creator>
        <dc:subject>
          <rdf:Bag>
            <rdf:li>Sport-bike bike RibllaTeam</rdf:li>
          </rdf:Bag>
        </dc:subject>
      </cc:Work>
      <cc:License
         rdf:about="http://creativecommons.org/licenses/publicdomain/">
        <cc:permits
           rdf:resource="http://creativecommons.org/ns#Reproduction" />
        <cc:permits
           rdf:resource="http://creativecommons.org/ns#Distribution" />
        <cc:permits
           rdf:resource="http://creativecommons.org/ns#DerivativeWorks" />
      </cc:License>
    </rdf:RDF>
  </metadata>
  <g
     inkscape:groupmode="layer"
     id="layer3"
     inkscape:label="bg"
     style="display:inline">
    <rect
       style="fill:#673ab7;fill-opacity:1;stroke:none"
       id="rect3004"
       width="99.878838"
       height="99.702057"
       x="0.17677949"
       y="0.20955789"
       ry="13.169433" />
    <path
       style="fill:#563098;fill-opacity:1;stroke:none"
       d="M 30.844676,89.123917 C 17.874087,75.0788 18.911341,76.237608 19.442901,76.385973 c 0.941264,0.262719 3.851726,0.334117 5.367416,0.131671 6.501988,-0.868455 11.815802,-5.058969 14.431444,-11.380749 l 0.570517,-1.37889 0.406599,0.877602 c 0.530897,1.145886 1.652761,2.25087 2.834573,2.791921 1.144575,0.524005 3.178562,0.60024 4.23522,0.15874 0.361973,-0.151243 0.683392,-0.274986 0.714263,-0.274986 0.03087,0 0.08082,0.29831 0.110992,0.662912 l 0.05487,0.662913 2.563262,0 2.563262,0 0.05697,-0.496826 c 0.104708,-0.913193 -0.14119,-1.005776 -2.671338,-1.005776 -1.268253,0 -2.247668,-0.05825 -2.176477,-0.129438 0.07119,-0.07119 0.621409,-0.105279 1.222706,-0.07575 l 1.093267,0.05369 -0.49075,-0.513263 -0.490748,-0.513262 0.544764,-1.164135 c 0.461725,-0.986682 0.544764,-1.373289 0.544764,-2.536257 0,-1.161584 -0.07945,-1.532424 -0.517807,-2.416836 l -0.517809,-1.044712 0.606301,-0.794298 c 0.737363,-0.965996 6.339556,-7.532695 12.33231,-14.45551 3.592539,-4.150092 4.440217,-5.04076 4.487493,-4.71507 0.03206,0.220847 -0.02678,1.481112 -0.130753,2.800588 -0.172333,2.187028 -0.224351,2.422376 -0.588615,2.66302 -0.219767,0.145185 -1.200067,1.068071 -2.178444,2.050857 -2.476859,2.488024 -3.87034,4.840137 -4.724138,7.974069 -1.817088,6.669759 0.73191,14.22947 6.246942,18.526915 1.6943,1.320241 4.757232,2.816206 6.7968,3.319626 1.833333,0.452514 5.570191,0.544419 7.456528,0.183388 4.259478,-0.815234 8.27652,-3.304328 10.842306,-6.718257 2.096344,-2.78931 3.533088,-6.635568 3.533088,-9.458312 0,-0.631352 0.06195,-1.186198 0.137658,-1.23299 0.07571,-0.04679 1.02882,0.88322 2.118019,2.066694 1.089199,1.183474 2.280158,2.461036 2.646576,2.839028 l 0.666213,0.687257 -0.0959,12.217442 c -0.09476,12.067194 -0.100887,12.233745 -0.498232,13.543266 -1.288405,4.246165 -4.400673,7.490007 -8.598216,8.961714 l -1.414214,0.495839 -24.395184,0.04686 -24.395184,0.04686 -9.899494,-10.719604 z"
       id="path3914"
       inkscape:connector-curvature="0" />
  </g>
  <g
     inkscape:groupmode="layer"
     id="layer2"
     inkscape:label="root">
    <path
       sodipodi:type="arc"
       style="fill:#ffffff;fill-opacity:1;stroke:none"
       id="path3821"
       sodipodi:cx="21.797466"
       sodipodi:cy="56.44252"
       sodipodi:rx="18.501629"
       sodipodi:ry="17.939838"
       d="m 40.299095,56.44252 a 18.501629,17.939838 0 1 1 -37.0032576,0 18.501629,17.939838 0 1 1 37.0032576,0 z"
       transform="matrix(0.95089427,0,0,0.97415539,1.9679733,3.9128625)" />
    <path
       style="fill:#ffffff;fill-opacity:1;stroke:none"
       d="m 29.664256,27.392327 c -0.283725,-0.06109 -1.597676,-0.729896 -2.381343,-1.212111 -0.695382,-0.42789 -1.636054,-1.117356 -1.66121,-1.217583 -0.02554,-0.101754 0.0093,-0.566353 0.05171,-0.689424 0.05047,-0.146492 0.185332,-0.311107 0.318822,-0.389162 0.176344,-0.103113 0.302251,-0.119633 0.60749,-0.07971 1.099553,0.143818 2.259969,0.120531 5.302348,-0.106409 2.104851,-0.157007 3.016439,-0.190855 3.985699,-0.147993 1.304339,0.05768 2.21479,0.201159 3.199029,0.504139 0.438745,0.135059 0.669279,0.225449 1.09524,0.429432 l 0.335053,0.160448 0.04233,0.150866 c 0.08462,0.301581 0.03292,0.656974 -0.112454,0.773002 -0.07722,0.06163 -0.16356,0.06131 -1.050194,-0.004 -0.657894,-0.04843 -1.836567,-0.07096 -2.609737,-0.04989 -1.571494,0.04282 -2.82056,0.227662 -3.885492,0.574975 -0.263387,0.0859 -0.397706,0.153095 -0.867618,0.434033 -1.206448,0.721278 -1.890987,0.972408 -2.369675,0.869338 z"
       id="path3813"
       inkscape:connector-curvature="0" />
    <path
       style="fill:#ffffff;fill-opacity:1;stroke:none"
       d="M 21.187959,76.603505 C 18.543909,76.34488 16.645428,75.796468 14.408298,74.645069 9.3469183,72.040098 5.8438697,67.1331 4.9666755,61.419439 4.7882198,60.257057 4.7890837,57.488541 4.9682655,56.334693 6.008372,49.63677 10.5594,44.189415 16.902823,42.04962 c 1.5211,-0.513105 2.439398,-0.707352 4.126242,-0.872824 3.457458,-0.339162 7.266497,0.469818 10.269294,2.181035 0.455673,0.259677 0.865221,0.449441 0.91011,0.421698 0.04489,-0.02774 0.996867,-1.413159 2.115509,-3.078702 l 2.033889,-3.028261 -1.307147,-4.141638 c -0.72083,-2.283922 -1.387438,-4.216442 -1.48615,-4.308406 -0.09845,-0.09172 -0.268097,-0.404801 -0.37699,-0.69573 -0.230427,-0.615636 -0.225005,-0.6146 -1.633087,-0.311972 l -0.915247,0.196706 -0.388029,-0.295963 c -0.213416,-0.162781 -0.369656,-0.351201 -0.347201,-0.418713 0.05609,-0.168627 0.610881,-0.261569 0.87813,-0.14711 0.147536,0.06319 0.818585,-0.01509 2.052816,-0.239462 l 1.833628,-0.333337 0.837013,-0.681293 c 0.716017,-0.582807 0.897807,-0.681293 1.257566,-0.681293 0.231304,0 0.420553,0.04654 0.420553,0.103421 0,0.165535 -2.1523,1.904466 -2.360316,1.906996 -0.103789,0.0013 -0.211619,0.062 -0.239622,0.13498 -0.028,0.07298 0.182392,0.847604 0.467547,1.721397 0.285154,0.873793 0.863543,2.691718 1.28531,4.039834 l 0.766847,2.45112 0.384397,-0.0482 c 0.211418,-0.02651 6.57245,-0.7074 14.135626,-1.513085 7.563177,-0.805686 13.773791,-1.487444 13.801366,-1.515018 0.02757,-0.02757 -0.380553,-1.041341 -0.906951,-2.252815 -0.526397,-1.211473 -0.957086,-2.281206 -0.957086,-2.377185 0,-0.503566 1.220512,-0.498633 1.214827,-0.443347 0.172838,0.511083 0.06627,0.257095 0.32661,0.982768 -0.03464,0.03523 5.42378,13.209231 5.522288,13.328143 0.02121,0.02561 0.383083,-0.06462 0.804159,-0.200497 5.902504,-1.904714 12.483332,-0.555507 17.132116,3.512442 3.217405,2.815411 5.179431,6.373907 5.945605,10.783449 0.179481,1.032956 0.179374,4.264569 -2.12e-4,5.29661 -1.037397,5.96295 -4.480722,10.659579 -9.74319,13.289524 -2.519588,1.259176 -4.896232,1.799496 -7.907749,1.797796 -2.852304,-0.0016 -4.827518,-0.431892 -7.415255,-1.615341 -5.509705,-2.519754 -9.374999,-7.7755 -10.165038,-13.821684 -0.567996,-4.346877 0.415173,-8.548715 2.858881,-12.218205 0.949357,-1.425561 2.682674,-3.273119 3.978711,-4.240942 l 0.921213,-0.687921 0.06364,-0.653096 c 0.132903,-1.363875 0.397512,-5.175862 0.361764,-5.211608 -0.02055,-0.02055 -4.011683,4.590884 -8.869178,10.247639 -8.285336,9.648619 -8.823002,10.298788 -8.689487,10.507687 0.81612,1.276908 1.080195,2.112558 1.074638,3.400643 -0.0047,1.101339 -0.304914,2.14193 -0.873395,3.02783 l -0.343299,0.534987 0.514758,0.522616 0.51476,0.522618 -0.848773,0 c -0.466825,0 -0.894058,-0.04497 -0.949408,-0.09993 -0.0632,-0.06275 -0.317365,0.03708 -0.683262,0.26839 -1.755127,1.10953 -4.247552,1.091159 -5.992811,-0.04417 -1.073148,-0.698109 -2.126749,-2.040997 -2.319809,-2.956762 -0.03978,-0.188686 -0.112303,-0.367773 -0.161165,-0.397971 -0.04886,-0.0302 -0.218337,0.338693 -0.376609,0.819759 -1.842291,5.599629 -6.631607,10.07525 -12.379533,11.568687 -1.832236,0.476055 -4.192451,0.683506 -5.888717,0.517588 z m 2.913135,-0.570112 c 7.360008,-0.697599 13.331548,-5.794988 15.258623,-13.024971 0.389512,-1.461368 0.51087,-2.490139 0.512342,-4.34322 0.0027,-3.3562 -0.782182,-6.183127 -2.492391,-8.97728 -0.91558,-1.495878 -2.509614,-3.308847 -3.850607,-4.379473 -2.193915,-1.751583 -4.9613,-2.958842 -7.888129,-3.44116 -1.198058,-0.197431 -4.435494,-0.198373 -5.618227,-0.0016 -7.244611,1.20508 -12.7814777,6.457391 -14.3037263,13.568617 -0.289956,1.354537 -0.3987297,4.202314 -0.2137875,5.597116 0.7653563,5.772183 4.2355813,10.648632 9.4368108,13.260847 2.308764,1.15953 4.591101,1.71594 7.517143,1.8326 0.262182,0.01046 1.00106,-0.03069 1.641949,-0.09144 z m 55.614407,-0.158867 c 1.845666,-0.293299 4.105512,-1.092283 5.720339,-2.022463 5.541441,-3.192009 8.845339,-8.805232 8.845339,-15.027963 0,-4.785404 -1.878047,-9.128124 -5.392791,-12.470063 -5.00278,-4.756815 -12.343851,-6.068369 -18.759751,-3.351615 -4.210321,1.782823 -7.699815,5.376159 -9.328699,9.606307 -0.699774,1.817283 -1.036428,3.47262 -1.126158,5.537339 -0.322872,7.429384 4.2033,14.202702 11.289581,16.894616 1.369143,0.520105 2.997923,0.871207 4.832649,1.041732 0.724433,0.06733 2.920607,-0.04915 3.919491,-0.20789 z M 46.964058,67.018162 c 0.339461,-0.112136 0.806991,-0.329479 1.038954,-0.482986 l 0.421753,-0.279102 -0.880056,-0.887688 c -1.049905,-1.059008 -1.694143,-1.512506 -2.148663,-1.512506 -0.347578,0 -1.129449,0.440557 -1.475565,0.831428 -0.273087,0.3084 -0.385901,0.289074 -0.798699,-0.136826 l -0.353501,-0.36472 0.439616,-0.525073 c 0.241789,-0.28879 0.511327,-0.6967 0.598972,-0.906466 0.141855,-0.339504 0.141855,-0.423284 0,-0.762788 -0.08765,-0.209766 -0.357183,-0.617676 -0.598972,-0.906466 l -0.439616,-0.525073 0.353501,-0.36472 c 0.194425,-0.200596 0.396732,-0.36472 0.449571,-0.36472 0.05284,0 0.334617,0.214475 0.626176,0.47661 0.898686,0.807997 1.420257,0.795465 2.432955,-0.05845 0.272749,-0.229985 0.542005,-0.418156 0.598345,-0.418156 0.05634,0 0.254064,0.172694 0.439386,0.383764 l 0.336949,0.383765 -0.315445,0.331277 c -0.486494,0.510913 -0.866167,1.128794 -0.866167,1.409603 0,0.466501 0.404877,1.056403 1.376796,2.005979 0.529795,0.517616 1.006068,0.956105 1.058385,0.974419 0.139258,0.04875 0.719443,-1.003279 0.912427,-1.654473 0.09445,-0.318717 0.164776,-0.93757 0.162506,-1.430085 -0.01276,-2.769905 -2.186066,-4.948139 -4.949706,-4.960942 -2.003099,-0.0093 -3.727313,1.054431 -4.553822,2.80937 -0.951155,2.019597 -0.588029,4.178224 0.963937,5.73019 1.392669,1.392668 3.274081,1.831121 5.169983,1.204839 z m -1.021274,-4.028205 c 0.508586,-0.477792 0.167556,-1.464586 -0.506152,-1.464586 -0.438122,0 -0.617346,0.100121 -0.795327,0.444298 -0.447619,0.865601 0.5956,1.683427 1.301479,1.020288 z m -4.78903,-4.521599 c 0.231718,-0.253922 0.624991,-0.601816 0.873941,-0.773098 0.24895,-0.171283 0.451734,-0.368719 0.450631,-0.438749 -0.0028,-0.181149 -5.573755,-17.867634 -5.652885,-17.946766 -0.036,-0.03599 -0.08272,-0.04558 -0.103822,-0.02131 -0.18484,0.212607 -3.457389,5.200165 -3.457389,5.269266 0,0.04986 0.374767,0.404359 0.832816,0.787778 3.832945,3.208446 6.231881,8.224978 6.268257,13.107857 0.0073,0.980987 0.01203,0.999681 0.187322,0.741526 0.0989,-0.145657 0.369412,-0.472585 0.601129,-0.726505 z m 14.717551,-10.718549 8.015159,-9.326411 -0.316151,-1.172975 c -0.173885,-0.645136 -0.333126,-1.189948 -0.353871,-1.210693 -0.04168,-0.04168 -25.192029,2.57574 -25.243397,2.627108 -0.01765,0.01765 1.24799,4.107391 2.812527,9.088319 2.459096,7.828876 2.870782,9.052926 3.037696,9.031843 0.106194,-0.01341 0.518561,-0.07725 0.91637,-0.141854 0.771496,-0.125294 1.662707,-0.02944 2.466952,0.265337 0.2263,0.08294 0.465027,0.154166 0.530504,0.158272 0.06548,0.0041 3.725873,-4.189421 8.134211,-9.318946 z"
       id="path3817"
       inkscape:connector-curvature="0"
       sodipodi:nodetypes="csssssscscsssscsccscsssccsscsscsscccssscsssssscscsscscccscssscsscccscssscsssccccsssssssscccscsssscsscscsssssscsssssscssccsssscscccssscccccsssscscccc" />
    <path
       style="fill:#ffffff;fill-opacity:1;stroke:none"
       d="m 45.387868,66.492707 c -0.04318,-0.04319 -0.253304,-0.08374 -0.466948,-0.09011 -0.388113,-0.01157 -0.610722,-0.07048 -1.040418,-0.27535 -0.125535,-0.05985 -0.280461,-0.07655 -0.344279,-0.03711 -0.06514,0.04026 -0.116034,-7.28e-4 -0.116034,-0.09344 0,-0.09453 -0.0906,-0.16515 -0.211864,-0.16515 -0.117702,0 -0.211864,-0.07062 -0.211864,-0.158898 0,-0.08828 -0.09416,-0.158898 -0.211865,-0.158898 -0.117702,0 -0.211864,-0.07062 -0.211864,-0.158899 0,-0.08739 -0.0715,-0.158898 -0.158898,-0.158898 -0.08828,0 -0.158899,-0.09416 -0.158899,-0.211864 0,-0.117703 -0.07062,-0.211865 -0.158898,-0.211865 -0.08828,0 -0.158898,-0.09416 -0.158898,-0.211864 0,-0.116526 -0.04767,-0.211865 -0.105933,-0.211865 -0.05826,0 -0.105932,-0.09683 -0.105932,-0.215189 0,-0.118354 -0.06849,-0.241472 -0.152209,-0.273597 -0.08372,-0.03212 -0.127161,-0.123685 -0.09655,-0.203467 0.03062,-0.07978 0.01774,-0.206425 -0.02862,-0.281429 -0.04635,-0.075 -0.08633,-0.303716 -0.08884,-0.50825 -0.0025,-0.204535 -0.04108,-0.428174 -0.08573,-0.496977 -0.04465,-0.0688 -0.03079,-0.156235 0.03079,-0.194296 0.06158,-0.03806 0.08426,-0.156516 0.05038,-0.263235 -0.03387,-0.106719 -0.01185,-0.224774 0.04894,-0.262345 0.074,-0.04573 0.07606,-0.132712 0.0062,-0.263156 -0.07874,-0.147129 -0.06315,-0.21063 0.06367,-0.259295 0.0977,-0.03749 0.141944,-0.132216 0.105778,-0.226463 -0.0352,-0.09172 0.006,-0.188173 0.09494,-0.222305 0.08641,-0.03316 0.157112,-0.150529 0.157112,-0.260821 0,-0.110292 0.04767,-0.20053 0.105933,-0.20053 0.05826,0 0.105932,-0.09534 0.105932,-0.211865 0,-0.117702 0.07062,-0.211864 0.158898,-0.211864 0.08828,0 0.158898,-0.09416 0.158898,-0.211865 0,-0.141243 0.07062,-0.211864 0.211865,-0.211864 0.117702,0 0.211864,-0.07062 0.211864,-0.158898 0,-0.08828 0.09416,-0.158899 0.211865,-0.158899 0.116525,0 0.211864,-0.04767 0.211864,-0.105932 0,-0.05826 0.09024,-0.105932 0.200531,-0.105932 0.110292,0 0.229129,-0.07453 0.264082,-0.165613 0.03495,-0.09109 0.113646,-0.134652 0.174872,-0.09681 0.06123,0.03784 0.174695,0.0162 0.252152,-0.04808 0.07746,-0.06428 0.213556,-0.08897 0.302442,-0.05486 0.08888,0.03411 0.191793,0.01318 0.228683,-0.04651 0.03689,-0.05969 0.137658,-0.08144 0.223929,-0.04834 0.08627,0.0331 0.22022,0.0076 0.297668,-0.05667 0.07745,-0.06427 0.173505,-0.08417 0.213462,-0.04421 0.03996,0.03996 0.251117,0.07767 0.469244,0.08381 0.218126,0.0061 0.45743,0.04876 0.531786,0.09472 0.07436,0.04595 0.200469,0.0585 0.280252,0.02789 0.07978,-0.03061 0.171342,0.01283 0.203467,0.09654 0.03212,0.08372 0.155243,0.15221 0.273597,0.15221 0.118354,0 0.215189,0.04767 0.215189,0.105932 0,0.05826 0.09534,0.105932 0.211864,0.105932 0.117703,0 0.211865,0.07062 0.211865,0.158898 0,0.08828 0.09416,0.158899 0.211864,0.158899 0.117703,0 0.211865,0.07062 0.211865,0.158898 0,0.08739 0.0715,0.158898 0.158898,0.158898 0.08828,0 0.158898,0.09416 0.158898,0.211865 0,0.117702 0.07062,0.211864 0.158899,0.211864 0.08828,0 0.158898,0.09416 0.158898,0.211865 0,0.116525 0.04767,0.211864 0.105932,0.211864 0.05826,0 0.105932,0.09253 0.105932,0.205613 0,0.113087 0.05092,0.237082 0.113154,0.275545 0.06224,0.03846 0.0898,0.130807 0.06124,0.205208 -0.02855,0.0744 -0.0078,0.179352 0.04604,0.233225 0.05387,0.05387 0.110938,0.286111 0.126813,0.516086 0.01588,0.229975 0.06419,0.47443 0.107364,0.543232 0.04318,0.0688 0.02811,0.156236 -0.03347,0.194296 -0.06158,0.03806 -0.08426,0.156517 -0.05038,0.263236 0.03387,0.106719 0.01004,0.225892 -0.05297,0.26483 -0.063,0.03894 -0.08556,0.162123 -0.05014,0.273746 0.03601,0.113451 0.01455,0.202949 -0.04866,0.202949 -0.06219,0 -0.113071,0.119174 -0.113071,0.264831 0,0.145656 -0.04767,0.26483 -0.105932,0.26483 -0.05826,0 -0.105932,0.09534 -0.105932,0.211864 0,0.265638 -0.126445,0.269968 -0.359619,0.01232 -0.170546,-0.188452 -0.1679,-0.237058 0.04758,-0.873941 0.549306,-1.623591 -0.205033,-3.426544 -1.767503,-4.224525 -0.436427,-0.222892 -0.66249,-0.263425 -1.469182,-0.263425 -0.782223,0 -1.04264,0.04396 -1.45051,0.244865 -0.691624,0.340671 -1.327002,0.991393 -1.658372,1.698421 -0.398881,0.851075 -0.400257,2.039152 -0.0033,2.885791 0.74807,1.595666 2.54346,2.36224 4.210343,1.797683 0.63689,-0.215708 0.685487,-0.218368 0.873941,-0.04782 0.254306,0.230144 0.253953,0.359619 -9.86e-4,0.359619 -0.110292,0 -0.226549,0.0678 -0.25835,0.150675 -0.03539,0.09222 -0.142531,0.128523 -0.276164,0.09358 -0.12971,-0.03392 -0.21834,-0.0062 -0.21834,0.06833 0,0.07538 -0.08097,0.09972 -0.20295,0.06101 -0.111622,-0.03543 -0.235618,-0.01156 -0.275546,0.05305 -0.03993,0.06461 -0.14532,0.08956 -0.234206,0.05545 -0.08888,-0.03411 -0.21954,-0.01394 -0.290345,0.04483 -0.0708,0.05876 -0.164063,0.0715 -0.207241,0.02831 z"
       id="path3783"
       inkscape:connector-curvature="0" />
    <path
       style="fill:#ffffff;fill-opacity:1;stroke:none"
       d="m 44.982689,62.856963 c -0.216396,-0.12604 -0.246269,-0.613541 -0.05297,-0.864367 0.327311,-0.424711 1.032839,-0.154098 1.032839,0.396157 0,0.482676 -0.524635,0.733361 -0.979873,0.46821 z"
       id="path3785"
       inkscape:connector-curvature="0" />
    <path
       style="fill:#ffffff;fill-opacity:1;stroke:none"
       d="m 44.858725,66.501753 c -0.06982,-0.07 -0.119181,-0.112304 -0.130938,-0.112214 -0.01038,7.5e-5 -0.07343,0.03181 -0.140116,0.07051 -0.06668,0.0387 -0.125984,0.06855 -0.131779,0.06632 -0.0058,-0.0022 -0.04433,-0.05186 -0.08564,-0.110305 -0.0413,-0.05844 -0.0817,-0.111732 -0.08976,-0.118418 -0.03413,-0.0283 -0.07367,-0.02278 -0.210274,0.02938 l -0.133079,0.05081 -0.07625,-0.134739 c -0.04194,-0.07411 -0.07954,-0.136773 -0.08357,-0.139257 -0.004,-0.0025 -0.08406,0.0127 -0.177864,0.03374 -0.09381,0.02104 -0.174022,0.03469 -0.178259,0.03034 -0.0064,-0.0065 -0.03447,-0.07885 -0.112527,-0.289503 l -0.0072,-0.01941 -0.15939,0.0199 -0.159389,0.0199 -0.03921,-0.157324 -0.03921,-0.157325 -0.177085,0 c -0.13321,0 -0.178116,-0.0029 -0.181242,-0.0117 -0.0023,-0.0064 -0.01172,-0.07888 -0.02097,-0.160982 l -0.01682,-0.149278 -0.08875,-0.02203 c -0.04881,-0.01211 -0.121308,-0.0307 -0.161099,-0.04129 l -0.07235,-0.01927 -0.0026,-0.160224 -0.0026,-0.160225 -0.154492,-0.03777 c -0.117579,-0.02875 -0.154097,-0.04113 -0.152837,-0.05182 0.01329,-0.112745 0.03204,-0.339271 0.02839,-0.342924 -0.0026,-0.0026 -0.0708,-0.02972 -0.151463,-0.06017 -0.08066,-0.03045 -0.15013,-0.05751 -0.154374,-0.06013 -0.0042,-0.0026 0.0086,-0.06906 0.02848,-0.147643 0.01991,-0.07858 0.03629,-0.150223 0.03642,-0.159205 1.63e-4,-0.01182 -0.04179,-0.03732 -0.151926,-0.09235 -0.08368,-0.04181 -0.153457,-0.0772 -0.155052,-0.07864 -0.0016,-0.0014 0.02895,-0.06622 0.06788,-0.143957 0.03893,-0.07773 0.07078,-0.151507 0.07078,-0.163943 0,-0.01838 -0.02409,-0.03971 -0.128743,-0.113992 -0.07081,-0.05026 -0.13026,-0.09257 -0.132114,-0.09401 -0.0019,-0.0014 0.02869,-0.05791 0.06788,-0.125466 0.04092,-0.07054 0.07125,-0.133614 0.07125,-0.148155 0,-0.01983 -0.02336,-0.04862 -0.107676,-0.132692 -0.05922,-0.05905 -0.107677,-0.110873 -0.107677,-0.115153 0,-0.0043 0.03826,-0.06123 0.08502,-0.126556 0.110689,-0.154631 0.111315,-0.147819 -0.02846,-0.309671 l -0.101984,-0.118087 0.116346,-0.11717 c 0.06399,-0.06444 0.116347,-0.120618 0.116347,-0.124832 0,-0.0042 -0.04213,-0.06637 -0.09363,-0.138121 -0.0515,-0.07175 -0.09363,-0.133703 -0.09363,-0.137669 0,-0.004 0.0611,-0.05058 0.135766,-0.103578 0.07467,-0.053 0.135766,-0.0982 0.135766,-0.100426 0,-0.0022 -0.03525,-0.07459 -0.07832,-0.160787 l -0.07832,-0.156729 0.139061,-0.09831 c 0.07648,-0.05407 0.137634,-0.102527 0.13589,-0.107677 -0.0017,-0.0052 -0.01951,-0.07593 -0.03948,-0.157293 -0.02954,-0.120353 -0.03395,-0.149388 -0.02366,-0.155747 0.007,-0.0043 0.07744,-0.03196 0.156641,-0.06146 0.07986,-0.02975 0.143994,-0.05884 0.143994,-0.0653 0,-0.0064 -0.01685,-0.08658 -0.03745,-0.178172 -0.0206,-0.09159 -0.03745,-0.16753 -0.03745,-0.168762 0,-0.0012 0.07154,-0.02007 0.158976,-0.04186 l 0.158975,-0.03962 0.0025,-0.178875 0.0025,-0.178874 0.1449,-0.01903 c 0.136334,-0.01791 0.145598,-0.02042 0.156695,-0.04244 0.0081,-0.016 0.01184,-0.07301 0.01193,-0.180241 l 1.38e-4,-0.156833 0.14494,0 c 0.1531,0 0.214751,-0.01249 0.22378,-0.04535 0.0023,-0.0085 0.01774,-0.07871 0.0342,-0.155958 0.01647,-0.07725 0.03322,-0.143999 0.03722,-0.148341 0.004,-0.0043 0.06208,-9.02e-4 0.129049,0.0076 0.06697,0.0085 0.137582,0.01421 0.156911,0.01258 l 0.03514,-0.003 0.05604,-0.149811 c 0.03082,-0.0824 0.05712,-0.151111 0.05843,-0.1527 0.0013,-0.0016 0.0667,0.0058 0.145294,0.01639 0.0786,0.0106 0.150248,0.01928 0.159221,0.01928 0.01123,0 0.04027,-0.04233 0.09315,-0.135766 0.05069,-0.08957 0.08208,-0.135689 0.09226,-0.135541 0.0085,1.25e-4 0.08062,0.01674 0.16032,0.03693 0.107956,0.02734 0.146739,0.03385 0.152114,0.02552 0.004,-0.0061 0.03909,-0.06701 0.07804,-0.135243 0.03895,-0.06823 0.07484,-0.124062 0.07973,-0.124062 0.0049,0 0.07622,0.03371 0.158499,0.0749 0.08227,0.0412 0.151419,0.07491 0.153654,0.07491 0.0022,0 0.04749,-0.06118 0.100561,-0.135948 0.05307,-0.07477 0.101109,-0.134177 0.106745,-0.132015 0.0056,0.0022 0.06927,0.04587 0.141402,0.09712 l 0.131153,0.09318 0.139623,-0.119544 0.139622,-0.119544 0.04689,0.03967 c 0.02579,0.02182 0.07946,0.06624 0.119278,0.09871 l 0.07239,0.05904 0.02592,-0.01698 c 0.01426,-0.0093 0.07703,-0.05373 0.139491,-0.09864 l 0.113565,-0.08166 0.103458,0.11955 c 0.09529,0.110115 0.106578,0.120048 0.142979,0.125869 0.03683,0.0059 0.04745,0.0018 0.156138,-0.06014 0.06414,-0.03655 0.117529,-0.06514 0.118641,-0.06354 0.02195,0.03176 0.195843,0.232322 0.201428,0.232322 0.0043,0 0.07465,-0.02526 0.156348,-0.05613 0.0817,-0.03087 0.150748,-0.05615 0.153444,-0.05618 0.0027,-2.8e-5 0.0402,0.07094 0.08335,0.157711 l 0.07844,0.157762 0.14137,-0.03581 c 0.07775,-0.0197 0.150825,-0.03592 0.162382,-0.03604 0.01786,-1.92e-4 0.03243,0.02262 0.09703,0.151925 0.04181,0.08368 0.07751,0.153771 0.07934,0.15575 0.0018,0.002 0.07378,-0.0053 0.159901,-0.01616 0.08612,-0.01087 0.157248,-0.01881 0.158067,-0.01764 8.19e-4,0.0012 0.01497,0.05689 0.03145,0.123841 0.01648,0.06695 0.0341,0.137431 0.03917,0.156632 l 0.0092,0.03491 0.179849,0.0025 0.179848,0.0025 0.017,0.154246 c 0.0094,0.08484 0.01867,0.155913 0.02071,0.157951 0.002,0.002 0.07343,0.01235 0.15864,0.02291 l 0.154935,0.01921 1e-6,0.178644 0,0.178643 0.155605,0.03935 c 0.08558,0.02164 0.157508,0.04125 0.159835,0.04358 0.0023,0.0023 -0.0024,0.06132 -0.01048,0.131085 -0.0081,0.06977 -0.01471,0.140798 -0.01471,0.157841 l 0,0.03099 0.14747,0.05483 c 0.08111,0.03016 0.150726,0.0578 0.154707,0.06143 0.004,0.0036 -0.0094,0.07575 -0.02964,0.16025 -0.02028,0.08451 -0.03504,0.15661 -0.0328,0.160233 0.0022,0.0036 0.0645,0.04948 0.138361,0.101909 l 0.13429,0.09532 -0.05885,0.13673 c -0.03237,0.0752 -0.05703,0.139669 -0.05481,0.14326 0.0022,0.0036 0.06094,0.0474 0.130485,0.09734 0.06955,0.04995 0.12847,0.09408 0.130939,0.09808 0.0025,0.004 -0.02708,0.07342 -0.06566,0.154268 -0.03858,0.08085 -0.07015,0.15393 -0.07015,0.162394 0,0.0085 0.05112,0.06663 0.113605,0.129266 l 0.113604,0.113878 -0.0821,0.114302 -0.0821,0.114302 0.01147,0.05285 c 0.01057,0.04868 0.01859,0.06005 0.101768,0.144162 l 0.0903,0.09131 -0.119959,0.120226 -0.119958,0.120225 0.08036,0.139415 0.08036,0.139415 -0.117077,0.117337 c -0.06439,0.06454 -0.117077,0.122063 -0.117077,0.127839 0,0.0058 0.0251,0.07699 0.05577,0.158253 0.03067,0.08126 0.05387,0.150837 0.05154,0.154607 -0.0023,0.0038 -0.06315,0.03994 -0.135156,0.08038 -0.07201,0.04044 -0.131011,0.07818 -0.131124,0.08388 -1.59e-4,0.0081 0.06691,0.192552 0.107537,0.29582 0.0051,0.01309 -0.02204,0.03009 -0.152657,0.09549 l -0.15892,0.07956 0.03248,0.133912 c 0.04948,0.204 0.0578,0.182325 -0.08613,0.224322 -0.06695,0.01954 -0.128072,0.03562 -0.135835,0.03576 -0.0078,1.31e-4 -0.120724,-0.106434 -0.251025,-0.236811 l -0.236912,-0.237049 0.05376,-0.093 c 0.41908,-0.724978 0.534049,-1.672084 0.307938,-2.536791 -0.246965,-0.944461 -0.89893,-1.752126 -1.764677,-2.186112 -0.283845,-0.142287 -0.539023,-0.230115 -0.861789,-0.296612 -0.102289,-0.02107 -0.149494,-0.02488 -0.374527,-0.03018 -0.40108,-0.0094 -0.768107,0.0014 -0.894183,0.02647 -0.906475,0.180081 -1.674244,0.693986 -2.184375,1.462105 -0.297737,0.448311 -0.473172,0.923016 -0.549844,1.487805 -0.02003,0.147529 -0.02808,0.506836 -0.01501,0.669467 0.06993,0.869722 0.432594,1.627796 1.063858,2.223777 0.706032,0.666571 1.701595,0.995306 2.677862,0.884229 0.466875,-0.05312 0.926405,-0.205399 1.337331,-0.443168 0.04547,-0.02631 0.08553,-0.04783 0.08902,-0.04783 0.01382,0 0.46969,0.464583 0.46969,0.478662 0,0.0083 -0.01727,0.06091 -0.03837,0.116971 -0.0211,0.05606 -0.0465,0.123535 -0.05643,0.14995 l -0.01806,0.04803 -0.159353,-0.04004 -0.159353,-0.04004 -0.07921,0.158214 c -0.04357,0.08702 -0.08081,0.158213 -0.08277,0.158213 -0.002,0 -0.0704,-0.02526 -0.152099,-0.05613 -0.0817,-0.03087 -0.152756,-0.05614 -0.157906,-0.05615 -0.0051,-9e-6 -0.03989,0.05391 -0.0772,0.11982 -0.03731,0.06591 -0.0732,0.127176 -0.07976,0.136146 -0.01108,0.01515 -0.02256,0.01229 -0.16156,-0.04023 -0.0823,-0.0311 -0.154353,-0.05656 -0.16012,-0.05659 -0.0058,-2.8e-5 -0.05381,0.05232 -0.106754,0.116332 l -0.09627,0.116382 -0.158579,-0.07939 c -0.135934,-0.06806 -0.160799,-0.07766 -0.174129,-0.06722 -0.0086,0.0067 -0.0629,0.05152 -0.120766,0.09961 l -0.105216,0.08745 -0.09142,-0.07672 c -0.08565,-0.07188 -0.135436,-0.103103 -0.163688,-0.102669 -0.0066,1.01e-4 -0.06808,0.04013 -0.136607,0.08895 -0.06853,0.04882 -0.125478,0.08877 -0.126549,0.08877 -0.0011,0 -0.05238,-0.05056 -0.114012,-0.112358 z"
       id="path3807"
       inkscape:connector-curvature="0" />
    <path
       style="fill:#ffffff;fill-opacity:1;stroke:none"
       d="m 64.746944,18.65036 c -0.135339,0.09285 -0.272088,0.287899 -0.30907,0.440836 -0.03157,0.130566 0.0073,0.364204 0.07936,0.477538 0.07696,0.120986 0.266591,0.266688 0.403628,0.310142 0.0822,0.02606 0.198237,0.02835 0.419338,0.0084 0.625765,-0.05664 1.026928,-0.03228 1.513523,0.0919 0.968424,0.247153 1.830525,0.89415 2.341309,1.757125 0.607318,1.026071 0.709695,2.300305 0.273865,3.408671 -0.325936,0.828895 -0.956995,1.54317 -1.733127,1.961671 -0.513881,0.277092 -0.833868,0.357579 -2.565946,0.645421 l -1.327101,0.220541 0.07145,0.108785 c 0.151865,0.231217 0.251762,0.794558 0.195983,1.105212 -0.01194,0.06661 -0.02101,0.125485 -0.02013,0.130861 8.66e-4,0.0055 0.692263,-0.105209 1.53637,-0.245789 1.653261,-0.275273 1.797379,-0.308424 2.312725,-0.53147 1.433229,-0.620404 2.491355,-1.806328 2.955241,-3.312168 0.357399,-1.160173 0.283225,-2.46446 -0.204053,-3.588157 -0.861713,-1.987164 -2.856269,-3.242413 -5.027416,-3.163939 -0.476105,0.01721 -0.767752,0.07275 -0.915969,0.174429 z"
       id="path3815"
       inkscape:connector-curvature="0" />
    <path
       sodipodi:type="arc"
       style="fill:#ffffff;fill-opacity:1;stroke:none"
       id="path3821-7"
       sodipodi:cx="21.797466"
       sodipodi:cy="56.44252"
       sodipodi:rx="18.501629"
       sodipodi:ry="17.939838"
       d="m 40.299095,56.44252 a 18.501629,17.939838 0 1 1 -37.0032576,0 18.501629,17.939838 0 1 1 37.0032576,0 z"
       transform="matrix(0.95375705,0,0,0.9756316,56.081342,3.7292195)" />
    <g
       id="g3851">
      <path
         inkscape:connector-curvature="0"
         id="path3801"
         d="m 48.390234,68.725834 c -0.106079,-0.03774 -0.230666,-0.151428 -0.287143,-0.262015 -0.04542,-0.08894 -0.04664,-0.10182 -0.04664,-0.493941 0,-0.376846 0.0026,-0.407411 0.04042,-0.477522 0.05023,-0.09309 0.121929,-0.160713 0.231112,-0.217974 l 0.08427,-0.04419 2.33143,0 2.33143,0 0.07758,0.04149 c 0.101749,0.05442 0.202711,0.174358 0.230592,0.273939 0.01506,0.05378 0.02036,0.207629 0.01626,0.472057 -0.0056,0.36012 -0.0094,0.398496 -0.04671,0.468171 -0.05039,0.09412 -0.140152,0.183355 -0.228886,0.227539 -0.06379,0.03176 -0.195621,0.03382 -2.361534,0.03696 -1.987581,0.0029 -2.304421,-3.99e-4 -2.372174,-0.02451 z m 2.608501,-0.128555 c 0.409093,-0.181692 0.52268,-0.768244 0.209433,-1.081491 -0.256789,-0.256789 -0.696845,-0.248686 -0.959433,0.01767 -0.135316,0.137254 -0.169838,0.225965 -0.169838,0.436425 0,0.152159 0.007,0.19281 0.04834,0.280939 0.154526,0.329391 0.553137,0.487858 0.8715,0.346462 z M 49.605837,68.21383 c 0.144793,-0.113894 0.142533,-0.38329 -0.0038,-0.458988 -0.124506,-0.06438 -0.326817,-0.0089 -0.386203,0.105965 -0.0388,0.07504 -0.02677,0.198175 0.0267,0.27327 0.07985,0.112144 0.269309,0.153727 0.363352,0.07975 z m 2.549533,-0.0022 c 0.02734,-0.02151 0.06219,-0.06322 0.07743,-0.0927 0.03683,-0.07121 0.03596,-0.241348 -0.0015,-0.294838 -0.06969,-0.0995 -0.233989,-0.126579 -0.364387,-0.06005 -0.132743,0.06772 -0.166707,0.206657 -0.08472,0.346558 0.07868,0.134265 0.266352,0.185074 0.373187,0.101037 l 10e-7,0 z m -3.315388,-0.07426 c 0.06839,-0.05379 0.09963,-0.164737 0.06605,-0.234583 -0.0546,-0.113585 -0.212402,-0.131765 -0.308612,-0.03555 -0.07584,0.07584 -0.04282,0.221761 0.06319,0.279281 0.07098,0.03851 0.122096,0.03591 0.179371,-0.0091 z m 4.002491,-0.01628 c 0.04471,-0.04471 0.05474,-0.07059 0.05474,-0.141298 0,-0.159073 -0.134546,-0.227618 -0.276681,-0.140959 -0.07606,0.04638 -0.104021,0.112327 -0.07735,0.182469 0.0573,0.150713 0.200595,0.198488 0.299295,0.09979 z"
         style="fill:#ffffff;fill-opacity:1;stroke:none" />
      <rect
         ry="0.7421875"
         y="67.265625"
         x="48.234375"
         height="1.484375"
         width="4.984375"
         id="rect3843"
         style="fill:#ffffff;fill-opacity:1;stroke:none" />
    </g>
  </g>
  <g
     inkscape:groupmode="layer"
     id="layer1"
     inkscape:label="buttons">
    <path
       inkscape:connector-curvature="0"
       style="fill:#673ab7;fill-opacity:1;stroke:none"
       d="m 20.043136,46.9742 c -0.472711,0 -0.84375,0.371039 -0.84375,0.84375 l 0,6.875 -6.624999,0 c -0.531397,0 -0.96875,0.437353 -0.96875,0.96875 l 0,5.125 c 0,0.531397 0.437353,0.96875 0.96875,0.96875 l 6.624999,0 0,7.1875 c 0,0.472711 0.371039,0.84375 0.84375,0.84375 l 5.34375,0 c 0.472711,0 0.84375,-0.371039 0.84375,-0.84375 l 0,-7.1875 7.25,0 c 0.531397,0 0.96875,-0.437353 0.96875,-0.96875 l 0,-5.125 c 0,-0.531397 -0.437353,-0.96875 -0.96875,-0.96875 l -7.25,0 0,-6.875 c 0,-0.472711 -0.371039,-0.84375 -0.84375,-0.84375 l -5.34375,0 z"
       id="rect3841" />
    <g
       transform="translate(0.04313659,-0.15079981)"
       id="g3975"
       style="fill:#673ab7;fill-opacity:1;stroke:none">
      <path
         transform="matrix(1.2494118,0,0,1.2137143,-14.691302,-9.1034519)"
         d="m 77.224574,49.682205 a 3.6016948,3.7076271 0 1 1 -7.20339,0 3.6016948,3.7076271 0 1 1 7.20339,0 z"
         sodipodi:ry="3.7076271"
         sodipodi:rx="3.6016948"
         sodipodi:cy="49.682205"
         sodipodi:cx="73.622879"
         id="path3870"
         style="fill:#673ab7;fill-opacity:1;stroke:none"
         sodipodi:type="arc" />
      <path
         transform="matrix(1.2494118,0,0,1.2137143,-14.98812,5.8098852)"
         d="m 77.224574,49.682205 a 3.6016948,3.7076271 0 1 1 -7.20339,0 3.6016948,3.7076271 0 1 1 7.20339,0 z"
         sodipodi:ry="3.7076271"
         sodipodi:rx="3.6016948"
         sodipodi:cy="49.682205"
         sodipodi:cx="73.622879"
         id="path3870-0"
         style="fill:#673ab7;fill-opacity:1;stroke:none"
         sodipodi:type="arc" />
      <path
         transform="matrix(-0.00957143,1.2493744,-1.2136779,-0.00929798,145.82655,-32.719017)"
         d="m 77.224574,49.682205 a 3.6016948,3.7076271 0 1 1 -7.20339,0 3.6016948,3.7076271 0 1 1 7.20339,0 z"
         sodipodi:ry="3.7076271"
         sodipodi:rx="3.6016948"
         sodipodi:cy="49.682205"
         sodipodi:cx="73.622879"
         id="path3870-4"
         style="fill:#673ab7;fill-opacity:1;stroke:none"
         sodipodi:type="arc" />
      <path
         transform="matrix(-0.00957143,1.2493744,-1.2136779,-0.00929798,130.57429,-32.892053)"
         d="m 77.224574,49.682205 a 3.6016948,3.7076271 0 1 1 -7.20339,0 3.6016948,3.7076271 0 1 1 7.20339,0 z"
         sodipodi:ry="3.7076271"
         sodipodi:rx="3.6016948"
         sodipodi:cy="49.682205"
         sodipodi:cx="73.622879"
         id="path3870-0-8"
         style="fill:#673ab7;fill-opacity:1;stroke:none"
         sodipodi:type="arc" />
    </g>
  </g>
</svg>
