<?xml version="1.0" encoding="UTF-8" standalone="no"?>
<!-- Created with Inkscape (http://www.inkscape.org/) -->

<svg
   xmlns:dc="http://purl.org/dc/elements/1.1/"
   xmlns:cc="http://creativecommons.org/ns#"
   xmlns:rdf="http://www.w3.org/1999/02/22-rdf-syntax-ns#"
   xmlns:svg="http://www.w3.org/2000/svg"
   xmlns="http://www.w3.org/2000/svg"
   xmlns:sodipodi="http://sodipodi.sourceforge.net/DTD/sodipodi-0.dtd"
   xmlns:inkscape="http://www.inkscape.org/namespaces/inkscape"
   width="340"
   height="850"
   viewBox="0 0 340 850.00001"
   id="svg2"
   version="1.1"
   inkscape:version="0.91 r13725"
   sodipodi:docname="avatar_female.svg"
   inkscape:export-filename="C:\Users\Bianka\Desktop\headfull.png"
   inkscape:export-xdpi="90"
   inkscape:export-ydpi="90">
  <defs
     id="defs4" />
  <sodipodi:namedview
     id="base"
     pagecolor="#ffffff"
     bordercolor="#666666"
     borderopacity="1.0"
     inkscape:pageopacity="0.0"
     inkscape:pageshadow="2"
     inkscape:zoom="0.98994949"
     inkscape:cx="185.74574"
     inkscape:cy="487.61906"
     inkscape:document-units="px"
     inkscape:current-layer="layer8"
     showgrid="false"
     inkscape:window-width="1440"
     inkscape:window-height="837"
     inkscape:window-x="-8"
     inkscape:window-y="-8"
     inkscape:window-maximized="1"
     showguides="true"
     inkscape:snap-text-baseline="true"
     inkscape:snap-to-guides="true"
     inkscape:guide-bbox="true"
     inkscape:snap-page="false"
     inkscape:snap-grids="true"
     units="px"
     inkscape:snap-global="false">
    <sodipodi:guide
       position="701.4286,1618.5715"
       orientation="0,1"
       id="guide4199" />
    <sodipodi:guide
       position="770.00003,1432.8572"
       orientation="0,1"
       id="guide4201" />
    <sodipodi:guide
       position="890.00004,1764.2858"
       orientation="0,1"
       id="guide4203" />
    <sodipodi:guide
       position="391.42857,858.57143"
       orientation="0,1"
       id="guide4205" />
    <sodipodi:guide
       position="1098.5715,1804.2858"
       orientation="1,0"
       id="guide4207" />
    <inkscape:grid
       type="xygrid"
       id="grid3000"
       empspacing="5"
       visible="true"
       enabled="true"
       snapvisiblegridlinesonly="true" />
  </sodipodi:namedview>
  <metadata
     id="metadata7">
    <rdf:RDF>
      <cc:Work
         rdf:about="">
        <dc:format>image/svg+xml</dc:format>
        <dc:type
           rdf:resource="http://purl.org/dc/dcmitype/StillImage" />
        <dc:title></dc:title>
        <cc:license
           rdf:resource="http://creativecommons.org/licenses/by-sa/3.0/" />
      </cc:Work>
      <cc:License
         rdf:about="http://creativecommons.org/licenses/by-sa/3.0/">
        <cc:permits
           rdf:resource="http://creativecommons.org/ns#Reproduction" />
        <cc:permits
           rdf:resource="http://creativecommons.org/ns#Distribution" />
        <cc:requires
           rdf:resource="http://creativecommons.org/ns#Notice" />
        <cc:requires
           rdf:resource="http://creativecommons.org/ns#Attribution" />
        <cc:permits
           rdf:resource="http://creativecommons.org/ns#DerivativeWorks" />
        <cc:requires
           rdf:resource="http://creativecommons.org/ns#ShareAlike" />
      </cc:License>
    </rdf:RDF>
  </metadata>
  <g
     inkscape:groupmode="layer"
     id="layer10"
     inkscape:label="footl"
     style="display:inline"
     transform="translate(0,-1871.2598)">
    <path
       style="display:inline;fill:none;stroke:#000000;stroke-width:2.93838525;stroke-linecap:butt;stroke-linejoin:miter;stroke-miterlimit:4;stroke-opacity:1;stroke-dasharray:none"
       d="m 236.0625,2615.2285 c -0.91973,0.7718 -1.87732,1.5562 -2.9375,2.25 -1.28401,0.8404 -2.65776,1.6144 -4.125,2.3125 -1.46724,0.6982 -3.03076,1.3184 -4.65625,1.8438 -1.62549,0.5254 -3.24544,0.926 -4.84375,1.2187 -1.59831,0.2928 -3.18579,0.4611 -4.71875,0.5313 -0.92845,0.043 -1.79425,-0.026 -2.6875,-0.062 0.0233,5.3003 -0.12981,10.9336 -0.6875,17.4062 -8.47558,27.471 4.82024,17.3735 19.03125,40.3438 8.40963,12.3151 56.47719,17.216 56.84375,-1.5938 -0.14911,-13.2222 -39.44386,-24.5217 -50.4375,-52.875 -0.9177,-0.648 -0.99488,-5.3205 -0.78125,-11.375 z"
       id="path4135"
       inkscape:connector-curvature="0" />
  </g>
  <g
     inkscape:groupmode="layer"
     id="layer1"
     inkscape:label="shorts">
    <path
       transform="translate(0,-1871.2598)"
       style="display:inline;fill:none;stroke:#000000;stroke-width:2.93838525;stroke-linecap:butt;stroke-linejoin:miter;stroke-miterlimit:4;stroke-opacity:1;stroke-dasharray:none"
       d="m 94.834434,2337.0119 c -12.312826,34.6461 -8.149731,78.4884 -4.396936,118.7791 0.974337,-0.1225 1.875936,-0.2897 2.90625,-0.375 2.315483,-0.1915 4.75746,-0.2858 7.312502,-0.2812 2.55504,0.01 5.20263,0.1005 7.9375,0.3125 2.73487,0.212 5.55129,0.5382 8.40625,0.9687 2.85496,0.4306 5.63191,0.9314 8.28125,1.5313 2.64934,0.5999 5.16991,1.2898 7.5625,2.0312 2.39259,0.7415 4.63404,1.5512 6.71875,2.4063 2.08471,0.8551 4.0243,1.7466 5.75,2.6875 0.78284,0.4268 1.36119,0.9034 2.0625,1.3437 12.72588,-57.6781 7.87424,-59.5176 14.08929,-84.0446 2.80165,-5.7773 14.84229,-5.6376 17.84385,0.1786 6.1406,24.2331 0.26351,27.4968 12.28571,83.2098 0.87128,-0.571 1.68007,-1.1382 2.6875,-1.6875 1.7257,-0.9409 3.63404,-1.8636 5.71875,-2.7188 2.08471,-0.8551 4.32616,-1.6335 6.71875,-2.375 2.39259,-0.7414 4.94441,-1.4313 7.59375,-2.0312 2.64934,-0.5999 5.42629,-1.132 8.28125,-1.5625 2.85496,-0.4305 5.64013,-0.7255 8.375,-0.9375 2.73487,-0.212 5.41371,-0.3391 7.96875,-0.3438 2.55504,-0.01 4.99702,0.09 7.3125,0.2813 2.31548,0.1916 4.48381,0.4984 6.5,0.875 1.13946,0.2129 2.09606,0.5121 3.125,0.7812 2.31942,-47.1312 6.26915,-81.001 -8.5928,-118.5629 -41.16257,-10.3657 -90.06079,-13.9347 -152.447866,-0.4662 z"
       id="rect3344-6-1-4-6-2-2"
       inkscape:connector-curvature="0"
       sodipodi:nodetypes="ccssssssssccccsssssssssccc" />
  </g>
  <g
     inkscape:groupmode="layer"
     id="layer9"
     inkscape:label="footr"
     style="display:inline"
     transform="translate(0,-1871.2598)">
    <path
       style="fill:none;stroke:#000000;stroke-width:2.93838525;stroke-linecap:butt;stroke-linejoin:miter;stroke-miterlimit:4;stroke-opacity:1;stroke-dasharray:none;display:inline"
       d="m 127.28125,2621.166 c -1.11097,0.071 -2.23778,0.1473 -3.40625,0.094 -1.53296,-0.07 -3.08919,-0.2697 -4.6875,-0.5625 -1.59831,-0.2927 -3.21826,-0.6933 -4.84375,-1.2187 -1.62549,-0.5254 -3.18901,-1.1456 -4.65625,-1.8438 -1.46724,-0.6981 -2.84099,-1.4721 -4.125,-2.3125 -0.58446,-0.3825 -1.08227,-0.8113 -1.625,-1.2187 -0.16636,5.988 -0.52569,10.6061 -1.4375,11.25 -10.993647,28.3533 -50.288392,39.6527 -50.437502,52.875 0.36656,18.8098 48.434122,13.9089 56.843752,1.5937 14.21101,-22.9703 27.50683,-12.8727 19.03125,-40.3437 -0.59018,-6.8496 -0.71256,-12.7688 -0.65625,-18.3125 z"
       id="path4130"
       inkscape:connector-curvature="0" />
  </g>
  <g
     inkscape:groupmode="layer"
     id="layer3"
     inkscape:label="armr"
     style="display:inline"
     transform="translate(0,-1871.2598)">
    <path
       inkscape:connector-curvature="0"
       style="opacity:0.93199978;fill:none;stroke:#000000;stroke-width:2.93838525;stroke-linecap:round;stroke-linejoin:round;stroke-miterlimit:4;stroke-opacity:1;stroke-dasharray:none;display:inline"
       d="m 55.559818,2198.372 c -11.657024,28.6397 -4.840002,48.2855 -16.4375,65.7188 -25.757129,38.7177 -14.48243,76.0902 -31.062499,114.2187 -8.55761302,25.9669 37.899209,59.2833 35.374999,32.75 -3.63383,-35.5411 -11.35699,3.4724 -10.625,-22.8125 0.1753,-6.2949 5.17406,1.094 6.4375,4.1875 8.0684,19.756 10.98191,10.141 11.65625,-1.9687 0.23083,-4.1453 0.8743,-1.0983 -4.875,-13.6875 -17.69169,-38.7396 16.471371,-64.0573 18.406251,-104.2188 0.885623,-18.3824 20.869637,-29.4803 21.125,-61.3125 -5.563959,-5.6523 -12.02764,-9.6333 -19.34375,-11.5625 -3.478991,-0.9173 -7.044757,-1.3552 -10.625001,-1.3125 -0.0015,0 -0.02974,0 -0.03125,0 z"
       id="rect3344-6-2-8" />
  </g>
  <g
     inkscape:groupmode="layer"
     id="layer4"
     inkscape:label="arml"
     style="display:inline"
     transform="translate(0,-1871.2598)">
    <path
       inkscape:connector-curvature="0"
       style="display:inline;opacity:0.93199978;fill:none;stroke:#000000;stroke-width:2.93838525;stroke-linecap:round;stroke-linejoin:round;stroke-miterlimit:4;stroke-opacity:1;stroke-dasharray:none"
       d="m 285.95649,2199.0824 c 11.65703,28.6397 4.84001,48.2855 16.4375,65.7188 25.75713,38.7177 14.48243,76.0902 31.0625,114.2187 8.55761,25.9669 -37.89921,59.2833 -35.375,32.75 3.63383,-35.5411 11.35699,3.4724 10.625,-22.8125 -0.1753,-6.2949 -5.17406,1.094 -6.4375,4.1875 -8.0684,19.756 -10.98191,10.141 -11.65625,-1.9687 -0.23083,-4.1453 -0.8743,-1.0983 4.875,-13.6875 17.69169,-38.7396 -16.47137,-64.0573 -18.40625,-104.2188 -0.88562,-18.3824 -20.86964,-29.4803 -21.125,-61.3125 5.56396,-5.6523 12.02764,-9.6333 19.34375,-11.5625 3.47899,-0.9173 7.04476,-1.3552 10.625,-1.3125 0.002,0 0.0297,0 0.0312,0 z"
       id="rect3344-6-2-8-5" />
  </g>
  <g
     inkscape:groupmode="layer"
     id="layer5"
     inkscape:label="torax"
     style="display:inline"
     transform="translate(0,-1871.2598)">
    <path
       style="display:inline;opacity:0.93199978;fill:none;stroke:#000000;stroke-width:2.93838525;stroke-linecap:round;stroke-linejoin:round;stroke-miterlimit:4;stroke-opacity:1;stroke-dasharray:none"
       d="m 133.3125,2132.8223 c -3.59674,1.924 -29.40453,1.0469 -43.500002,5.9687 0.05871,0.07 0.09808,0.1487 0.15625,0.2188 -24.170741,2.7325 -21.961134,34.7314 -27.75,45.0312 -4.684855,8.3356 -4.157636,7.1049 -6.1875,14.1563 11.852119,0.233 26.370145,7.3372 29.40625,13.625 0.214921,-2.9469 0.670189,-3.5539 0.5,-6.9063 6.672879,-6.2407 10.897782,-12.9425 13.21875,-19.7812 -0.20783,1.2246 -0.4203,2.3935 -0.625,3.6875 1.557772,17.5364 -0.27054,33.7725 17.375002,43.1875 5.41779,1.2557 9.91217,44.0031 3.375,51.5937 0,0 -18.1204,17.0667 -25.500002,53.625 21.472522,-3.837 35.531052,-6.1074 47.843752,-7.3437 -0.01,0.064 -0.0215,0.1235 -0.0312,0.1875 45.3779,-1.5346 53.9901,-1.4468 106.15625,7.875 -7.3796,-36.5583 -25.5,-53.625 -25.5,-53.625 -6.53717,-7.5906 -2.04279,-50.338 3.375,-51.5938 17.64554,-9.415 15.81723,-25.6511 17.375,-43.1875 -0.2047,-1.2939 -0.41717,-2.4629 -0.625,-3.6875 2.32097,6.8388 6.54587,13.5406 13.21875,19.7813 -0.17019,3.3524 0.25383,3.9594 0.46875,6.9062 3.0361,-6.2878 17.58538,-13.3919 29.4375,-13.625 -2.02986,-7.0513 -1.50264,-5.8206 -6.1875,-14.1562 -5.78886,-10.2998 -3.57926,-42.2988 -27.75,-45.0313 0.0582,-0.07 0.0976,-0.1487 0.15625,-0.2187 -14.09547,-4.9219 -39.90326,-4.0448 -43.5,-5.9688 8.79071,4.1785 -3.60931,25.3985 -28.71875,28.9063 -3.00837,-0.3171 -6.41276,-0.382 -10.28125,-0.1875 -29.88518,0.044 -45.50291,-24.8759 -35.90625,-29.4375 z"
       id="rect3344-6-2"
       inkscape:connector-curvature="0" />
  </g>
  <g
     inkscape:groupmode="layer"
     id="layer6"
     inkscape:label="head"
     style="display:inline"
     transform="translate(0,-1871.2598)">
    <path
       id="path3002"
       style="fill:none;stroke:#000000;stroke-width:2.9000001;stroke-miterlimit:4;stroke-opacity:1;stroke-dasharray:none"
       d="m 143.15625,2118.1973 c 0.26928,10.5172 -13.35121,14.2478 -12.6875,21.5 2.80184,12.0839 15.50157,18.4349 26.50005,21.3416 16.8636,3.7659 37.39314,0.6347 48.9062,-13.3104 3.79955,-4.243 6.31532,-12.3402 0.75355,-15.3995 -4.78911,-2.8501 -9.5542,-8.5992 -10.19866,-13.6757 -20.40268,6.9253 -31.36469,7.0012 -53.27364,-0.456 z m 26.51419,-180.3335 -9.8e-4,0.1073 c -76.135889,1.2594 -80.736449,80.8292 -75.421549,96.1594 2.67833,7.7253 -13.63629,-9.1788 -11.74974,14.2018 1.23955,15.3621 14.37174,7.5043 14.67642,8.3045 15.307769,36.8484 37.485999,68.8316 72.961739,66.7069 31.94696,1.4692 55.73578,-19.0547 73.91525,-66.7985 0.30469,-0.8002 13.43691,7.0577 14.67642,-8.3044 1.88657,-23.3807 -14.42811,-6.4764 -11.74973,-14.2018 5.35842,-15.456 0.63882,-96.2103 -77.30847,-96.1755 z"
       inkscape:connector-curvature="0"
       sodipodi:nodetypes="cccccccccssccssscc" />
  </g>
  <g
     inkscape:groupmode="layer"
     id="layer7"
     inkscape:label="legr"
     style="display:inline"
     transform="translate(0,-1871.2598)">
    <path
       style="display:inline;fill:none;stroke:#000000;stroke-width:2.93838525;stroke-linecap:butt;stroke-linejoin:miter;stroke-miterlimit:4;stroke-opacity:1;stroke-dasharray:none"
       d="m 100.65625,2455.1348 c -2.555042,0 -4.997019,0.09 -7.312502,0.2812 -1.030314,0.085 -1.931913,0.2525 -2.90625,0.375 0.893513,9.2906 1.893233,17.2196 2.875,25.6563 0.667197,5.7335 1.315902,12.2538 1.9375,17.4375 1.874806,1.6196 6.674722,53.3188 8.281252,90.1562 0.4397,10.0823 0.58568,18.604 0.40625,25.0625 0.54273,0.4074 1.04054,0.8363 1.625,1.2188 1.28401,0.8404 2.65776,1.6143 4.125,2.3125 1.46724,0.6982 3.03076,1.3183 4.65625,1.8437 1.62549,0.5255 3.24544,0.9261 4.84375,1.2188 1.59831,0.2927 3.15454,0.4923 4.6875,0.5625 1.16847,0.053 2.29528,-0.023 3.40625,-0.094 0.12224,-12.0351 1.54313,-21.3845 3.59375,-29.125 7.64404,-28.854 23.3066,-36.8361 7.4375,-89.6875 1.83435,-6.5017 3.02414,-11.5514 4.46875,-17.1875 1.70692,-6.6595 3.36331,-13.1732 4.59375,-18.75 -0.70131,-0.4403 -1.27966,-0.9169 -2.0625,-1.3437 -1.7257,-0.941 -3.66529,-1.8324 -5.75,-2.6875 -2.08471,-0.8552 -4.32616,-1.6648 -6.71875,-2.4063 -2.39259,-0.7415 -4.91316,-1.4313 -7.5625,-2.0312 -2.64934,-0.6 -5.42629,-1.1008 -8.28125,-1.5313 -2.85496,-0.4305 -5.67138,-0.7567 -8.40625,-0.9687 -2.73487,-0.212 -5.38246,-0.3079 -7.9375,-0.3125 z"
       id="path4128"
       inkscape:connector-curvature="0" />
  </g>
  <g
     inkscape:groupmode="layer"
     id="layer8"
     inkscape:label="legl"
     style="display:inline"
     transform="translate(0,-1871.2598)">
    <path
       style="display:inline;fill:none;stroke:#000000;stroke-width:2.93838525;stroke-linecap:butt;stroke-linejoin:miter;stroke-miterlimit:4;stroke-opacity:1;stroke-dasharray:none"
       d="m 238.9375,2454.1035 c -2.55504,0.01 -5.23388,0.1318 -7.96875,0.3438 -2.73487,0.212 -5.52004,0.507 -8.375,0.9375 -2.85496,0.4305 -5.63191,0.9626 -8.28125,1.5625 -2.64934,0.5999 -5.20116,1.2898 -7.59375,2.0312 -2.39259,0.7415 -4.63404,1.5199 -6.71875,2.375 -2.08471,0.8552 -3.99305,1.7779 -5.71875,2.7188 -1.00743,0.5493 -1.81622,1.1165 -2.6875,1.6875 1.17923,5.4648 2.69486,11.6518 4.34375,18.1875 1.5923,6.3114 2.99584,12.2203 5.09375,19.6562 -15.95481,53.1369 -0.034,60.9166 7.5625,90.1563 2.0375,7.8426 3.44628,17.3217 3.5,29.5625 0.89325,0.036 1.75905,0.105 2.6875,0.062 1.53296,-0.07 3.12044,-0.2385 4.71875,-0.5313 1.59831,-0.2927 3.21826,-0.6933 4.84375,-1.2187 1.62549,-0.5254 3.18901,-1.1456 4.65625,-1.8438 1.46724,-0.6981 2.84099,-1.4721 4.125,-2.3125 1.06018,-0.6938 2.01777,-1.4782 2.9375,-2.25 0.20908,-5.9256 0.79888,-13.5929 1.75,-22.625 3.88911,-36.9318 12.45878,-90.8134 14.375,-92.4687 0.84897,-7.0799 1.58808,-14.8337 2.25,-22.9375 0.55624,-6.81 1.07745,-13.84 1.4375,-21.1563 -1.02894,-0.2691 -1.98554,-0.5683 -3.125,-0.7812 -2.01619,-0.3766 -4.18452,-0.6834 -6.5,-0.875 -2.31548,-0.1916 -4.75746,-0.2859 -7.3125,-0.2813 z"
       id="path4133"
       inkscape:connector-curvature="0" />
  </g>
</svg>
