<?xml version="1.0" encoding="UTF-8" standalone="no"?>
<!-- Created with Inkscape (http://www.inkscape.org/) -->

<svg
   xmlns:dc="http://purl.org/dc/elements/1.1/"
   xmlns:cc="http://creativecommons.org/ns#"
   xmlns:rdf="http://www.w3.org/1999/02/22-rdf-syntax-ns#"
   xmlns:svg="http://www.w3.org/2000/svg"
   xmlns="http://www.w3.org/2000/svg"
   xmlns:sodipodi="http://sodipodi.sourceforge.net/DTD/sodipodi-0.dtd"
   xmlns:inkscape="http://www.inkscape.org/namespaces/inkscape"
   width="256"
   height="512"
   viewBox="0 0 256.00001 512.00001"
   id="svg2"
   version="1.1"
   inkscape:version="0.91 r13725"
   sodipodi:docname="avatar_male.svg">
  <defs
     id="defs4" />
  <sodipodi:namedview
     id="base"
     pagecolor="#ffffff"
     bordercolor="#666666"
     borderopacity="1.0"
     inkscape:pageopacity="0.0"
     inkscape:pageshadow="2"
     inkscape:zoom="1.979899"
     inkscape:cx="104.22974"
     inkscape:cy="327.10924"
     inkscape:document-units="px"
     inkscape:current-layer="layer2"
     showgrid="false"
     inkscape:window-width="1440"
     inkscape:window-height="837"
     inkscape:window-x="-8"
     inkscape:window-y="-8"
     inkscape:window-maximized="1"
     showguides="true"
     inkscape:snap-text-baseline="true"
     units="px"
     inkscape:snap-global="true"
     inkscape:snap-center="false"
     inkscape:snap-to-guides="true"
     inkscape:snap-grids="true">
    <inkscape:grid
       type="xygrid"
       id="grid3001"
       empspacing="5"
       visible="true"
       enabled="true"
       snapvisiblegridlinesonly="true" />
  </sodipodi:namedview>
  <metadata
     id="metadata7">
    <rdf:RDF>
      <cc:Work
         rdf:about="">
        <dc:format>image/svg+xml</dc:format>
        <dc:type
           rdf:resource="http://purl.org/dc/dcmitype/StillImage" />
        <dc:title></dc:title>
        <cc:license
           rdf:resource="http://creativecommons.org/licenses/by-sa/3.0/" />
      </cc:Work>
      <cc:License
         rdf:about="http://creativecommons.org/licenses/by-sa/3.0/">
        <cc:permits
           rdf:resource="http://creativecommons.org/ns#Reproduction" />
        <cc:permits
           rdf:resource="http://creativecommons.org/ns#Distribution" />
        <cc:requires
           rdf:resource="http://creativecommons.org/ns#Notice" />
        <cc:requires
           rdf:resource="http://creativecommons.org/ns#Attribution" />
        <cc:permits
           rdf:resource="http://creativecommons.org/ns#DerivativeWorks" />
        <cc:requires
           rdf:resource="http://creativecommons.org/ns#ShareAlike" />
      </cc:License>
    </rdf:RDF>
  </metadata>
  <g
     inkscape:groupmode="layer"
     id="layer1"
     inkscape:label="shorts"
     transform="translate(0,-338)">
    <path
       style="fill:none;stroke:#000000;stroke-width:1.71428514;stroke-linecap:butt;stroke-linejoin:miter;stroke-miterlimit:4;stroke-dasharray:none;stroke-opacity:1"
       d="m 166.28616,620.31479 c -24.9686,9.56447 -55.22946,7.76983 -77.893013,0.42158 -8.273078,20.85444 -13.008306,50.17022 -13.505866,76.12457 1.399971,-0.0158 2.79918,-0.0358 4.299826,0.0363 2.071418,0.0999 4.228049,0.27594 6.44974,0.54992 2.221693,0.27398 4.51184,0.64498 6.835628,1.0998 2.323775,0.45481 4.564606,0.97427 6.725367,1.55803 2.160748,0.58379 4.236818,1.23633 6.192488,1.92466 1.95567,0.68832 3.80405,1.41285 5.51259,2.18125 0.19927,0.0896 0.35567,0.18449 0.55126,0.27499 1.34112,-10.75324 1.01099,-20.33741 7.40527,-39.8128 5.70342,-2.1142 11.99653,-2.02939 17.10743,0.16495 6.72202,20.4737 5.94203,29.76699 7.51549,41.05921 0.53658,-0.26195 0.99507,-0.53323 1.56192,-0.78816 1.70854,-0.76844 3.55691,-1.51125 5.5126,-2.19958 1.95568,-0.68834 4.01334,-1.32259 6.17412,-1.90633 2.16075,-0.58375 4.41995,-1.12157 6.74373,-1.57639 2.32377,-0.45481 4.61393,-0.80751 6.83562,-1.08149 2.2217,-0.27393 4.37833,-0.46832 6.44974,-0.56821 1.07098,-0.0516 2.04763,-0.0118 3.06869,-0.0181 -0.35769,-26.27053 -5.1303,-56.23896 -13.54263,-77.44435 z"
       id="rect3344-6-1-4-6-2"
       inkscape:connector-curvature="0" />
  </g>
  <g
     inkscape:groupmode="layer"
     id="layer10"
     inkscape:label="footl"
     transform="translate(0,-2209.2595)">
    <path
       style="fill:none;stroke:#000000;stroke-width:1.71428514;stroke-linecap:butt;stroke-linejoin:miter;stroke-miterlimit:4;stroke-dasharray:none;stroke-opacity:1"
       d="m 177.8075,2662.1533 c -0.41208,0.3133 -0.76371,0.6623 -1.21278,0.9531 -1.07345,0.6956 -2.24738,1.3356 -3.50967,1.888 -1.26231,0.5527 -2.60487,1.0225 -4.02422,1.4115 -1.41934,0.3889 -2.90224,0.6933 -4.44682,0.8981 -1.54459,0.2048 -3.15793,0.3117 -4.79595,0.3117 -1.63803,0 -3.23302,-0.1069 -4.7776,-0.3117 -0.52387,-0.07 -0.9961,-0.2201 -1.50676,-0.3116 -0.082,4.0486 -0.32717,8.6339 -0.80853,14.0592 -4.84581,15.7985 4.14855,10.2167 12.42173,23.5541 4.91294,7.1757 36.35276,8.7603 36.56691,-2.1996 -0.0871,-7.7042 -15.97694,-10.1312 -22.39954,-26.6519 -0.88252,-1.397 -1.30446,-6.6579 -1.50677,-13.6009 z"
       id="path3946"
       inkscape:connector-curvature="0" />
    <path
       style="fill:none;stroke:#000000;stroke-width:1.71428514;stroke-linecap:butt;stroke-linejoin:miter;stroke-miterlimit:4;stroke-dasharray:none;stroke-opacity:1"
       d="m 178.322,2569.0184 c -0.50565,-0.01 -1.0264,-0.01 -1.5619,0.018 -2.07141,0.1 -4.22804,0.2943 -6.44974,0.5683 -2.22169,0.2739 -4.51185,0.6267 -6.83562,1.0814 -2.32378,0.4548 -4.58298,0.9928 -6.74373,1.5765 -2.16078,0.5838 -4.21844,1.2181 -6.17412,1.9064 -1.95569,0.6882 -3.80406,1.4312 -5.5126,2.1995 -0.56685,0.2551 -1.02534,0.5263 -1.56192,0.7882 0.72807,5.2252 2.10996,11.0722 4.83274,18.4584 0.90649,2.4591 1.81465,4.9169 3.08704,7.8086 -2.84164,18.3761 -2.04648,26.8435 -0.69827,34.6253 1.30623,7.5395 3.12226,14.4988 2.82982,28.943 0.51066,0.092 0.98289,0.2421 1.50676,0.3117 1.54458,0.2048 3.13957,0.3116 4.7776,0.3116 1.63802,0 3.25136,-0.1068 4.79595,-0.3116 1.54458,-0.2048 3.02748,-0.5092 4.44682,-0.8982 1.41935,-0.389 2.76191,-0.8588 4.02422,-1.4114 1.26229,-0.5525 2.43622,-1.1924 3.50967,-1.8879 0.44907,-0.2909 0.8007,-0.64 1.21278,-0.9532 -0.16582,-5.6907 -0.17243,-12.5668 -0.0918,-19.9063 0.18906,-17.2273 0.77252,-36.2852 0.56964,-45.3487 0.2709,-1.8173 0.4037,-3.8606 0.60637,-5.7922 0.71801,-6.8425 1.04399,-14.2412 0.93715,-22.0877 -0.51052,0.01 -1.00112,0 -1.50677,0 z"
       id="path3944"
       inkscape:connector-curvature="0" />
  </g>
  <g
     inkscape:groupmode="layer"
     id="layer9"
     inkscape:label="footr"
     style="display:inline"
     transform="translate(0,-2209.2595)">
    <path
       style="fill:none;stroke:#000000;stroke-width:1.71428514;stroke-linecap:butt;stroke-linejoin:miter;stroke-miterlimit:4;stroke-dasharray:none;stroke-opacity:1"
       d="m 101.12725,2666.9374 c -0.12684,0.018 -0.23991,0.057 -0.3675,0.074 -1.5446,0.2047 -3.157945,0.3116 -4.795968,0.3116 -1.638023,0 -3.233005,-0.1069 -4.777585,-0.3116 -1.544587,-0.2049 -3.027484,-0.5092 -4.44683,-0.8981 -1.419345,-0.3891 -2.780274,-0.8772 -4.042574,-1.43 -1.262297,-0.5524 -2.436239,-1.1741 -3.509686,-1.8695 -0.855566,-0.5544 -1.579471,-1.1812 -2.296917,-1.8147 -0.181101,7.6519 -0.585338,13.6895 -1.525151,15.1772 -6.422599,16.5208 -22.312392,18.9477 -22.399526,26.6519 0.214141,10.96 31.653967,9.357 36.566903,2.1813 8.273194,-13.3374 17.267544,-7.7371 12.421734,-23.5358 -0.49813,-5.6138 -0.75422,-10.3888 -0.8269,-14.5357 z"
       id="path3951"
       inkscape:connector-curvature="0" />
  </g>
  <g
     inkscape:groupmode="layer"
     id="layer3"
     inkscape:label="armr"
     style="display:inline"
     transform="translate(0,-2209.2595)">
    <path
       style="opacity:0.93199978;fill:none;stroke:#000000;stroke-width:1.71437716;stroke-linecap:round;stroke-linejoin:round;stroke-miterlimit:4;stroke-dasharray:none;stroke-opacity:1"
       d="m 54.582542,2550.835 c -0.321473,0.4447 -0.33709,0.4046 0.624761,-0.3299 -0.209143,0.1309 -0.417141,0.2109 -0.624761,0.3299 z"
       id="path3862"
       inkscape:connector-curvature="0" />
    <path
       style="opacity:0.93199978;fill:none;stroke:#000000;stroke-width:1.71437716;stroke-linecap:round;stroke-linejoin:round;stroke-miterlimit:4;stroke-dasharray:none;stroke-opacity:1"
       d="m 52.653133,2426.3011 c -2.110863,0.035 -3.588312,0.096 -5.034839,0.1649 -1.576377,5.9032 -2.230281,11.4582 -3.454561,16.6253 -0.565272,2.3858 -1.239531,4.6937 -2.223416,6.9104 -9.243223,20.8262 -7.431975,55.0301 -7.75439,83.8599 -0.452746,11.9748 8.743671,23.6577 20.396615,16.9734 0.825788,-1.1419 3.968004,-6.3505 -0.03675,-17.7617 -1.215408,-3.4631 2.483439,-3.1715 3.766943,-1.7047 8.90391,10.1766 9.120647,-4.4515 2.296916,-7.7352 -3.481554,-1.6752 -7.062994,-1.4621 -7.019377,-6.2322 0.327496,-35.817 9.986265,-32.4851 8.3424,-58.3077 -0.151285,-2.3766 0.604196,-4.6467 1.800783,-6.9472 1.922848,-3.6968 5.04165,-7.5123 7.864639,-12.0612 -0.220329,-0.7434 -0.408366,-1.4952 -0.716637,-2.1994 -0.500662,-1.144 -1.107975,-2.2444 -1.819158,-3.2629 -0.711183,-1.0185 -1.530377,-1.9574 -2.425543,-2.8227 -0.895168,-0.8655 -1.869065,-1.6432 -2.921677,-2.3279 -1.052612,-0.6849 -2.179168,-1.2833 -3.362685,-1.7598 -1.183516,-0.4764 -2.423933,-0.8409 -3.711816,-1.0814 -1.287884,-0.2407 -2.621735,-0.3528 -3.987447,-0.3299 z"
       id="path3860"
       inkscape:connector-curvature="0" />
  </g>
  <g
     inkscape:groupmode="layer"
     id="layer4"
     inkscape:label="arml"
     style="display:inline"
     transform="translate(0,-2209.2595)">
    <path
       inkscape:connector-curvature="0"
       style="display:inline;opacity:0.93199978;fill:none;stroke:#000000;stroke-width:1.71437716;stroke-linecap:round;stroke-linejoin:round;stroke-miterlimit:4;stroke-dasharray:none;stroke-opacity:1"
       d="m 203.97187,2428.6735 c 2.11087,0.035 3.58832,0.097 5.03484,0.1648 1.57638,5.9033 2.23028,11.4584 3.45456,16.6254 0.56528,2.3857 1.23953,4.6935 2.22342,6.9103 9.24323,20.8263 7.43198,55.0301 7.75439,83.8599 0.45275,11.9748 -8.74368,23.6579 -20.39661,16.9737 -0.82578,-1.1422 -3.96799,-6.3509 0.0368,-17.7618 1.21541,-3.4634 -2.48346,-3.1719 -3.76695,-1.7047 -8.90391,10.1763 -9.12066,-4.4517 -2.29691,-7.7352 3.48155,-1.6754 7.063,-1.4623 7.01938,-6.2323 -0.32751,-35.817 -9.98627,-32.4851 -8.34241,-58.3077 0.15129,-2.3766 -0.6042,-4.6468 -1.80077,-6.9472 -1.92286,-3.6969 -5.04167,-7.5123 -7.86464,-12.0613 0.22031,-0.7434 0.40837,-1.4951 0.71664,-2.1996 0.50064,-1.1438 1.10796,-2.2443 1.81914,-3.2627 0.71119,-1.0185 1.53038,-1.9574 2.42556,-2.8229 0.89516,-0.8653 1.86905,-1.6429 2.92166,-2.3277 1.05262,-0.6849 2.17918,-1.2831 3.36269,-1.7597 1.18352,-0.4766 2.42394,-0.841 3.71183,-1.0815 1.28788,-0.2406 2.62172,-0.3529 3.98742,-0.3298 z"
       id="path3860-9" />
  </g>
  <g
     inkscape:groupmode="layer"
     id="layer5"
     inkscape:label="torax"
     style="display:inline"
     transform="translate(0,-2209.2595)">
    <path
       style="display:inline;opacity:0.93199978;fill:none;stroke:#000000;stroke-width:1.71437716;stroke-linecap:round;stroke-linejoin:round;stroke-miterlimit:4;stroke-dasharray:none;stroke-opacity:1"
       d="m 80.43663,2378.2214 c -18.1552,6.2139 -18.907041,21.5932 -22.113396,27.0106 -5.467978,5.9628 -6.985818,10.4299 -9.032786,15.8817 -0.682717,1.8184 -1.202857,3.5949 -1.672154,5.3523 1.446527,-0.07 2.923976,-0.1296 5.034839,-0.1649 1.365712,-0.023 2.699563,0.09 3.987447,0.3299 1.287883,0.2406 2.528299,0.605 3.711816,1.0814 1.183517,0.4765 2.310074,1.0749 3.362684,1.7598 1.052613,0.6847 2.026511,1.4624 2.921678,2.3279 0.895167,0.8654 1.71436,1.8043 2.425542,2.8227 0.711183,1.0185 1.318498,2.1189 1.819158,3.2629 0.308273,0.7042 0.496309,1.4561 0.716638,2.1994 0.856685,-1.3803 1.676897,-2.8076 2.425543,-4.3442 1.932628,-3.9663 3.356225,-8.511 3.509689,-13.9491 0.799183,8.8568 2.605204,13.0362 7.938141,20.7129 0,0 0.285228,16.778 3.06868,20.9147 4.727606,7.026 -2.065281,15.1099 -0.0735,28.2648 24.193971,11.3272 63.241691,7.1537 77.819511,-1.0083 1.99177,-13.1547 -4.84141,-19.1055 -0.82688,-26.5601 4.70149,-8.73 2.81972,-20.2771 4.09769,-21.9409 8.20256,-11.2778 8.12687,-13.2326 9.10892,-19.8435 -0.83977,7.7144 1.44443,10.6573 3.93756,15.7742 0.74864,1.5364 1.56888,2.9636 2.42556,4.3442 0.22031,-0.7435 0.40836,-1.4954 0.71662,-2.1995 0.50066,-1.1441 1.10798,-2.2443 1.81917,-3.2629 0.71119,-1.0184 1.53038,-1.9574 2.42554,-2.8228 0.89516,-0.8656 1.86907,-1.6432 2.92168,-2.3279 1.05261,-0.6848 2.17916,-1.2832 3.36267,-1.7597 1.18353,-0.4765 2.42394,-0.8407 3.71182,-1.0814 1.28789,-0.2406 2.62173,-0.3528 3.98745,-0.33 2.11087,0.034 3.58832,0.096 5.03484,0.1649 -0.4693,-1.7573 -0.98943,-5.0004 -1.67214,-6.8187 -2.04696,-5.4518 -1.51112,-8.0307 -7.25086,-15.4627 -3.22142,-4.1712 -3.09431,-21.7084 -23.92972,-26.6072 -15.45221,0.4547 -26.64026,-2.0098 -28.77671,-4.7356 -5.1846,6.6109 -29.09056,8.9963 -39.13853,-0.229 -4.37196,3.9102 -16.271649,0.762 -27.804209,3.2441 z"
       id="rect3344-6-2"
       inkscape:connector-curvature="0"
       sodipodi:nodetypes="ccscssssssscsccsccsccscssssscscsscccc" />
  </g>
  <g
     inkscape:groupmode="layer"
     id="layer6"
     inkscape:label="head"
     style="display:inline"
     transform="translate(0,-2209.2595)"
     sodipodi:insensitive="true">
    <path
       id="path3957"
       style="fill:none;stroke:#000000;stroke-width:1.70312679;stroke-linecap:round;stroke-linejoin:round;stroke-miterlimit:4;stroke-dasharray:none;stroke-opacity:1"
       d="m 110.5384,2367.2589 c -0.59576,1.4661 0.19012,3.0814 -1.81915,7.387 5.58965,8.7829 31.20567,7.9786 38.81656,0.4949 -3.47264,-5.5622 -1.71383,-7.1829 -3.36269,-6.7061 -11.98815,6.1346 -24.97088,4.1714 -33.63472,-1.1758 z m 16.2219,-104.8277 0,0.062 c -44.479282,0.7339 -47.16693,47.0973 -44.061933,56.0297 1.564718,4.5016 -7.966426,-5.3483 -6.86432,8.2751 0.724163,8.9511 8.396086,4.3725 8.574105,4.8387 9.364678,17.4875 18.916828,39.9926 43.369088,39.9159 22.17107,0.1058 31.15666,-15.5256 42.4389,-39.9693 0.17802,-0.4662 7.85001,4.1124 8.57412,-4.8389 1.10214,-13.6232 -8.42904,-3.7736 -6.86427,-8.2749 3.13045,-9.0058 0.37315,-56.0594 -45.16429,-56.0392 z"
       inkscape:connector-curvature="0"
       sodipodi:nodetypes="cccccccsscccsccc" />
  </g>
  <g
     inkscape:groupmode="layer"
     id="layer7"
     inkscape:label="legr"
     transform="translate(0,-2209.2595)">
    <path
       style="fill:none;stroke:#000000;stroke-width:1.71428514;stroke-linecap:butt;stroke-linejoin:miter;stroke-miterlimit:4;stroke-dasharray:none;stroke-opacity:1"
       d="m 77.000443,2568.1019 c -0.712381,0 -1.413176,0.01 -2.113162,0.018 -0.146677,7.6511 0.107812,14.9167 0.735012,21.6661 0.237185,2.5525 0.419502,5.1705 0.771765,7.5337 -0.203598,9.0953 0.382878,28.2395 0.569635,45.5134 0.07234,6.692 0.05369,12.7909 -0.0735,18.1651 0.717445,0.6334 1.441351,1.2604 2.296917,1.8147 1.073446,0.6954 2.247388,1.317 3.509686,1.8695 1.262299,0.5526 2.623228,1.0409 4.042573,1.4299 1.419346,0.389 2.902243,0.6933 4.44683,0.8982 1.544582,0.2047 3.139563,0.3115 4.777587,0.3115 1.638017,0 3.251363,-0.1068 4.795964,-0.3115 0.12759,-0.017 0.24066,-0.055 0.3675,-0.074 -0.25818,-14.7294 1.70023,-21.5444 2.99518,-29.3829 1.24703,-7.5483 1.88621,-16.0451 -0.84525,-33.709 1.47863,-3.3601 2.60587,-6.2919 3.60153,-9.0917 2.70562,-7.6077 3.88957,-13.5084 4.57546,-19.0081 -0.19559,-0.09 -0.35199,-0.1853 -0.55126,-0.2749 -1.70854,-0.7685 -3.55692,-1.493 -5.51259,-2.1814 -1.95567,-0.6881 -4.03173,-1.3408 -6.192479,-1.9245 -2.160756,-0.5838 -4.401588,-1.1033 -6.725363,-1.5583 -2.323788,-0.4547 -4.613936,-0.8257 -6.835629,-1.0996 -2.221691,-0.2739 -4.378322,-0.4501 -6.449739,-0.55 -0.750325,-0.035 -1.474285,-0.053 -2.186665,-0.055 z"
       id="path3949"
       inkscape:connector-curvature="0" />
  </g>
  <g
     inkscape:groupmode="layer"
     id="layer8"
     inkscape:label="legl"
     transform="translate(0,-2209.2595)" />
  <g
     inkscape:groupmode="layer"
     id="layer2"
     inkscape:label="hair1"
     style="display:inline"
     transform="translate(0,-338)">
    <g
       id="g4328">
      <rect
         ry="2.3577693"
         y="337.68338"
         x="0"
         height="170"
         width="256"
         id="rect4282"
         style="opacity:1;fill:#ffffff;fill-opacity:0;stroke:none;stroke-width:1.97805798;stroke-linecap:round;stroke-linejoin:round;stroke-miterlimit:4;stroke-dasharray:none;stroke-opacity:1" />
      <g
         transform="matrix(0.59167066,0,0,0.59167066,26.049023,360.87671)"
         id="g4298">
        <g
           id="g4312">
          <path
             sodipodi:nodetypes="ccc"
             inkscape:connector-curvature="0"
             id="path4186"
             d="m 238.37261,140.79054 c 32.53132,22.78634 50.54727,0.50373 65.01866,-31.87372 -28.92623,19.58784 -32.44147,3.40822 -65.01866,31.87372 z"
             style="fill:#ffffff;fill-opacity:1;fill-rule:evenodd;stroke:#000000;stroke-width:2;stroke-linecap:butt;stroke-linejoin:miter;stroke-miterlimit:4;stroke-dasharray:none;stroke-opacity:1" />
          <path
             sodipodi:nodetypes="cccc"
             inkscape:connector-curvature="0"
             id="path4184"
             d="m 233.2306,134.55907 c 9.93341,29.44297 1.59445,50.33038 -3.35453,70.685 18.22021,-22.14904 23.13401,-46.3621 25.8836,-68.55877 -11.4841,-7.60725 -20.7872,-13.45509 -22.52907,-2.12623 z"
             style="fill:#ffffff;fill-opacity:1;fill-rule:evenodd;stroke:#000000;stroke-width:2;stroke-linecap:butt;stroke-linejoin:miter;stroke-miterlimit:4;stroke-dasharray:none;stroke-opacity:1" />
          <path
             sodipodi:nodetypes="cccc"
             inkscape:connector-curvature="0"
             id="path4182"
             d="m 106.55498,149.81379 c -3.01145,11.11532 -0.82654,31.58685 2.62063,51.05989 -6.53428,-7.24386 -16.359401,-15.76971 -18.066466,-45.43194 4.791069,-4.676 14.191826,-17.37875 15.445836,-5.62795 z"
             style="fill:#ffffff;fill-opacity:1;fill-rule:evenodd;stroke:#000000;stroke-width:2;stroke-linecap:butt;stroke-linejoin:miter;stroke-miterlimit:4;stroke-dasharray:none;stroke-opacity:1" />
          <path
             sodipodi:nodetypes="cccc"
             inkscape:connector-curvature="0"
             id="path4170"
             d="m 57.344887,94.85382 c 5.371386,20.12135 14.343512,26.08891 36.503476,30.21688 31.682837,16.44711 29.707777,32.00071 -8.29659,33.30142 0,0 -40.846611,-3.49265 -28.206886,-63.5183 z"
             style="fill:#ffffff;fill-opacity:1;fill-rule:evenodd;stroke:#000000;stroke-width:2;stroke-linecap:butt;stroke-linejoin:miter;stroke-miterlimit:4;stroke-dasharray:none;stroke-opacity:1" />
          <path
             sodipodi:nodetypes="cccc"
             inkscape:connector-curvature="0"
             id="path4168"
             d="m 63.422532,36.137445 c 5.293862,29.54158 36.653388,40.540126 36.653388,40.540126 287.94725,46.359869 0,0 23.11738,66.191739 C 96.658004,142.04133 57.729114,126.16199 63.422532,36.137445 Z"
             style="fill:#ffffff;fill-opacity:1;fill-rule:evenodd;stroke:#000000;stroke-width:2;stroke-linecap:butt;stroke-linejoin:miter;stroke-miterlimit:4;stroke-dasharray:none;stroke-opacity:1" />
          <path
             sodipodi:nodetypes="cccccc"
             inkscape:connector-curvature="0"
             id="path4166"
             d="M 109.63641,-4.5397759 C 103.22516,7.5311982 99.648302,20.364976 99.302242,33.331369 c -5.714124,2.16984 -8.941287,-3.59757 -12.489667,-11.32619 -6.940479,54.408219 29.144755,95.237881 53.631365,66.662456 21.36049,-11.908359 5.78611,-42.357051 -3.51779,-54.083981 -23.16987,-4.676706 -23.1612,-22.812679 -27.28974,-39.1234299 z"
             style="fill:#ffffff;fill-opacity:1;fill-rule:evenodd;stroke:#000000;stroke-width:2;stroke-linecap:butt;stroke-linejoin:miter;stroke-miterlimit:4;stroke-dasharray:none;stroke-opacity:1" />
          <path
             sodipodi:nodetypes="cccc"
             inkscape:connector-curvature="0"
             id="path4172"
             d="m 167.34839,67.406201 c -9.33797,9.540629 -46.49709,-3.050468 -22.77385,-46.856485 4.64967,-10.51644 14.9589,-21.2830776 26.90941,-32.122276 -9.72667,27.779833 11.49368,70.460972 -4.13556,78.978761 z"
             style="fill:#ffffff;fill-opacity:1;fill-rule:evenodd;stroke:#000000;stroke-width:2;stroke-linecap:butt;stroke-linejoin:miter;stroke-miterlimit:4;stroke-dasharray:none;stroke-opacity:1" />
          <path
             sodipodi:nodetypes="ccc"
             inkscape:connector-curvature="0"
             id="path4174"
             d="M 178.74739,78.853716 C 138.67842,33.284228 222.17406,-22.175447 264.26553,7.8083325 220.34159,17.629116 230.42859,94.112419 178.74739,78.853716 Z"
             style="fill:#ffffff;fill-opacity:1;fill-rule:evenodd;stroke:#000000;stroke-width:2;stroke-linecap:butt;stroke-linejoin:miter;stroke-miterlimit:4;stroke-dasharray:none;stroke-opacity:1" />
          <path
             sodipodi:nodetypes="ccccccc"
             inkscape:connector-curvature="0"
             id="path4180"
             d="m 300.02369,57.995231 c -31.1807,-0.07126 -65.30659,39.517314 -97.9942,59.729389 30.65226,44.73241 77.80437,28.39036 87.3673,-20.130177 1.16332,-5.609587 6.54552,-10.499889 13.65538,-13.477379 -5.74509,-1.277491 -10.28264,-1.722859 -14.31492,-1.490323 2.51258,-6.151373 7.52253,-13.747419 17.49144,-24.068547 -2.05122,-0.374769 -4.1263,-0.55863 -6.205,-0.562963 z"
             style="fill:#ffffff;fill-opacity:1;fill-rule:evenodd;stroke:#000000;stroke-width:2;stroke-linecap:butt;stroke-linejoin:miter;stroke-miterlimit:4;stroke-dasharray:none;stroke-opacity:1" />
          <path
             sodipodi:nodetypes="ccsc"
             inkscape:connector-curvature="0"
             id="path4164"
             d="m 141.30349,164.94704 c 5.34912,-20.00971 20.83387,-44.57334 49.11215,-60.95401 17.60064,-32.014289 -17.12512,-38.546885 -29.86468,-38.990381 -29.51029,-1.0274 -50.44536,61.936511 -19.24747,99.944391 z"
             style="fill:#ffffff;fill-opacity:1;fill-rule:evenodd;stroke:#000000;stroke-width:2;stroke-linecap:butt;stroke-linejoin:miter;stroke-miterlimit:4;stroke-dasharray:none;stroke-opacity:1" />
          <path
             sodipodi:nodetypes="cccc"
             inkscape:connector-curvature="0"
             id="path4178"
             d="m 201.98813,118.42547 c -22.41523,1.55591 -16.49729,-28.316888 -2.89425,-43.371119 20.2324,-20.217848 53.4308,-17.450044 64.86806,-44.433467 1.74278,33.657503 -0.39357,73.972796 -61.97381,87.804586 z"
             style="fill:#ffffff;fill-opacity:1;fill-rule:evenodd;stroke:#000000;stroke-width:2;stroke-linecap:butt;stroke-linejoin:miter;stroke-miterlimit:4;stroke-dasharray:none;stroke-opacity:1" />
        </g>
      </g>
    </g>
  </g>
  <g
     inkscape:groupmode="layer"
     id="layer11"
     inkscape:label="hair2"
     style="display:none"
     transform="translate(0,-338)">
    <g
       id="g4369">
      <rect
         ry="2.3577693"
         y="338.21057"
         x="0"
         height="170"
         width="256"
         id="rect4282-2"
         style="display:inline;opacity:1;fill:#ffffff;fill-opacity:0;stroke:none;stroke-width:1.97805798;stroke-linecap:round;stroke-linejoin:round;stroke-miterlimit:4;stroke-dasharray:none;stroke-opacity:1" />
      <path
         sodipodi:nodetypes="ccccccccccccccccccc"
         inkscape:connector-curvature="0"
         id="path4179"
         d="m 79.685658,471.02486 c -1.360742,-5.21039 -16.510179,-15.30972 -16.375012,-44.63925 -2.081551,-6.07015 2.934053,-15.45359 2.934053,-15.45359 6.20475,-11.59983 5.1416,-32.9684 36.845291,-41.37565 7.45186,-4.37402 11.27884,-4.75033 20.74882,-4.48259 35.51096,-8.4628 38.21437,9.60029 42.22437,8.75301 10.02284,2.1276 8.14468,-0.79702 19.03726,17.24727 5.28164,0.45913 8.32925,8.66594 7.9124,11.55288 3.74863,6.13248 10.22448,28.99351 4.8629,37.38043 -4.19425,5.65509 -7.33225,9.04514 -9.11454,15.63484 0.43333,18.84215 -33.02136,41.17308 -38.49548,36.49197 11.2919,-9.20776 15.43961,-23.27492 20.03301,-32.06848 9.36989,7.29264 12.77274,-16.78435 1.66276,-10.88066 -16.50538,-9.88775 8.20159,-39.31248 -58.33068,-36.45209 -9.2329,7.13656 -17.967718,4.46189 -28.077122,24.53759 2.261195,4.14534 -2.904805,9.58408 -2.659919,12.24944 -10.915684,-5.76113 -8.733913,15.81689 1.111363,10.69348 3.740555,5.80695 11.543371,26.66255 21.321408,31.51954 -18.485151,-2.53118 -20.607498,-10.34308 -25.640882,-20.70814 z"
         style="display:inline;fill:#ffffff;fill-opacity:1;fill-rule:evenodd;stroke:#000000;stroke-width:1.77501202;stroke-linecap:butt;stroke-linejoin:miter;stroke-miterlimit:4;stroke-dasharray:none;stroke-opacity:1" />
    </g>
  </g>
  <g
     inkscape:groupmode="layer"
     id="layer12"
     inkscape:label="hair3"
     style="display:none"
     transform="translate(0,-338)">
    <g
       id="g4383">
      <rect
         ry="2.3577693"
         y="338.18118"
         x="0"
         height="170"
         width="256"
         id="rect4282-4"
         style="opacity:1;fill:#ffffff;fill-opacity:0;stroke:none;stroke-width:1.97805798;stroke-linecap:round;stroke-linejoin:round;stroke-miterlimit:4;stroke-dasharray:none;stroke-opacity:1" />
      <g
         transform="matrix(0.59167066,0,0,0.59167066,29.223215,351.4016)"
         id="g4277"
         style="display:inline">
        <path
           style="fill:#ffffff;fill-opacity:1;fill-rule:evenodd;stroke:#000000;stroke-width:2;stroke-linecap:butt;stroke-linejoin:miter;stroke-miterlimit:4;stroke-dasharray:none;stroke-opacity:1"
           d="m 118.68587,117.68674 c -3.13909,13.34686 -9.30844,24.42142 -13.31125,29.99465 -5.460836,9.79673 -5.780133,15.90524 -10.027788,23.36391 -2.567007,-3.76463 -7.224622,-6.94342 -13.219906,-8.13681 3.39502,-6.84301 -1.337226,-36.72778 0.296231,-36.72778 C 90.540856,111.15937 104.98396,104.572 118.03249,96.125103 107.12733,102.37081 96.741027,107.31949 80.7897,126.18071 76.13837,122.1681 81.512372,102.21303 83.707743,96.709293 92.404939,81.262494 99.153342,76.54414 112.74455,71.736802 l 8.49394,-1.101827 c -3.24342,-5.416807 -5.38204,-10.34941 -6.17666,-22.450372 8.99299,5.496316 15.83185,9.924985 19.60146,17.162409 -2.24124,-6.380133 12.13282,-25.062022 31.93267,-29.280416 -6.50161,8.038091 -5.83076,18.77327 15.468,16.28194 -11.16543,10.169115 -15.24557,14.810007 -20.90822,21.561596 19.47439,-22.677755 25.72193,-23.550966 33.86233,-29.227778 -9.31679,16.257799 12.98549,4.372361 20.55109,13.577051 6.40951,5.458408 29.0102,22.06875 29.03118,33.574397 -8.12577,-8.75166 -40.33486,-19.603893 -59.26944,-20.537179 78.96273,6.299857 68.18145,47.445527 70.99723,60.969447 -7.09359,-12.79587 -1.52653,-9.89248 -31.1409,-45.941655 9.14622,16.669545 38.42784,43.541785 26.04389,58.555195 -5.77187,-22.06551 -22.26167,-35.00878 -38.78487,-41.56725 20.14604,13.16609 45.37686,26.61305 37.14319,60.32699 -9.18927,-0.50735 -12.67178,8.55487 -12.67178,8.55487 -14.62542,-17.65662 -14.54137,-33.67782 -18.26428,-49.2804 -1.47634,7.84446 -2.60527,15.97845 -9.14735,19.6015 L 173.24329,90.244715 C 137.08175,83.05957 136.70765,107.52084 118.68587,117.68677 Z"
           id="path4254"
           inkscape:connector-curvature="0"
           sodipodi:nodetypes="cccccccccccccccccccccccccccccc" />
        <path
           style="fill:#ffffff;fill-opacity:1;fill-rule:evenodd;stroke:#000000;stroke-width:2;stroke-linecap:butt;stroke-linejoin:miter;stroke-miterlimit:4;stroke-dasharray:none;stroke-opacity:1"
           d="m 121.89191,157.6288 c -1.32275,-18.96382 -6.97198,-57.667877 15.08867,-79.145029 4.19331,-3.834591 20.0849,6.424774 15.55941,16.987962 -9.36568,-2.50196 -29.59297,4.50142 -30.64808,62.157067 z"
           id="path4250"
           inkscape:connector-curvature="0"
           sodipodi:nodetypes="cccc" />
        <path
           style="fill:#ffffff;fill-opacity:1;fill-rule:evenodd;stroke:#000000;stroke-width:2;stroke-linecap:butt;stroke-linejoin:miter;stroke-miterlimit:4;stroke-dasharray:none;stroke-opacity:1"
           d="m 172.26324,94.818353 c -0.0292,-15.378275 15.36889,-17.824822 23.52176,-12.414282 23.62161,22.984379 15.95423,63.147139 13.89544,91.764169 1.79051,-22.3977 -3.3769,-74.839917 -37.4172,-79.349887 z"
           id="path4252"
           inkscape:connector-curvature="0"
           sodipodi:nodetypes="cccc" />
      </g>
    </g>
  </g>
  <g
     inkscape:groupmode="layer"
     id="layer13"
     inkscape:label="hair4"
     style="display:none"
     transform="translate(0,-338)">
    <g
       id="g4396">
      <rect
         ry="2.3577693"
         y="337.71442"
         x="0.35714287"
         height="170"
         width="256"
         id="rect4282-3"
         style="opacity:1;fill:#ffffff;fill-opacity:0;stroke:none;stroke-width:1.97805798;stroke-linecap:round;stroke-linejoin:round;stroke-miterlimit:4;stroke-dasharray:none;stroke-opacity:1" />
      <path
         sodipodi:nodetypes="cccccccccccccccc"
         inkscape:connector-curvature="0"
         id="path4233"
         d="m 140.11871,402.90695 c -8.32595,15.79694 -20.36326,32.44338 -53.081869,38.57536 3.40829,-6.51458 10.62479,-13.81841 16.895899,-19.31925 -9.817914,8.04158 -8.6555,10.2054 -16.924589,19.56098 l 3.287914,-20.29699 c -5.728484,18.45769 -3.3605,36.39745 -0.50573,52.89962 -1.425495,-10.85515 -28.591958,-45.14166 0.575009,-82.07016 24.356326,-18.61735 41.374496,-17.99485 52.346976,-7.90955 1.97161,-0.75461 5.18187,-0.21176 8.11441,-0.0907 15.31083,4.67567 24.41327,21.36327 27.38121,29.5374 5.89925,19.35191 -1.88895,30.66911 -5.067,41.33674 0.26963,-7.53143 1.41606,-13.16108 -1.5148,-20.6925 4.72639,20.50517 -2.19563,24.63158 -6.32345,38.86088 3.78162,-15.98335 -0.92029,-31.23699 -3.38493,-52.91265 l 1.14217,18.21526 c -8.38813,-8.27622 -16.15692,-17.16634 -22.94122,-35.69448 z"
         style="display:inline;fill:#ffffff;fill-opacity:1;fill-rule:evenodd;stroke:#000000;stroke-width:1.47917664;stroke-linecap:butt;stroke-linejoin:miter;stroke-miterlimit:4;stroke-dasharray:none;stroke-opacity:1" />
    </g>
  </g>
  <g
     inkscape:groupmode="layer"
     id="layer14"
     inkscape:label="hair5"
     style="display:none"
     transform="translate(0,-338)">
    <g
       id="g4405">
      <rect
         ry="2.3577695"
         y="337.71899"
         x="0"
         height="170"
         width="256"
         id="rect4282-96"
         style="opacity:1;fill:#ffffff;fill-opacity:0;stroke:none;stroke-width:1.97805798;stroke-linecap:round;stroke-linejoin:round;stroke-miterlimit:4;stroke-dasharray:none;stroke-opacity:1" />
      <g
         transform="matrix(0.58047291,0,0,0.58047291,-28.750432,204.97704)"
         id="g4199"
         style="display:inline;stroke-width:2.5;stroke-miterlimit:4;stroke-dasharray:none">
        <g
           id="g4224"
           transform="translate(-382.85714,238.57143)"
           style="stroke-width:2.5;stroke-miterlimit:4;stroke-dasharray:none">
          <path
             sodipodi:nodetypes="ccccscccccc"
             inkscape:connector-curvature="0"
             id="path4190"
             d="m 568.51279,178.81107 c 0,0 -2.62418,-41.03825 4.33811,-65.9304 7.74809,-11.85625 25.69698,-31.68596 35.23999,-38.157432 31.98201,-16.079368 79.55202,-3.76717 90.16388,3.197162 5.54133,2.339308 28.05329,27.85955 28.05329,27.85955 8.6745,15.75951 13.01472,46.87265 6.54356,72.50823 -12.38141,2.50462 -7.77133,3.65217 -11.6026,12.99692 -8.37507,-8.0488 7.65666,-45.3369 -34.33459,-63.4584 l -69.29527,-1.35873 c -14.07637,11.90298 -22.36251,35.62609 -34.70096,63.17027 -8.13555,-15.11683 -7.32034,-7.73367 -14.40541,-10.82717 z"
             style="fill:#ffffff;fill-opacity:1;fill-rule:evenodd;stroke:#000000;stroke-width:2.5;stroke-linecap:butt;stroke-linejoin:miter;stroke-miterlimit:4;stroke-dasharray:none;stroke-opacity:1" />
          <path
             sodipodi:nodetypes="csccccccccccccsc"
             inkscape:connector-curvature="0"
             id="path4192"
             d="m 624.08206,65.951101 c -3.55897,4.521179 -7.60127,8.744224 -11.49236,13.57842 -5.03184,6.251419 -9.81083,13.524852 -12.96479,23.786659 8.15235,-8.522662 17.66347,-13.750184 25.81586,-19.022222 -12.21889,10.706125 -19.93335,30.743062 -14.94603,57.746042 6.3112,-20.24313 15.13651,-32.94393 23.09842,-48.234928 -14.96299,23.324878 -11.46226,46.649738 -8.83175,69.974608 4.18744,-22.72755 8.13222,-45.6979 17.66351,-50.61269 -2.27495,44.02027 1.72379,66.93453 4.75555,96.13019 9.11405,-31.71483 22.70782,-61.55613 20.72065,-97.48892 0.84333,21.96613 5.60227,44.27194 -2.37781,66.23808 14.12339,-23.7818 26.37251,-67.84432 4.07619,-98.507938 16.61097,6.162006 20.16089,17.347487 25.4762,27.853988 2.68879,-15.121404 1.3325,-34.393522 -37.02539,-44.158753 -5.11596,-3.197471 27.32144,-11.591853 24.45714,-11.549206 -33.45219,0.498079 -37.44845,3.341318 -58.42539,14.26667 z"
             style="fill:#ffffff;fill-opacity:1;fill-rule:evenodd;stroke:#000000;stroke-width:2.5;stroke-linecap:butt;stroke-linejoin:miter;stroke-miterlimit:4;stroke-dasharray:none;stroke-opacity:1" />
        </g>
      </g>
    </g>
  </g>
</svg>
