<?xml version="1.0" encoding="UTF-8" standalone="no"?>
<!-- Created with Inkscape (http://www.inkscape.org/) -->

<svg
   xmlns:dc="http://purl.org/dc/elements/1.1/"
   xmlns:cc="http://creativecommons.org/ns#"
   xmlns:rdf="http://www.w3.org/1999/02/22-rdf-syntax-ns#"
   xmlns:svg="http://www.w3.org/2000/svg"
   xmlns="http://www.w3.org/2000/svg"
   xmlns:sodipodi="http://sodipodi.sourceforge.net/DTD/sodipodi-0.dtd"
   xmlns:inkscape="http://www.inkscape.org/namespaces/inkscape"
   width="340"
   height="850"
   viewBox="0 0 340.00001 850.00001"
   id="svg2"
   version="1.1"
   inkscape:version="0.91 r13725"
   sodipodi:docname="avatar_male.svg">
  <defs
     id="defs4" />
  <sodipodi:namedview
     id="base"
     pagecolor="#ffffff"
     bordercolor="#666666"
     borderopacity="1.0"
     inkscape:pageopacity="0.0"
     inkscape:pageshadow="2"
     inkscape:zoom="1.4"
     inkscape:cx="179.59442"
     inkscape:cy="683.14055"
     inkscape:document-units="px"
     inkscape:current-layer="layer2"
     showgrid="false"
     inkscape:window-width="1440"
     inkscape:window-height="837"
     inkscape:window-x="-8"
     inkscape:window-y="-8"
     inkscape:window-maximized="1"
     showguides="true"
     inkscape:snap-text-baseline="true"
     units="px"
     inkscape:snap-global="true"
     inkscape:snap-center="false"
     inkscape:snap-to-guides="true"
     inkscape:snap-grids="true">
    <inkscape:grid
       type="xygrid"
       id="grid3001"
       empspacing="5"
       visible="true"
       enabled="true"
       snapvisiblegridlinesonly="true" />
  </sodipodi:namedview>
  <metadata
     id="metadata7">
    <rdf:RDF>
      <cc:Work
         rdf:about="">
        <dc:format>image/svg+xml</dc:format>
        <dc:type
           rdf:resource="http://purl.org/dc/dcmitype/StillImage" />
        <dc:title></dc:title>
        <cc:license
           rdf:resource="http://creativecommons.org/licenses/by-sa/3.0/" />
      </cc:Work>
      <cc:License
         rdf:about="http://creativecommons.org/licenses/by-sa/3.0/">
        <cc:permits
           rdf:resource="http://creativecommons.org/ns#Reproduction" />
        <cc:permits
           rdf:resource="http://creativecommons.org/ns#Distribution" />
        <cc:requires
           rdf:resource="http://creativecommons.org/ns#Notice" />
        <cc:requires
           rdf:resource="http://creativecommons.org/ns#Attribution" />
        <cc:permits
           rdf:resource="http://creativecommons.org/ns#DerivativeWorks" />
        <cc:requires
           rdf:resource="http://creativecommons.org/ns#ShareAlike" />
      </cc:License>
    </rdf:RDF>
  </metadata>
  <g
     inkscape:groupmode="layer"
     id="layer1"
     inkscape:label="shorts"
     sodipodi:insensitive="true">
    <path
       transform="translate(0,-1871.2595)"
       style="fill:none;stroke:#000000;stroke-width:2.91900015;stroke-linecap:butt;stroke-linejoin:miter;stroke-miterlimit:4;stroke-dasharray:none;stroke-opacity:1"
       d="m 235.75,2329.3223 c -42.46287,16.306 -93.92599,13.2464 -132.46875,0.7187 -14.069608,35.5538 -22.122573,85.5329 -22.96875,129.7813 2.380863,-0.027 4.760427,-0.061 7.3125,0.062 3.522757,0.1703 7.190431,0.4704 10.96875,0.9375 3.77832,0.4671 7.67306,1.0996 11.625,1.875 3.95194,0.7754 7.76281,1.661 11.4375,2.6562 3.67469,0.9953 7.20532,2.1078 10.53125,3.2813 3.32593,1.1735 6.46935,2.4087 9.375,3.7187 0.33889,0.1528 0.60487,0.3145 0.9375,0.4688 2.28077,-18.3327 1.71935,-34.6723 12.59375,-67.875 9.69955,-3.6044 20.40191,-3.4598 29.09375,0.2812 11.43182,34.9047 10.10534,50.7484 12.78125,70 0.91251,-0.4466 1.69224,-0.9091 2.65625,-1.3437 2.90565,-1.3101 6.04907,-2.5765 9.375,-3.75 3.32593,-1.1735 6.82531,-2.2548 10.5,-3.25 3.67469,-0.9952 7.51681,-1.9121 11.46875,-2.6875 3.95194,-0.7754 7.84668,-1.3767 11.625,-1.8438 3.77832,-0.467 7.44599,-0.7984 10.96875,-0.9687 1.82136,-0.088 3.48232,-0.02 5.21875,-0.031 -0.6083,-44.7874 -8.72485,-95.8792 -23.03125,-132.0313 z"
       id="rect3344-6-1-4-6-2"
       inkscape:connector-curvature="0" />
  </g>
  <g
     inkscape:groupmode="layer"
     id="layer10"
     inkscape:label="footl"
     transform="translate(0,-1871.2595)"
     sodipodi:insensitive="true">
    <path
       style="fill:none;stroke:#000000;stroke-width:2.91900015;stroke-linecap:butt;stroke-linejoin:miter;stroke-miterlimit:4;stroke-dasharray:none;stroke-opacity:1"
       d="m 255.34375,2620.1348 c -0.70079,0.5343 -1.29879,1.1289 -2.0625,1.625 -1.82556,1.1857 -3.82202,2.2767 -5.96875,3.2187 -2.14673,0.9421 -4.42994,1.7432 -6.84375,2.4063 -2.41381,0.6631 -4.9357,1.1821 -7.5625,1.5312 -2.6268,0.3492 -5.37054,0.5313 -8.15625,0.5313 -2.78571,0 -5.4982,-0.1821 -8.125,-0.5313 -0.89091,-0.1184 -1.69403,-0.3753 -2.5625,-0.5312 -0.13941,6.9023 -0.55637,14.7197 -1.375,23.9687 -8.24103,26.9342 7.0552,17.418 21.125,40.1563 8.35519,12.2335 61.82333,14.9352 62.1875,-3.75 -0.14818,-13.1346 -27.17115,-17.2721 -38.09375,-45.4375 -1.50088,-2.3816 -2.21845,-11.3508 -2.5625,-23.1875 z"
       id="path3946"
       inkscape:connector-curvature="0" />
    <path
       style="fill:none;stroke:#000000;stroke-width:2.91900015;stroke-linecap:butt;stroke-linejoin:miter;stroke-miterlimit:4;stroke-dasharray:none;stroke-opacity:1"
       d="m 256.21875,2461.3535 c -0.85996,-0.01 -1.74557,-0.013 -2.65625,0.031 -3.52276,0.1703 -7.19043,0.5017 -10.96875,0.9688 -3.77832,0.4671 -7.67306,1.0684 -11.625,1.8437 -3.95194,0.7754 -7.79406,1.6923 -11.46875,2.6875 -3.67469,0.9953 -7.17407,2.0766 -10.5,3.25 -3.32593,1.1735 -6.46935,2.44 -9.375,3.75 -0.96401,0.4347 -1.74374,0.8972 -2.65625,1.3438 1.23818,8.908 3.58828,18.8765 8.21875,31.4687 1.54166,4.1925 3.08614,8.3829 5.25,13.3125 -4.83264,31.3288 -3.48035,45.7644 -1.1875,59.0313 2.22141,12.8536 5.30987,24.7184 4.8125,49.3437 0.86847,0.1559 1.67159,0.4129 2.5625,0.5313 2.6268,0.3491 5.33929,0.5312 8.125,0.5312 2.78571,0 5.52945,-0.1821 8.15625,-0.5312 2.6268,-0.3491 5.14869,-0.8681 7.5625,-1.5313 2.41381,-0.6631 4.69702,-1.4642 6.84375,-2.4062 2.14673,-0.942 4.14319,-2.033 5.96875,-3.2188 0.76371,-0.496 1.36171,-1.0906 2.0625,-1.625 -0.282,-9.7016 -0.29324,-21.4244 -0.15625,-33.9375 0.32153,-29.3698 1.31378,-61.8609 0.96875,-77.3125 0.46071,-3.0983 0.68657,-6.582 1.03125,-9.875 1.22107,-11.6656 1.77544,-24.2792 1.59375,-37.6562 -0.86821,0.01 -1.70254,0 -2.5625,0 z"
       id="path3944"
       inkscape:connector-curvature="0" />
  </g>
  <g
     inkscape:groupmode="layer"
     id="layer9"
     inkscape:label="footr"
     style="display:inline"
     transform="translate(0,-1871.2595)"
     sodipodi:insensitive="true">
    <path
       style="fill:none;stroke:#000000;stroke-width:2.91900015;stroke-linecap:butt;stroke-linejoin:miter;stroke-miterlimit:4;stroke-dasharray:none;stroke-opacity:1"
       d="m 124.9375,2628.291 c -0.2157,0.031 -0.40801,0.096 -0.625,0.125 -2.6268,0.3492 -5.37054,0.5313 -8.15625,0.5313 -2.78571,0 -5.4982,-0.1821 -8.125,-0.5313 -2.6268,-0.3491 -5.14869,-0.8681 -7.5625,-1.5312 -2.413809,-0.6631 -4.728272,-1.4955 -6.875,-2.4375 -2.146728,-0.942 -4.143192,-2.0018 -5.96875,-3.1875 -1.455019,-0.9451 -2.686127,-2.0139 -3.90625,-3.0938 -0.307993,13.0454 -0.995455,23.3388 -2.59375,25.875 -10.922592,28.1654 -37.945567,32.3029 -38.09375,45.4375 0.364176,18.6852 53.832315,15.9523 62.1875,3.7188 14.0698,-22.7383 29.36603,-13.1908 21.125,-40.125 -0.84711,-9.5708 -1.28264,-17.7117 -1.40625,-24.7813 z"
       id="path3951"
       inkscape:connector-curvature="0" />
  </g>
  <g
     inkscape:groupmode="layer"
     id="layer3"
     inkscape:label="armr"
     style="display:inline"
     transform="translate(0,-1871.2595)"
     sodipodi:insensitive="true">
    <path
       style="opacity:0.93199978;fill:none;stroke:#000000;stroke-width:2.91915703;stroke-linecap:round;stroke-linejoin:round;stroke-miterlimit:4;stroke-dasharray:none;stroke-opacity:1"
       d="m 45.78125,2430.3535 c -0.546715,0.758 -0.57327,0.6894 1.0625,-0.5625 -0.35568,0.2232 -0.709412,0.3595 -1.0625,0.5625 z"
       id="path3862"
       inkscape:connector-curvature="0" />
    <path
       style="opacity:0.93199978;fill:none;stroke:#000000;stroke-width:2.91915703;stroke-linecap:round;stroke-linejoin:round;stroke-miterlimit:4;stroke-dasharray:none;stroke-opacity:1"
       d="m 42.5,2218.041 c -3.58984,0.06 -6.102462,0.163 -8.5625,0.2813 -2.680864,10.0642 -3.792925,19.5347 -5.875,28.3437 -0.961328,4.0673 -2.108008,8.002 -3.78125,11.7813 -15.7194864,35.5054 -12.639185,93.8184 -13.1875,142.9687 -0.769964,20.4154 14.86992,40.3332 34.6875,28.9375 1.404373,-1.9469 6.748184,-10.827 -0.0625,-30.2812 -2.066983,-5.9043 4.223459,-5.4074 6.40625,-2.9063 15.142435,17.3493 15.51103,-7.5893 3.90625,-13.1875 -5.920904,-2.8561 -12.011679,-2.4928 -11.9375,-10.625 0.556955,-61.0627 16.983138,-55.3824 14.1875,-99.4062 -0.257282,-4.0515 1.027526,-7.9217 3.0625,-11.8438 3.270092,-6.3026 8.574084,-12.8072 13.375,-20.5625 -0.374704,-1.2675 -0.694487,-2.5492 -1.21875,-3.75 -0.851449,-1.9503 -1.884277,-3.8262 -3.09375,-5.5625 -1.209473,-1.7364 -2.602635,-3.3371 -4.125,-4.8125 -1.522365,-1.4755 -3.178627,-2.8012 -4.96875,-3.9687 -1.790123,-1.1675 -3.706002,-2.1876 -5.71875,-3 -2.012748,-0.8124 -4.122261,-1.4336 -6.3125,-1.8438 -2.190239,-0.4103 -4.458652,-0.6015 -6.78125,-0.5625 z"
       id="path3860"
       inkscape:connector-curvature="0" />
  </g>
  <g
     inkscape:groupmode="layer"
     id="layer4"
     inkscape:label="arml"
     style="display:inline"
     transform="translate(0,-1871.2595)"
     sodipodi:insensitive="true">
    <path
       inkscape:connector-curvature="0"
       style="display:inline;opacity:0.93199978;fill:none;stroke:#000000;stroke-width:2.91915703;stroke-linecap:round;stroke-linejoin:round;stroke-miterlimit:4;stroke-dasharray:none;stroke-opacity:1"
       d="m 299.8402,2222.0855 c 3.58984,0.06 6.10246,0.163 8.5625,0.2813 2.68086,10.0642 3.79292,19.5347 5.875,28.3437 0.96133,4.0672 2.10801,8.0019 3.78125,11.7813 15.71949,35.5054 12.63919,93.8184 13.1875,142.9687 0.76996,20.4154 -14.86992,40.3332 -34.6875,28.9375 -1.40437,-1.9469 -6.74818,-10.827 0.0625,-30.2812 2.06698,-5.9043 -4.22346,-5.4074 -6.40625,-2.9063 -15.14244,17.3493 -15.51103,-7.5893 -3.90625,-13.1875 5.9209,-2.8561 12.01168,-2.4928 11.9375,-10.625 -0.55696,-61.0627 -16.98314,-55.3824 -14.1875,-99.4062 0.25728,-4.0515 -1.02753,-7.9217 -3.0625,-11.8438 -3.27009,-6.3026 -8.57409,-12.8072 -13.375,-20.5625 0.3747,-1.2675 0.69449,-2.5492 1.21875,-3.75 0.85145,-1.9503 1.88428,-3.8262 3.09375,-5.5625 1.20947,-1.7364 2.60263,-3.3371 4.125,-4.8125 1.52236,-1.4755 3.17863,-2.8012 4.96875,-3.9687 1.79012,-1.1675 3.706,-2.1876 5.71875,-3 2.01275,-0.8124 4.12226,-1.4336 6.3125,-1.8438 2.19024,-0.4103 4.45865,-0.6015 6.78125,-0.5625 z"
       id="path3860-9" />
  </g>
  <g
     inkscape:groupmode="layer"
     id="layer5"
     inkscape:label="torax"
     style="display:inline"
     transform="translate(0,-1871.2595)"
     sodipodi:insensitive="true">
    <path
       style="display:inline;opacity:0.93199978;fill:none;stroke:#000000;stroke-width:2.91915703;stroke-linecap:round;stroke-linejoin:round;stroke-miterlimit:4;stroke-dasharray:none;stroke-opacity:1"
       d="m 89.75,2136.0723 c -30.875637,10.5937 -32.154257,36.8133 -37.607143,46.0491 -9.299115,10.1657 -11.880435,17.7814 -15.361607,27.0759 -1.161063,3.1 -2.045639,6.1288 -2.84375,9.125 2.460038,-0.1183 4.97266,-0.221 8.5625,-0.2813 2.322598,-0.039 4.591011,0.1523 6.78125,0.5625 2.190239,0.4103 4.299752,1.0314 6.3125,1.8438 2.012748,0.8124 3.928627,1.8325 5.71875,3 1.790123,1.1675 3.446385,2.4933 4.96875,3.9687 1.522365,1.4755 2.915527,3.0762 4.125,4.8125 1.209473,1.7364 2.242301,3.6123 3.09375,5.5625 0.524263,1.2009 0.844046,2.4826 1.21875,3.75 1.456922,-2.3534 2.851814,-4.7867 4.125,-7.4062 3.286723,-6.7622 5.707764,-14.51 5.96875,-23.7813 1.359129,15.0995 4.43054,22.2248 13.5,35.3125 0,0 0.485073,28.6038 5.21875,35.6563 8.03999,11.9784 -3.51232,25.7604 -0.125,48.1875 41.14549,19.3113 107.55196,12.1963 132.34375,-1.7188 3.38729,-22.427 -8.23354,-32.5723 -1.40625,-45.2812 7.99557,-14.8833 4.79538,-34.5695 6.96875,-37.4063 13.94966,-19.2268 13.82093,-22.5594 15.49107,-33.8303 -1.42816,13.1521 2.45647,18.1694 6.69643,26.8928 1.27318,2.6195 2.66808,5.0528 4.125,7.4063 0.3747,-1.2674 0.69449,-2.5492 1.21875,-3.75 0.85145,-1.9502 1.88428,-3.8261 3.09375,-5.5625 1.20947,-1.7364 2.60263,-3.337 4.125,-4.8125 1.52236,-1.4755 3.17863,-2.8013 4.96875,-3.9688 1.79012,-1.1675 3.706,-2.1876 5.71875,-3 2.01275,-0.8124 4.12226,-1.4334 6.3125,-1.8437 2.19024,-0.4102 4.45865,-0.6015 6.78125,-0.5625 3.58984,0.06 6.10246,0.1629 8.5625,0.2812 -0.79811,-2.9962 -1.68269,-8.5251 -2.84375,-11.625 -3.48117,-9.2945 -2.56986,-13.6911 -12.33115,-26.3616 -5.4785,-7.1112 -5.26234,-37.0098 -40.69607,-45.3615 -26.27882,0.7752 -45.30578,-3.4262 -48.93909,-8.0734 -8.81722,11.2705 -49.47289,15.3372 -66.56096,-0.3906 -7.4352,6.6665 -27.67238,1.2993 -47.28523,5.5309 z"
       id="rect3344-6-2"
       inkscape:connector-curvature="0"
       sodipodi:nodetypes="ccscssssssscsccsccsccscssssscscsscccc" />
  </g>
  <g
     inkscape:groupmode="layer"
     id="layer6"
     inkscape:label="head"
     style="display:inline"
     transform="translate(0,-1871.2595)"
     sodipodi:insensitive="true">
    <path
       id="path3957"
       style="fill:none;stroke:#000000;stroke-width:2.9000001;stroke-linecap:round;stroke-linejoin:round;stroke-miterlimit:4;stroke-dasharray:none;stroke-opacity:1"
       d="m 140.94258,2117.3828 c -1.01319,2.4996 0.32332,5.2534 -3.09375,12.5938 9.50603,14.9734 53.06991,13.6023 66.01339,0.8437 -5.90576,-9.4827 -2.91463,-12.2457 -5.71875,-11.433 -20.38768,10.4586 -42.46674,7.1117 -57.20089,-2.0045 z m 27.58776,-178.716 0,0.1067 c -75.643679,1.2509 -80.214429,80.2938 -74.933917,95.5225 2.661039,7.6743 -13.548099,-9.1181 -11.673806,14.1078 1.231549,15.2603 14.278805,7.4545 14.581554,8.2494 15.926049,29.8134 32.170889,68.1812 73.755629,68.0506 37.70522,0.1804 52.98658,-26.4689 72.17373,-68.1417 0.30273,-0.795 13.35009,7.0109 14.58156,-8.2496 1.87436,-23.2258 -14.33485,-6.4336 -11.67374,-14.1077 5.32381,-15.3536 0.63462,-95.5732 -76.80863,-95.5386 z"
       inkscape:connector-curvature="0"
       sodipodi:nodetypes="cccccccsscccsccc" />
  </g>
  <g
     inkscape:groupmode="layer"
     id="layer7"
     inkscape:label="legr"
     transform="translate(0,-1871.2595)"
     sodipodi:insensitive="true">
    <path
       style="fill:none;stroke:#000000;stroke-width:2.91900015;stroke-linecap:butt;stroke-linejoin:miter;stroke-miterlimit:4;stroke-dasharray:none;stroke-opacity:1"
       d="m 83.90625,2459.791 c -1.211508,0 -2.403319,0.018 -3.59375,0.031 -0.249443,13.0439 0.183354,25.4306 1.25,36.9375 0.403368,4.3516 0.713427,8.8149 1.3125,12.8438 -0.346249,15.5062 0.651142,48.1442 0.96875,77.5937 0.123045,11.4091 0.09131,21.8066 -0.125,30.9688 1.220123,1.0799 2.451231,2.1487 3.90625,3.0937 1.825558,1.1858 3.822022,2.2455 5.96875,3.1875 2.146728,0.9421 4.461191,1.7744 6.875,2.4375 2.41381,0.6632 4.9357,1.1822 7.5625,1.5313 2.6268,0.3491 5.33929,0.5312 8.125,0.5312 2.78571,0 5.52945,-0.1821 8.15625,-0.5312 0.21699,-0.029 0.4093,-0.094 0.625,-0.125 -0.43906,-25.1117 2.8915,-36.7304 5.09375,-50.0938 2.12077,-12.8689 3.20779,-27.3545 -1.4375,-57.4687 2.51468,-5.7289 4.43171,-10.727 6.125,-15.5 4.60133,-12.9702 6.61478,-23.0302 7.78125,-32.4063 -0.33263,-0.1543 -0.59861,-0.3159 -0.9375,-0.4687 -2.90565,-1.3101 -6.04907,-2.5453 -9.375,-3.7188 -3.32593,-1.1734 -6.85656,-2.286 -10.53125,-3.2812 -3.67469,-0.9952 -7.48556,-1.8809 -11.4375,-2.6563 -3.95194,-0.7753 -7.84668,-1.4079 -11.625,-1.875 -3.778319,-0.467 -7.445993,-0.7672 -10.96875,-0.9375 -1.276036,-0.062 -2.507242,-0.09 -3.71875,-0.094 z"
       id="path3949"
       inkscape:connector-curvature="0" />
  </g>
  <g
     inkscape:groupmode="layer"
     id="layer8"
     inkscape:label="legl"
     transform="translate(0,-1871.2595)"
     sodipodi:insensitive="true" />
  <g
     inkscape:groupmode="layer"
     id="layer2"
     inkscape:label="hair" />
</svg>
