<?xml version="1.0" encoding="UTF-8" standalone="no"?>
<svg
   xmlns:dc="http://purl.org/dc/elements/1.1/"
   xmlns:cc="http://creativecommons.org/ns#"
   xmlns:rdf="http://www.w3.org/1999/02/22-rdf-syntax-ns#"
   xmlns:svg="http://www.w3.org/2000/svg"
   xmlns="http://www.w3.org/2000/svg"
   xmlns:sodipodi="http://sodipodi.sourceforge.net/DTD/sodipodi-0.dtd"
   xmlns:inkscape="http://www.inkscape.org/namespaces/inkscape"
   id="svg15712"
   viewBox="-49152 0 0 24"
   version="1.1"
   inkscape:version="0.91 r13725"
   width="2048"
   height="2048"
   sodipodi:docname="logo-reverse.svg"
   inkscape:export-filename="E:\git\TCC-Fontes\Pedal-to-Play\Especificação\Imagens\splash.png"
   inkscape:export-xdpi="90"
   inkscape:export-ydpi="90">
  <defs
     id="defs9" />
  <sodipodi:namedview
     pagecolor="#ffffff"
     bordercolor="#666666"
     borderopacity="1"
     objecttolerance="10"
     gridtolerance="10"
     guidetolerance="10"
     inkscape:pageopacity="0"
     inkscape:pageshadow="2"
     inkscape:window-width="1440"
     inkscape:window-height="837"
     id="namedview7"
     showgrid="false"
     inkscape:zoom="0.1767767"
     inkscape:cx="783.92735"
     inkscape:cy="974.53999"
     inkscape:window-x="-8"
     inkscape:window-y="-8"
     inkscape:window-maximized="1"
     inkscape:current-layer="layer1" />
  <metadata
     id="metadata5">
    <rdf:RDF>
      <cc:Work>
        <dc:format>image/svg+xml</dc:format>
        <dc:type
           rdf:resource="http://purl.org/dc/dcmitype/StillImage" />
        <cc:license
           rdf:resource="http://creativecommons.org/licenses/by-nc-sa/3.0/" />
        <dc:publisher>
          <cc:Agent
             rdf:about="http://openclipart.org/">
            <dc:title>Openclipart</dc:title>
          </cc:Agent>
        </dc:publisher>
        <dc:title></dc:title>
        <dc:date>2013-04-16T09:31:51</dc:date>
        <dc:description>Sport bike</dc:description>
        <dc:source>https://openclipart.org/detail/177216/sport-bike-by-ribbla-177216</dc:source>
        <dc:creator>
          <cc:Agent>
            <dc:title>ribbla</dc:title>
          </cc:Agent>
        </dc:creator>
        <dc:subject>
          <rdf:Bag>
            <rdf:li>Sport-bike bike RibllaTeam</rdf:li>
          </rdf:Bag>
        </dc:subject>
      </cc:Work>
      <cc:License
         rdf:about="http://creativecommons.org/licenses/by-nc-sa/3.0/">
        <cc:permits
           rdf:resource="http://creativecommons.org/ns#Reproduction" />
        <cc:permits
           rdf:resource="http://creativecommons.org/ns#Distribution" />
        <cc:requires
           rdf:resource="http://creativecommons.org/ns#Notice" />
        <cc:requires
           rdf:resource="http://creativecommons.org/ns#Attribution" />
        <cc:prohibits
           rdf:resource="http://creativecommons.org/ns#CommercialUse" />
        <cc:permits
           rdf:resource="http://creativecommons.org/ns#DerivativeWorks" />
        <cc:requires
           rdf:resource="http://creativecommons.org/ns#ShareAlike" />
      </cc:License>
    </rdf:RDF>
  </metadata>
  <g
     inkscape:groupmode="layer"
     id="layer3"
     inkscape:label="bg"
     style="display:inline"
     transform="translate(0,1948)" />
  <g
     inkscape:groupmode="layer"
     id="layer4"
     inkscape:label="bike"
     transform="translate(0,2024)" />
  <g
     inkscape:groupmode="layer"
     id="layer2"
     inkscape:label="root"
     transform="translate(0,1948)" />
  <g
     inkscape:groupmode="layer"
     id="layer1"
     inkscape:label="buttons"
     transform="translate(0,1948)">
    <g
       id="g4229">
      <rect
         ry="2.5958934"
         y="-1947.7168"
         x="0.28319383"
         height="2047.4336"
         width="2047.4337"
         id="rect4227"
         style="opacity:1;fill:#ffffff;fill-opacity:1;stroke:#ffffff;stroke-width:0.56638765;stroke-linecap:round;stroke-linejoin:round;stroke-miterlimit:4;stroke-dasharray:none;stroke-dashoffset:0;stroke-opacity:1" />
      <g
         transform="matrix(0.92753623,0,0,0.94134751,10.107828,-5.818685)"
         id="g4189">
        <g
           id="g4166"
           transform="matrix(51.202347,0,0,53.779358,496.32876,-5797.8644)">
          <ellipse
             ry="17.939838"
             rx="18.501629"
             cy="56.44252"
             cx="21.797466"
             transform="matrix(0.22829598,0,0,0.23449596,0.42840449,76.9164)"
             id="path3821"
             style="fill:#673ab7;fill-opacity:1;stroke:none" />
          <path
             inkscape:connector-curvature="0"
             id="path3813"
             d="m 7.0778818,6.5683468 c -0.068118,-0.01471 -0.3835789,-0.175699 -0.571726,-0.291776 -0.1669512,-0.103001 -0.392793,-0.268967 -0.3988326,-0.293093 -0.00613,-0.02449 0.00223,-0.136331 0.012415,-0.165956 0.012117,-0.03526 0.044496,-0.07489 0.076544,-0.09368 0.042338,-0.02482 0.072566,-0.0288 0.1458496,-0.01919 0.2639868,0.03462 0.5425859,0.02901 1.2730171,-0.02562 0.5053444,-0.03779 0.7242035,-0.04594 0.9569088,-0.03562 0.3131529,0.01389 0.5317391,0.04842 0.7680406,0.121355 0.1053364,0.03251 0.1606843,0.05427 0.2629513,0.103372 l 0.080441,0.03862 0.010163,0.03632 c 0.020316,0.0726 0.0079,0.158145 -0.026998,0.186075 -0.018539,0.01484 -0.039268,0.01476 -0.2521364,-9.63e-4 -0.1579509,-0.01166 -0.4409333,-0.01708 -0.6265602,-0.01201 -0.377293,0.01031 -0.6771757,0.0548 -0.9328505,0.138406 -0.063235,0.02068 -0.095484,0.03685 -0.2083025,0.104479 -0.2896508,0.173628 -0.4539987,0.23408 -0.5689248,0.209269 z"
             style="fill:#673ab7;fill-opacity:1;stroke:none"
             transform="translate(0,76)" />
          <path
             sodipodi:nodetypes="csssssscscsssscsccscsssccsscsscsscccssscsssssscscsscscccscssscsscccscssscsssccccsssssssscccscsssscsscscsssssscsssssscssccsssscscccssscccccsssscscccc"
             inkscape:connector-curvature="0"
             id="path3817"
             d="M 5.0428454,18.414323 C 4.4080471,18.352063 3.9522493,18.220055 3.4151467,17.942894 2.1999825,17.315832 1.3589513,16.134633 1.1483496,14.759257 1.1055046,14.479452 1.1057126,13.813023 1.1487314,13.535272 1.3984459,11.922967 2.4910819,10.611695 4.0140461,10.096609 4.3792402,9.9730958 4.5997103,9.9263378 5.0046972,9.8865058 c 0.8300857,-0.08164 1.7445809,0.113093 2.4655091,0.5250122 0.1094005,0.06251 0.2077271,0.108188 0.2185043,0.10151 0.010777,-0.0067 0.2393334,-0.340171 0.5079031,-0.7410962 L 8.6849211,9.0429768 8.371094,8.0460138 c -0.1730609,-0.54978 -0.3331038,-1.01497 -0.3568032,-1.037108 -0.023636,-0.02208 -0.064366,-0.09744 -0.09051,-0.167474 -0.055322,-0.148194 -0.054021,-0.147945 -0.3920806,-0.0751 l -0.2197376,0.04735 -0.09316,-0.07124 c -0.051238,-0.03918 -0.088749,-0.08454 -0.083358,-0.100791 0.013466,-0.04059 0.1466637,-0.06296 0.2108263,-0.03541 0.035421,0.01521 0.1965305,-0.0036 0.4928515,-0.05764 L 8.27935,6.4683608 8.4803047,6.3043618 c 0.1719054,-0.140296 0.2155505,-0.164004 0.3019235,-0.164004 0.055533,0 0.1009687,0.0112 0.1009687,0.0249 0,0.03985 -0.5167362,0.458437 -0.5666778,0.459046 -0.024918,3.13e-4 -0.050807,0.01492 -0.05753,0.03249 -0.00672,0.01757 0.04379,0.204033 0.1122513,0.41437 0.068461,0.210337 0.2073242,0.647943 0.3085843,0.972458 l 0.1841089,0.590027 0.092288,-0.0116 c 0.050758,-0.0064 1.5779504,-0.170283 3.3937594,-0.364226 1.81581,-0.193942 3.306889,-0.358053 3.313509,-0.364691 0.0066,-0.0066 -0.09136,-0.250668 -0.217746,-0.542291 -0.12638,-0.291622 -0.229782,-0.549125 -0.229782,-0.572229 0,-0.121217 0.293027,-0.12003 0.291662,-0.106721 0.0415,0.123026 0.01591,0.06189 0.07841,0.236569 -0.0083,0.0085 1.302171,3.1796892 1.325821,3.2083132 0.0051,0.0062 0.09197,-0.01555 0.193067,-0.04826 1.417106,-0.4584972 2.997068,-0.1337202 4.113174,0.845505 0.772452,0.677718 1.243506,1.534309 1.427453,2.595762 0.04309,0.24865 0.04307,1.026554 -5e-5,1.274984 -0.249065,1.435385 -1.075757,2.565944 -2.3392,3.199017 -0.604916,0.303105 -1.175514,0.43317 -1.898536,0.43276 -0.684797,-3.85e-4 -1.159017,-0.103963 -1.780296,-0.38884 -1.3228,-0.606548 -2.250801,-1.871697 -2.440478,-3.327117 -0.136368,-1.046367 0.09968,-2.057822 0.686376,-2.941131 0.227927,-0.343157 0.644071,-0.787896 0.955231,-1.020868 l 0.22117,-0.165594 0.01528,-0.157212 c 0.03191,-0.328308 0.09544,-1.2459192 0.08685,-1.2545232 -0.0049,-0.0049 -0.963147,1.1051042 -2.129361,2.4667832 -1.98919,2.322588 -2.118276,2.479095 -2.086221,2.529381 0.195939,0.307372 0.259339,0.508528 0.258005,0.818592 -0.0011,0.265111 -0.0732,0.515599 -0.209689,0.728851 l -0.08242,0.12878 0.123586,0.125803 0.123586,0.125803 -0.203778,0 c -0.112078,0 -0.21465,-0.01082 -0.227939,-0.02405 -0.01517,-0.01511 -0.0762,0.0089 -0.164042,0.06461 -0.42138,0.267083 -1.019775,0.262661 -1.438787,-0.01063 -0.2576468,-0.168047 -0.5106009,-0.491303 -0.5569518,-0.711744 -0.00955,-0.04542 -0.026962,-0.08853 -0.038693,-0.0958 -0.011731,-0.0073 -0.05242,0.08153 -0.090418,0.19733 -0.4423075,1.347927 -1.592153,2.425286 -2.972147,2.784782 -0.4398934,0.114594 -1.006547,0.164531 -1.4137959,0.124592 z M 5.742247,18.277087 C 7.5092786,18.109163 8.9429591,16.882134 9.4056219,15.141753 9.4991379,14.789976 9.5282744,14.542333 9.5286278,14.096266 9.5292761,13.288371 9.3408372,12.607881 8.9302408,11.93528 8.7104232,11.575196 8.3277187,11.138784 8.0057657,10.881066 7.4790384,10.459429 6.8146292,10.168821 6.1119398,10.052719 c -0.2876364,-0.04752 -1.064898,-0.04775 -1.3488551,-3.85e-4 -1.7393264,0.290084 -3.068648,1.554405 -3.4341179,3.2662 -0.069614,0.32606 -0.095729,1.011569 -0.051327,1.347321 0.183751,1.389463 1.0169017,2.563309 2.2656418,3.192114 0.5543009,0.279118 1.102257,0.413056 1.8047574,0.441138 0.062946,0.0025 0.2403401,-0.0074 0.3942083,-0.02201 z m 13.352215,-0.03824 c 0.443118,-0.0706 0.985675,-0.262931 1.373371,-0.486842 1.33042,-0.768371 2.123638,-2.11957 2.123638,-3.617488 0,-1.151929 -0.450892,-2.197296 -1.294731,-3.001758 -1.201095,-1.1450482 -2.96358,-1.4607612 -4.503945,-0.806792 -1.010837,0.429156 -1.848614,1.294134 -2.239686,2.312404 -0.168006,0.437451 -0.248831,0.835919 -0.270374,1.332932 -0.07752,1.78838 1.009151,3.418834 2.710465,4.066824 0.328712,0.125198 0.719758,0.209714 1.160249,0.250763 0.173926,0.01621 0.701196,-0.01183 0.941013,-0.05004 z m -7.863148,-2.131879 c 0.0815,-0.02699 0.193747,-0.07931 0.249438,-0.116263 l 0.101257,-0.06718 -0.211289,-0.213682 c -0.252067,-0.254921 -0.406739,-0.364086 -0.515863,-0.364086 -0.08345,0 -0.271164,0.10605 -0.354262,0.200139 -0.06556,0.07424 -0.09265,0.06959 -0.191756,-0.03294 l -0.08487,-0.08779 0.105545,-0.126395 c 0.05805,-0.06952 0.122762,-0.167707 0.143805,-0.218202 0.03406,-0.08172 0.03406,-0.101891 0,-0.183616 -0.02104,-0.05049 -0.08575,-0.148685 -0.143805,-0.218202 l -0.105545,-0.126394 0.08487,-0.08779 c 0.04668,-0.04829 0.09525,-0.08779 0.107936,-0.08779 0.01269,0 0.08034,0.05163 0.150335,0.114729 0.215762,0.194498 0.340984,0.191482 0.584118,-0.01407 0.06548,-0.05536 0.130127,-0.100658 0.143654,-0.100658 0.01353,0 0.061,0.04157 0.10549,0.09238 l 0.0809,0.09238 -0.07573,0.07974 c -0.1168,0.122985 -0.207954,0.27172 -0.207954,0.339316 0,0.112294 0.0972,0.254294 0.330549,0.482873 0.127196,0.124599 0.241542,0.230151 0.254102,0.23456 0.03343,0.01174 0.172728,-0.241507 0.219061,-0.39826 0.02268,-0.07672 0.03956,-0.22569 0.03902,-0.344246 -0.0031,-0.666763 -0.524843,-1.191102 -1.188353,-1.194184 -0.480915,-0.0022 -0.8948738,0.25382 -1.0933062,0.676263 -0.2283586,0.486152 -0.1411773,1.00577 0.2314274,1.379355 0.3343598,0.33524 0.7860588,0.440783 1.2412378,0.290026 z M 10.986121,15.13731 c 0.122104,-0.115013 0.04023,-0.352551 -0.12152,-0.352551 -0.105187,0 -0.148216,0.0241 -0.190946,0.10695 -0.107467,0.208365 0.142995,0.40523 0.312466,0.245601 z M 9.8363442,14.048882 c 0.05563,-0.06112 0.150051,-0.144867 0.2098208,-0.186098 0.05977,-0.04123 0.108455,-0.08876 0.10819,-0.105614 -6.73e-4,-0.04361 -1.3381782,-4.3010472 -1.3571761,-4.3200962 -0.00864,-0.0087 -0.01986,-0.01097 -0.024926,-0.0051 -0.044377,0.05118 -0.8300691,1.2517692 -0.8300691,1.2684032 0,0.012 0.089976,0.09734 0.199947,0.189631 0.9202348,0.772328 1.4961846,1.979894 1.504918,3.155287 0.00175,0.23614 0.00289,0.24064 0.044973,0.178498 0.023744,-0.03506 0.08869,-0.113759 0.1443224,-0.174882 z m 3.5334708,-2.580139 1.924324,-2.2450282 -0.0759,-0.282355 c -0.04175,-0.155295 -0.07998,-0.286441 -0.08496,-0.291435 -0.01001,-0.01003 -6.0482423,0.620025 -6.060575,0.632391 -0.00424,0.0042 0.2996244,0.9887192 0.6752471,2.1877142 0.5903929,1.884545 0.6892329,2.179195 0.7293069,2.17412 0.02549,-0.0032 0.124499,-0.0186 0.220007,-0.03415 0.185225,-0.03016 0.399192,-0.0071 0.59228,0.06387 0.05433,0.01996 0.111646,0.03711 0.127366,0.0381 0.01572,9.86e-4 0.894528,-1.008466 1.952906,-2.243231 z"
             style="fill:#673ab7;fill-opacity:1;stroke:none"
             transform="translate(0,76)" />
          <path
             inkscape:connector-curvature="0"
             id="path3783"
             d="m 10.852894,15.98048 c -0.01037,-0.0104 -0.06081,-0.02016 -0.112108,-0.02169 -0.09318,-0.0028 -0.146625,-0.01697 -0.249789,-0.06628 -0.03014,-0.01441 -0.06733,-0.01843 -0.08266,-0.0089 -0.01564,0.0097 -0.02786,-1.75e-4 -0.02786,-0.02249 0,-0.02275 -0.02175,-0.03975 -0.05086,-0.03975 -0.02826,0 -0.05087,-0.017 -0.05087,-0.03825 0,-0.02125 -0.02261,-0.03825 -0.05087,-0.03825 -0.02826,0 -0.05087,-0.017 -0.05087,-0.03825 0,-0.02104 -0.01717,-0.03825 -0.03815,-0.03825 -0.02119,0 -0.03815,-0.02267 -0.03815,-0.051 0,-0.02833 -0.01696,-0.051 -0.03815,-0.051 -0.0212,0 -0.03815,-0.02267 -0.03815,-0.051 0,-0.02805 -0.01145,-0.051 -0.02543,-0.051 -0.01399,0 -0.02543,-0.02331 -0.02543,-0.0518 0,-0.02849 -0.01644,-0.05813 -0.03654,-0.06586 -0.0201,-0.0077 -0.03053,-0.02977 -0.02318,-0.04898 0.0074,-0.0192 0.0043,-0.04969 -0.0069,-0.06775 -0.01113,-0.01805 -0.02073,-0.07311 -0.02133,-0.122344 -6e-4,-0.04924 -0.0099,-0.103069 -0.02058,-0.119631 -0.01072,-0.01656 -0.0074,-0.03761 0.0074,-0.04677 0.01478,-0.0092 0.02023,-0.03768 0.01209,-0.06337 -0.0081,-0.02569 -0.0028,-0.05411 0.01175,-0.06315 0.01777,-0.01101 0.01826,-0.03195 0.0015,-0.06335 -0.0189,-0.03542 -0.01516,-0.0507 0.01529,-0.06242 0.02346,-0.009 0.03408,-0.03183 0.02539,-0.05451 -0.0085,-0.02208 0.0014,-0.0453 0.02279,-0.05351 0.02075,-0.008 0.03772,-0.03624 0.03772,-0.06278 0,-0.02655 0.01145,-0.04827 0.02543,-0.04827 0.01399,0 0.02543,-0.02295 0.02543,-0.051 0,-0.02833 0.01695,-0.051 0.03815,-0.051 0.02119,0 0.03815,-0.02267 0.03815,-0.051 0,-0.034 0.01696,-0.051 0.05087,-0.051 0.02826,0 0.05087,-0.017 0.05087,-0.03825 0,-0.02125 0.02261,-0.03825 0.05086,-0.03825 0.02798,0 0.05087,-0.01148 0.05087,-0.0255 0,-0.01403 0.02167,-0.0255 0.04814,-0.0255 0.02648,0 0.05501,-0.01794 0.0634,-0.03987 0.0084,-0.02193 0.02728,-0.03241 0.04198,-0.0233 0.0147,0.0091 0.04194,0.0039 0.06054,-0.01157 0.0186,-0.01547 0.05127,-0.02142 0.07261,-0.01321 0.02134,0.0082 0.04605,0.0032 0.0549,-0.0112 0.0089,-0.01437 0.03305,-0.0196 0.05376,-0.01164 0.02071,0.008 0.05287,0.0018 0.07146,-0.01364 0.0186,-0.01547 0.04166,-0.02026 0.05125,-0.01064 0.0096,0.0096 0.06029,0.0187 0.112658,0.02018 0.05237,0.0015 0.109823,0.01174 0.127674,0.0228 0.01785,0.01106 0.04813,0.01408 0.06729,0.0067 0.01915,-0.0074 0.04114,0.0031 0.04885,0.02324 0.0077,0.02015 0.03727,0.03664 0.06569,0.03664 0.02841,0 0.05166,0.01148 0.05166,0.0255 0,0.01402 0.02289,0.0255 0.05086,0.0255 0.02826,0 0.05087,0.017 0.05087,0.03825 0,0.02125 0.02261,0.03825 0.05086,0.03825 0.02826,0 0.05087,0.017 0.05087,0.03825 0,0.02104 0.01717,0.03825 0.03815,0.03825 0.0212,0 0.03815,0.02267 0.03815,0.051 0,0.02833 0.01695,0.051 0.03815,0.051 0.02119,0 0.03815,0.02267 0.03815,0.051 0,0.02805 0.01145,0.051 0.02543,0.051 0.01399,0 0.02543,0.02227 0.02543,0.04949 0,0.02722 0.01223,0.05707 0.02717,0.06633 0.01494,0.0093 0.02156,0.03149 0.0147,0.0494 -0.0069,0.01791 -0.0019,0.04317 0.01105,0.05614 0.01293,0.01297 0.02664,0.06887 0.03045,0.124231 0.0038,0.05536 0.01541,0.114203 0.02578,0.130765 0.01037,0.01656 0.0067,0.03761 -0.008,0.04677 -0.01478,0.0092 -0.02023,0.03768 -0.0121,0.06337 0.0081,0.02569 0.0024,0.05438 -0.01272,0.06375 -0.01512,0.0094 -0.02054,0.03903 -0.01204,0.06589 0.0086,0.02731 0.0035,0.04885 -0.01168,0.04885 -0.01493,0 -0.02715,0.02869 -0.02715,0.06375 0,0.03506 -0.01145,0.06375 -0.02543,0.06375 -0.01399,0 -0.02543,0.02295 -0.02543,0.051 0,0.06394 -0.03036,0.06499 -0.08634,0.003 -0.04094,-0.04536 -0.04031,-0.05706 0.01142,-0.210372 0.13188,-0.390827 -0.04923,-0.824829 -0.424352,-1.016915 -0.10478,-0.05365 -0.159055,-0.06341 -0.35273,-0.06341 -0.1878,0 -0.250322,0.01058 -0.348246,0.05894 -0.166049,0.082 -0.318594,0.238644 -0.398151,0.408838 -0.09577,0.204869 -0.0961,0.490859 -7.93e-4,0.69466 0.179601,0.384104 0.610648,0.568631 1.010843,0.432733 0.152908,-0.05193 0.164575,-0.05257 0.209821,-0.01151 0.06105,0.0554 0.06097,0.08657 -2.37e-4,0.08657 -0.02648,0 -0.05439,0.01632 -0.06203,0.03627 -0.0085,0.0222 -0.03422,0.03094 -0.0663,0.02253 -0.03114,-0.0082 -0.05242,-0.0015 -0.05242,0.01645 0,0.01814 -0.01944,0.024 -0.04873,0.01469 -0.0268,-0.0085 -0.05657,-0.0028 -0.06616,0.01277 -0.0096,0.01555 -0.03489,0.02156 -0.05623,0.01335 -0.02134,-0.0082 -0.05271,-0.0034 -0.06971,0.01079 -0.017,0.01414 -0.03939,0.01721 -0.04975,0.0068 z"
             style="fill:#673ab7;fill-opacity:1;stroke:none"
             transform="translate(0,76)" />
          <path
             inkscape:connector-curvature="0"
             id="path3785"
             d="m 10.755616,15.105294 c -0.05195,-0.03034 -0.05913,-0.14769 -0.01272,-0.208068 0.07858,-0.102236 0.247969,-0.03709 0.247969,0.09536 0,0.116188 -0.125957,0.176532 -0.235253,0.112706 z"
             style="fill:#673ab7;fill-opacity:1;stroke:none"
             transform="translate(0,76)" />
          <path
             inkscape:connector-curvature="0"
             id="path3807"
             d="m 10.725854,15.982657 c -0.01676,-0.01685 -0.02861,-0.02703 -0.03144,-0.02701 -0.0025,1.8e-5 -0.01763,0.0077 -0.03364,0.01697 -0.01601,0.0093 -0.03025,0.0165 -0.03164,0.01596 -0.0014,-5.3e-4 -0.01064,-0.01248 -0.02056,-0.02655 -0.0099,-0.01407 -0.01961,-0.0269 -0.02155,-0.02851 -0.0082,-0.0068 -0.01769,-0.0055 -0.05048,0.0071 l -0.03195,0.01223 -0.01831,-0.03243 c -0.01007,-0.01784 -0.0191,-0.03292 -0.02006,-0.03352 -9.6e-4,-6.02e-4 -0.02018,0.0031 -0.0427,0.0081 -0.02252,0.0051 -0.04178,0.0084 -0.0428,0.0073 -0.0015,-0.0016 -0.0083,-0.01898 -0.02702,-0.06969 l -0.0017,-0.0047 -0.03827,0.0048 -0.03827,0.0048 -0.0094,-0.03787 -0.0094,-0.03787 -0.04252,0 c -0.03198,0 -0.04276,-6.98e-4 -0.04351,-0.0028 -5.53e-4,-0.0015 -0.0028,-0.01899 -0.005,-0.03875 l -0.004,-0.03593 -0.02131,-0.0053 c -0.01172,-0.0029 -0.02912,-0.0074 -0.03868,-0.0099 l -0.01737,-0.0046 -6.24e-4,-0.03857 -6.24e-4,-0.03857 -0.03709,-0.0091 c -0.02823,-0.0069 -0.037,-0.0099 -0.03669,-0.01247 0.0032,-0.02714 0.0077,-0.08167 0.0068,-0.08255 -6.24e-4,-6.26e-4 -0.017,-0.0072 -0.03636,-0.01448 -0.01937,-0.0073 -0.03604,-0.01384 -0.03706,-0.01447 -0.001,-6.26e-4 0.0021,-0.01662 0.0068,-0.03554 0.0048,-0.01892 0.0087,-0.03616 0.0087,-0.03832 3.9e-5,-0.0028 -0.01003,-0.009 -0.03647,-0.02223 -0.02009,-0.01006 -0.03684,-0.01858 -0.03723,-0.01893 -3.84e-4,-3.37e-4 0.007,-0.01594 0.0163,-0.03465 0.0093,-0.01871 0.01699,-0.03647 0.01699,-0.03946 0,-0.0044 -0.0058,-0.0096 -0.03091,-0.02744 -0.017,-0.0121 -0.03127,-0.02228 -0.03172,-0.02263 -4.57e-4,-3.37e-4 0.0069,-0.01394 0.0163,-0.0302 0.0098,-0.01698 0.01711,-0.03216 0.01711,-0.03566 0,-0.0048 -0.0056,-0.0117 -0.02585,-0.03194 -0.01422,-0.01421 -0.02585,-0.02669 -0.02585,-0.02772 0,-10e-4 0.0092,-0.01474 0.02041,-0.03046 0.02657,-0.03722 0.02672,-0.03558 -0.0068,-0.07454 l -0.02449,-0.02842 0.02793,-0.0282 c 0.01536,-0.01551 0.02793,-0.02904 0.02793,-0.03005 0,-0.001 -0.01011,-0.01598 -0.02248,-0.03325 -0.01237,-0.01727 -0.02248,-0.03218 -0.02248,-0.03314 0,-9.62e-4 0.01467,-0.01217 0.03259,-0.02493 0.01793,-0.01276 0.0326,-0.02364 0.0326,-0.02417 0,-5.29e-4 -0.0085,-0.01796 -0.0188,-0.0387 l -0.0188,-0.03773 0.03339,-0.02367 c 0.01836,-0.01302 0.03304,-0.02468 0.03263,-0.02592 -4.08e-4,-0.0013 -0.0047,-0.01828 -0.0095,-0.03786 -0.0071,-0.02897 -0.0082,-0.03596 -0.0057,-0.03749 0.0017,-0.001 0.01859,-0.0077 0.03761,-0.0148 0.01917,-0.0072 0.03457,-0.01416 0.03457,-0.01572 0,-0.0015 -0.004,-0.02084 -0.009,-0.04289 -0.0049,-0.02205 -0.009,-0.04033 -0.009,-0.04062 0,-2.89e-4 0.01718,-0.0048 0.03817,-0.01008 l 0.03817,-0.0095 6.01e-4,-0.04306 6e-4,-0.04306 0.03479,-0.0046 c 0.03273,-0.0043 0.03496,-0.0049 0.03762,-0.01022 0.0019,-0.0039 0.0028,-0.01758 0.0029,-0.04339 l 3.3e-5,-0.03775 0.0348,0 c 0.03676,0 0.05156,-0.003 0.05373,-0.01092 5.52e-4,-0.002 0.0043,-0.01895 0.0082,-0.03754 0.004,-0.0186 0.008,-0.03466 0.0089,-0.03571 9.6e-4,-10e-4 0.01491,-2.17e-4 0.03098,0.0018 0.01608,0.002 0.03303,0.0034 0.03767,0.003 l 0.0084,-7.22e-4 0.01345,-0.03606 c 0.0074,-0.01984 0.01371,-0.03638 0.01403,-0.03676 3.12e-4,-3.86e-4 0.01601,0.0014 0.03488,0.0039 0.01887,0.0026 0.03607,0.0046 0.03823,0.0046 0.0027,0 0.0097,-0.01019 0.02236,-0.03268 0.01217,-0.02156 0.01971,-0.03266 0.02215,-0.03263 0.002,3e-5 0.01936,0.004 0.03849,0.0089 0.02592,0.0066 0.03523,0.0081 0.03652,0.0061 9.6e-4,-0.0015 0.0094,-0.01613 0.01874,-0.03256 0.0094,-0.01642 0.01797,-0.02986 0.01914,-0.02986 0.0012,0 0.0183,0.0081 0.03805,0.01803 0.01975,0.0099 0.03635,0.01803 0.03689,0.01803 5.28e-4,0 0.0114,-0.01473 0.02414,-0.03272 0.01274,-0.018 0.02427,-0.0323 0.02563,-0.03178 0.0013,5.29e-4 0.01663,0.01104 0.03395,0.02338 l 0.03149,0.02243 0.03352,-0.02878 0.03352,-0.02878 0.01126,0.0095 c 0.0062,0.0053 0.01908,0.01595 0.02864,0.02376 l 0.01738,0.01421 0.0062,-0.0041 c 0.0034,-0.0022 0.01849,-0.01293 0.03349,-0.02374 l 0.02727,-0.01966 0.02484,0.02878 c 0.02288,0.02651 0.02559,0.0289 0.03433,0.0303 0.0088,0.0014 0.01139,4.33e-4 0.03749,-0.01448 0.0154,-0.0088 0.02822,-0.01568 0.02848,-0.01529 0.0053,0.0076 0.04702,0.05592 0.04836,0.05592 0.001,0 0.01792,-0.0061 0.03754,-0.01351 0.01961,-0.0074 0.03619,-0.01352 0.03684,-0.01352 6.49e-4,-7e-6 0.0097,0.01708 0.02001,0.03796 l 0.01883,0.03798 0.03394,-0.0086 c 0.01867,-0.0047 0.03621,-0.0086 0.03899,-0.0087 0.0043,-4.6e-5 0.0078,0.0054 0.0233,0.03657 0.01004,0.02014 0.01861,0.03702 0.01905,0.03749 4.32e-4,4.81e-4 0.01771,-0.0013 0.03839,-0.0039 0.02068,-0.0026 0.03775,-0.0045 0.03795,-0.0042 1.96e-4,2.89e-4 0.0036,0.01369 0.0076,0.02981 0.004,0.01612 0.0082,0.03308 0.0094,0.0377 l 0.0022,0.0084 0.04318,6.02e-4 0.04318,6.01e-4 0.0041,0.03713 c 0.0023,0.02042 0.0045,0.03753 0.005,0.03802 4.8e-4,4.81e-4 0.01763,0.003 0.03809,0.0055 l 0.0372,0.0046 0,0.043 0,0.043 0.03736,0.0095 c 0.02055,0.0052 0.03782,0.0099 0.03837,0.01049 5.52e-4,5.54e-4 -5.76e-4,0.01476 -0.0025,0.03156 -0.0019,0.01679 -0.0035,0.03389 -0.0035,0.03799 l 0,0.0075 0.03541,0.0132 c 0.01947,0.0073 0.03619,0.01391 0.03714,0.01479 9.61e-4,8.66e-4 -0.0023,0.01823 -0.0071,0.03857 -0.0049,0.02034 -0.0084,0.0377 -0.0079,0.03857 5.29e-4,8.67e-4 0.01549,0.01191 0.03322,0.02453 l 0.03224,0.02294 -0.01413,0.03291 c -0.0078,0.0181 -0.01369,0.03362 -0.01316,0.03448 5.28e-4,8.67e-4 0.01463,0.01141 0.03133,0.02343 0.0167,0.01202 0.03084,0.02265 0.03144,0.02361 6e-4,9.63e-4 -0.0065,0.01767 -0.01576,0.03713 -0.0093,0.01946 -0.01684,0.03705 -0.01684,0.03909 0,0.002 0.01227,0.01604 0.02727,0.03112 l 0.02727,0.02741 -0.01971,0.02751 -0.01971,0.02752 0.0028,0.01272 c 0.0025,0.01172 0.0045,0.01445 0.02443,0.0347 l 0.02168,0.02198 -0.0288,0.02894 -0.0288,0.02894 0.01929,0.03356 0.01929,0.03356 -0.02811,0.02824 c -0.01546,0.01554 -0.02811,0.02938 -0.02811,0.03077 0,0.0014 0.006,0.01853 0.01339,0.03809 0.0074,0.01956 0.01293,0.03631 0.01237,0.03722 -5.53e-4,9.14e-4 -0.01516,0.0096 -0.03245,0.01935 -0.01729,0.0097 -0.03145,0.01882 -0.03148,0.02019 -3.9e-5,0.0019 0.01606,0.04635 0.02582,0.07121 0.0012,0.0032 -0.0053,0.0072 -0.03665,0.02299 l -0.03815,0.01915 0.0078,0.03224 c 0.01188,0.04911 0.01388,0.04389 -0.02068,0.054 -0.01607,0.0047 -0.03075,0.0086 -0.03261,0.0086 -0.0019,3.1e-5 -0.02898,-0.02562 -0.06027,-0.05701 l -0.05688,-0.05706 0.01291,-0.02239 c 0.100615,-0.174515 0.128218,-0.4025 0.07393,-0.61065 -0.05929,-0.227348 -0.21582,-0.421765 -0.423674,-0.526233 -0.06815,-0.03425 -0.129411,-0.05539 -0.206903,-0.0714 -0.02456,-0.0051 -0.03589,-0.006 -0.08992,-0.0073 -0.09629,-0.0023 -0.184412,3.37e-4 -0.214681,0.0064 -0.217631,0.04335 -0.401962,0.167054 -0.524437,0.351953 -0.07148,0.107916 -0.113601,0.222186 -0.132009,0.35814 -0.0048,0.03551 -0.0067,0.122004 -0.0036,0.161152 0.01679,0.209357 0.10386,0.391839 0.255417,0.535302 0.169508,0.160455 0.408528,0.239587 0.642916,0.212849 0.11209,-0.01279 0.222416,-0.04944 0.321074,-0.106678 0.01092,-0.0063 0.02053,-0.01151 0.02137,-0.01151 0.0033,0 0.112766,0.111833 0.112766,0.115222 0,0.002 -0.0041,0.01466 -0.0092,0.02816 -0.0051,0.0135 -0.01116,0.02974 -0.01355,0.0361 l -0.0043,0.01156 -0.03826,-0.0096 -0.03826,-0.0096 -0.01902,0.03808 c -0.01046,0.02095 -0.0194,0.03808 -0.01987,0.03808 -4.8e-4,0 -0.0169,-0.0061 -0.03652,-0.01351 -0.01961,-0.0074 -0.03667,-0.01351 -0.03791,-0.01352 -0.0012,-2e-6 -0.0096,0.01298 -0.01853,0.02884 -0.009,0.01587 -0.01757,0.03061 -0.01915,0.03277 -0.0027,0.0036 -0.0054,0.003 -0.03879,-0.0097 -0.01976,-0.0075 -0.03706,-0.01362 -0.03844,-0.01362 -0.0014,-7e-6 -0.01292,0.01259 -0.02563,0.028 l -0.02311,0.02801 -0.03807,-0.01911 c -0.03264,-0.01638 -0.03861,-0.01869 -0.04181,-0.01618 -0.0021,0.0016 -0.0151,0.0124 -0.02899,0.02398 l -0.02526,0.02105 -0.02195,-0.01847 c -0.02056,-0.0173 -0.03252,-0.02482 -0.0393,-0.02471 -0.0016,2.4e-5 -0.01635,0.0097 -0.0328,0.02141 -0.01645,0.01175 -0.03012,0.02137 -0.03038,0.02137 -2.64e-4,0 -0.01258,-0.01217 -0.02737,-0.02705 z"
             style="fill:#673ab7;fill-opacity:1;stroke:none"
             transform="translate(0,76)" />
          <path
             inkscape:connector-curvature="0"
             id="path3815"
             d="m 15.500728,4.4640048 c -0.03249,0.02235 -0.06532,0.0693 -0.0742,0.106117 -0.0076,0.03143 0.0018,0.08767 0.01905,0.114951 0.01848,0.02912 0.064,0.0642 0.0969,0.07466 0.01974,0.0063 0.04759,0.0068 0.100677,0.002 0.150237,-0.01363 0.246551,-0.0078 0.363375,0.02212 0.232505,0.05949 0.439483,0.215237 0.562115,0.42297 0.145808,0.246993 0.170387,0.553723 0.06575,0.820526 -0.07825,0.199529 -0.229761,0.371467 -0.416099,0.472208 -0.123375,0.0667 -0.2002,0.08607 -0.616046,0.155364 l -0.318618,0.05309 0.01715,0.02619 c 0.03646,0.05566 0.06044,0.191264 0.04705,0.266044 -0.0029,0.01603 -0.005,0.03021 -0.0048,0.0315 2.08e-4,0.0013 0.166202,-0.02532 0.36886,-0.05916 0.396924,-0.06626 0.431525,-0.07424 0.555252,-0.127934 0.344097,-0.149342 0.598138,-0.434815 0.70951,-0.797296 0.08581,-0.279274 0.068,-0.593238 -0.04899,-0.863731 -0.206885,-0.478345 -0.685749,-0.780505 -1.20701,-0.761615 -0.114306,0.0041 -0.184326,0.01751 -0.219911,0.04199 z"
             style="fill:#673ab7;fill-opacity:1;stroke:none"
             transform="translate(0,76)" />
          <ellipse
             ry="17.939838"
             rx="18.501629"
             cy="56.44252"
             cx="21.797466"
             transform="matrix(0.22898329,0,0,0.23485131,13.420242,76.8722)"
             id="path3821-7"
             style="fill:#673ab7;fill-opacity:1;stroke:none" />
          <g
             style="fill:#673ab7;fill-opacity:1"
             transform="matrix(0.24008555,0,0,0.2407172,-0.04407791,75.9745)"
             id="g3851">
            <path
               style="fill:#673ab7;fill-opacity:1;stroke:none"
               d="m 48.390234,68.725834 c -0.106079,-0.03774 -0.230666,-0.151428 -0.287143,-0.262015 -0.04542,-0.08894 -0.04664,-0.10182 -0.04664,-0.493941 0,-0.376846 0.0026,-0.407411 0.04042,-0.477522 0.05023,-0.09309 0.121929,-0.160713 0.231112,-0.217974 l 0.08427,-0.04419 2.33143,0 2.33143,0 0.07758,0.04149 c 0.101749,0.05442 0.202711,0.174358 0.230592,0.273939 0.01506,0.05378 0.02036,0.207629 0.01626,0.472057 -0.0056,0.36012 -0.0094,0.398496 -0.04671,0.468171 -0.05039,0.09412 -0.140152,0.183355 -0.228886,0.227539 -0.06379,0.03176 -0.195621,0.03382 -2.361534,0.03696 -1.987581,0.0029 -2.304421,-3.99e-4 -2.372174,-0.02451 z m 2.608501,-0.128555 c 0.409093,-0.181692 0.52268,-0.768244 0.209433,-1.081491 -0.256789,-0.256789 -0.696845,-0.248686 -0.959433,0.01767 -0.135316,0.137254 -0.169838,0.225965 -0.169838,0.436425 0,0.152159 0.007,0.19281 0.04834,0.280939 0.154526,0.329391 0.553137,0.487858 0.8715,0.346462 z M 49.605837,68.21383 c 0.144793,-0.113894 0.142533,-0.38329 -0.0038,-0.458988 -0.124506,-0.06438 -0.326817,-0.0089 -0.386203,0.105965 -0.0388,0.07504 -0.02677,0.198175 0.0267,0.27327 0.07985,0.112144 0.269309,0.153727 0.363352,0.07975 z m 2.549533,-0.0022 c 0.02734,-0.02151 0.06219,-0.06322 0.07743,-0.0927 0.03683,-0.07121 0.03596,-0.241348 -0.0015,-0.294838 -0.06969,-0.0995 -0.233989,-0.126579 -0.364387,-0.06005 -0.132743,0.06772 -0.166707,0.206657 -0.08472,0.346558 0.07868,0.134265 0.266352,0.185074 0.373187,0.101037 l 10e-7,0 z m -3.315388,-0.07426 c 0.06839,-0.05379 0.09963,-0.164737 0.06605,-0.234583 -0.0546,-0.113585 -0.212402,-0.131765 -0.308612,-0.03555 -0.07584,0.07584 -0.04282,0.221761 0.06319,0.279281 0.07098,0.03851 0.122096,0.03591 0.179371,-0.0091 z m 4.002491,-0.01628 c 0.04471,-0.04471 0.05474,-0.07059 0.05474,-0.141298 0,-0.159073 -0.134546,-0.227618 -0.276681,-0.140959 -0.07606,0.04638 -0.104021,0.112327 -0.07735,0.182469 0.0573,0.150713 0.200595,0.198488 0.299295,0.09979 z"
               id="path3801"
               inkscape:connector-curvature="0" />
            <rect
               style="fill:#673ab7;fill-opacity:1;stroke:none"
               id="rect3843"
               width="4.984375"
               height="1.484375"
               x="48.234375"
               y="67.265625"
               ry="0.7421875" />
          </g>
          <path
             id="rect3841"
             d="m 4.7589047,87.293668 c -0.1134911,0 -0.2025722,0.08932 -0.2025722,0.203106 l 0,1.65493 -1.5905665,0 c -0.1275808,0 -0.2325829,0.105279 -0.2325829,0.233195 l 0,1.233676 c 0,0.127916 0.1050021,0.233195 0.2325829,0.233195 l 1.5905665,0 0,1.730154 c 0,0.11379 0.089081,0.203106 0.2025722,0.203106 l 1.2829572,0 c 0.113491,0 0.2025721,-0.08932 0.2025721,-0.203106 l 0,-1.730154 1.7406203,0 c 0.1275808,0 0.2325829,-0.105279 0.2325829,-0.233195 l 0,-1.233676 c 0,-0.127916 -0.1050021,-0.233195 -0.2325829,-0.233195 l -1.7406203,0 0,-1.65493 c 0,-0.11379 -0.089081,-0.203106 -0.2025721,-0.203106 l -1.2829572,0 z"
             style="fill:#ffffff;fill-opacity:1;stroke:none"
             inkscape:connector-curvature="0" />
          <g
             style="fill:#ffffff;fill-opacity:1;stroke:none"
             id="g3975"
             transform="matrix(0.24008555,0,0,0.2407172,-0.04280624,75.94987)">
            <ellipse
               ry="3.7076271"
               rx="3.6016948"
               cy="49.682205"
               cx="73.622879"
               style="fill:#ffffff;fill-opacity:1;stroke:none"
               id="path3870"
               transform="matrix(1.2494118,0,0,1.2137143,-14.691302,-9.1034519)" />
            <ellipse
               ry="3.7076271"
               rx="3.6016948"
               cy="49.682205"
               cx="73.622879"
               style="fill:#ffffff;fill-opacity:1;stroke:none"
               id="path3870-0"
               transform="matrix(1.2494118,0,0,1.2137143,-14.98812,5.8098852)" />
            <ellipse
               ry="3.7076271"
               rx="3.6016948"
               cy="49.682205"
               cx="73.622879"
               style="fill:#ffffff;fill-opacity:1;stroke:none"
               id="path3870-4"
               transform="matrix(-0.00957143,1.2493744,-1.2136779,-0.00929798,145.82655,-32.719017)" />
            <ellipse
               ry="3.7076271"
               rx="3.6016948"
               cy="49.682205"
               cx="73.622879"
               style="fill:#ffffff;fill-opacity:1;stroke:none"
               id="path3870-0-8"
               transform="matrix(-0.00957143,1.2493744,-1.2136779,-0.00929798,130.57429,-32.892053)" />
          </g>
        </g>
        <text
           xml:space="preserve"
           style="font-style:normal;font-weight:normal;font-size:152.57623291px;line-height:125%;font-family:Sans;letter-spacing:0px;word-spacing:0px;fill:#673ab7;fill-opacity:1;stroke:none;stroke-width:1px;stroke-linecap:butt;stroke-linejoin:miter;stroke-opacity:1"
           x="660.47632"
           y="-544.30493"
           id="text4185"
           sodipodi:linespacing="125%"><tspan
             sodipodi:role="line"
             id="tspan4187"
             x="660.47632"
             y="-544.30493"
             style="font-style:normal;font-variant:normal;font-weight:normal;font-stretch:normal;font-family:'Segoe UI';-inkscape-font-specification:'Segoe UI'">Pedal-to-Play</tspan></text>
      </g>
    </g>
  </g>
</svg>
