<?xml version="1.0" encoding="UTF-8" standalone="no"?>
<!-- Created with Inkscape (http://www.inkscape.org/) -->

<svg
   xmlns:dc="http://purl.org/dc/elements/1.1/"
   xmlns:cc="http://creativecommons.org/ns#"
   xmlns:rdf="http://www.w3.org/1999/02/22-rdf-syntax-ns#"
   xmlns:svg="http://www.w3.org/2000/svg"
   xmlns="http://www.w3.org/2000/svg"
   xmlns:sodipodi="http://sodipodi.sourceforge.net/DTD/sodipodi-0.dtd"
   xmlns:inkscape="http://www.inkscape.org/namespaces/inkscape"
   width="340"
   height="768"
   viewBox="0 0 340 768.00001"
   id="svg2"
   version="1.1"
   inkscape:version="0.91 r13725"
   sodipodi:docname="avatar_female.svg"
   inkscape:export-filename="C:\Users\Bianka\Desktop\headfull.png"
   inkscape:export-xdpi="90"
   inkscape:export-ydpi="90">
  <defs
     id="defs4" />
  <sodipodi:namedview
     id="base"
     pagecolor="#ffffff"
     bordercolor="#666666"
     borderopacity="1.0"
     inkscape:pageopacity="0.0"
     inkscape:pageshadow="2"
     inkscape:zoom="0.7"
     inkscape:cx="-80.009176"
     inkscape:cy="375.41584"
     inkscape:document-units="px"
     inkscape:current-layer="layer10"
     showgrid="false"
     inkscape:window-width="1366"
     inkscape:window-height="705"
     inkscape:window-x="-8"
     inkscape:window-y="-8"
     inkscape:window-maximized="1"
     showguides="false"
     inkscape:snap-text-baseline="true"
     inkscape:snap-to-guides="true"
     inkscape:guide-bbox="true"
     inkscape:snap-page="false"
     inkscape:snap-grids="true"
     units="px">
    <sodipodi:guide
       position="701.4286,1618.5715"
       orientation="0,1"
       id="guide4199" />
    <sodipodi:guide
       position="770.00003,1432.8572"
       orientation="0,1"
       id="guide4201" />
    <sodipodi:guide
       position="890.00004,1764.2858"
       orientation="0,1"
       id="guide4203" />
    <sodipodi:guide
       position="614.28574,1958.5715"
       orientation="1,0"
       id="guide4205" />
    <sodipodi:guide
       position="1098.5715,1804.2858"
       orientation="1,0"
       id="guide4207" />
  </sodipodi:namedview>
  <metadata
     id="metadata7">
    <rdf:RDF>
      <cc:Work
         rdf:about="">
        <dc:format>image/svg+xml</dc:format>
        <dc:type
           rdf:resource="http://purl.org/dc/dcmitype/StillImage" />
        <dc:title />
      </cc:Work>
    </rdf:RDF>
  </metadata>
  <g
     inkscape:groupmode="layer"
     id="layer10"
     inkscape:label="footl"
     style="display:inline"
     transform="translate(0,-1953.2598)">
    <path
       style="opacity:1;fill:none;fill-rule:evenodd;stroke:#000000;stroke-width:2.93838525;stroke-linecap:butt;stroke-linejoin:miter;stroke-miterlimit:4;stroke-dasharray:none;stroke-opacity:1"
       inkscape:transform-center-x="-42.87355"
       inkscape:transform-center-y="-24.883337"
       d="m 238.2417,2650.443 c 10.99366,28.3534 50.2866,39.6528 50.43572,52.875 -0.36657,18.8098 -48.44953,13.9161 -56.85916,1.6011 -14.2229,-22.9895 -27.49416,-12.8506 -18.9751,-40.4075 19.19412,13.6844 25.39854,-14.0686 25.39854,-14.0686 z"
       id="rect3344-6-1-4-6-2"
       inkscape:connector-curvature="0"
       sodipodi:nodetypes="ccccc" />
  </g>
  <g
     inkscape:groupmode="layer"
     id="layer9"
     inkscape:label="footr"
     style="display:inline"
     transform="translate(0,-1953.2598)">
    <path
       style="opacity:1;fill:none;fill-rule:evenodd;stroke:#000000;stroke-width:2.93838525;stroke-linecap:butt;stroke-linejoin:miter;stroke-miterlimit:4;stroke-dasharray:none;stroke-opacity:1"
       inkscape:transform-center-x="42.873551"
       inkscape:transform-center-y="-24.883309"
       d="m 105.40367,2651.1034 c -10.993649,28.3533 -50.286599,39.6527 -50.435709,52.875 0.36656,18.8098 48.449529,13.9161 56.859159,1.601 14.22289,-22.9895 27.49415,-12.8505 18.97509,-40.4074 -19.19413,13.6843 -25.39854,-14.0686 -25.39854,-14.0686 z"
       id="rect3344-6-1-4-6-2-2"
       inkscape:connector-curvature="0"
       sodipodi:nodetypes="ccccc" />
  </g>
  <g
     inkscape:groupmode="layer"
     id="layer3"
     inkscape:label="armr"
     style="display:inline"
     transform="translate(0,-1953.2598)">
    <path
       style="opacity:0.93199978;fill:none;fill-opacity:1;fill-rule:evenodd;stroke:#000000;stroke-width:2.93838525;stroke-linecap:round;stroke-linejoin:round;stroke-miterlimit:4;stroke-dasharray:none;stroke-opacity:1"
       d="m 92.102501,2160.9704 c -24.31064,2.6308 -22.096,34.7494 -27.89537,45.0679 -20.09175,35.7484 -9.38534,58.5066 -22.62172,78.4034 -25.75713,38.7177 -14.48633,76.099 -31.0664,114.2275 -8.5576104,25.9669 37.89986,59.2719 35.37565,32.7386 -3.63383,-35.5411 -11.36024,3.4682 -10.62825,-22.8167 0.1753,-6.2949 5.18797,1.1163 6.45141,4.2098 8.0684,19.756 10.98131,10.1181 11.65565,-1.9916 0.23083,-4.1453 0.87012,-1.0921 -4.87918,-13.6813 -17.69169,-38.7396 16.47295,-64.0563 18.40783,-104.2178 0.92796,-19.2612 22.82851,-30.502 21.02626,-66.0023 22.425749,-20.9736 17.442509,-47.2354 4.17412,-65.9375 z"
       id="rect3344-6-2"
       inkscape:connector-curvature="0"
       sodipodi:nodetypes="cssccssssscc" />
  </g>
  <g
     inkscape:groupmode="layer"
     id="layer4"
     inkscape:label="arml"
     style="display:inline"
     transform="translate(0,-1953.2598)">
    <path
       style="display:inline;opacity:0.93199978;fill:none;fill-opacity:1;fill-rule:evenodd;stroke:#000000;stroke-width:2.93838525;stroke-linecap:round;stroke-linejoin:round;stroke-miterlimit:4;stroke-dasharray:none;stroke-opacity:1"
       d="m 251.48531,2162.4925 c 24.31066,2.6307 22.09599,34.7493 27.89538,45.0679 20.09176,35.7483 9.38534,58.5066 22.62171,78.4033 25.75715,38.7177 14.48633,76.0991 31.06639,114.2276 8.55763,25.9669 -37.89985,59.2718 -35.37563,32.7386 3.63382,-35.5411 11.36025,3.4682 10.62824,-22.8168 -0.17529,-6.2948 -5.18798,1.1163 -6.45141,4.2099 -8.06841,19.756 -10.98129,10.1181 -11.65566,-1.9917 -0.23082,-4.1453 -0.87011,-1.0921 4.87919,-13.6813 17.6917,-38.7395 -16.47294,-64.0562 -18.40782,-104.2176 -0.92796,-19.2614 -22.82851,-30.5022 -21.02627,-66.0024 -22.42575,-20.9737 -17.4425,-47.2354 -4.17412,-65.9375 z"
       id="rect3344-6-2-4"
       inkscape:connector-curvature="0"
       sodipodi:nodetypes="cssccssssscc" />
  </g>
  <g
     inkscape:groupmode="layer"
     id="layer5"
     inkscape:label="torax"
     style="display:inline"
     transform="translate(0,-1953.2598)">
    <path
       style="opacity:1;fill:none;fill-rule:evenodd;stroke:#000000;stroke-width:2.93838525;stroke-linecap:round;stroke-linejoin:round;stroke-miterlimit:4;stroke-dasharray:none;stroke-opacity:1"
       d="m 142.30201,2139.5227 c 2.16058,1.0804 2.66741,11.253 -6.97466,15.3124 -3.75941,1.5828 -29.4087,1.0248 -43.504169,5.9467 16.024109,19.1836 11.835099,30.2917 8.712879,50.0293 1.55777,17.5364 -0.28346,33.7776 17.36208,43.1926 5.20056,2.7749 5.25148,48.6371 2.26386,53.461 -11.12868,17.9691 -9.82679,29.5072 -11.71818,31.0822 13.40103,3.8706 46.24995,16.7205 49.79768,63.5333 12.67164,-3.0472 13.74934,-3.3869 26.85025,1.2925 3.54772,-46.8128 36.39663,-59.6627 49.79766,-63.5333 -1.89137,-1.5749 -0.58951,-13.1131 -11.71817,-31.0821 -2.98761,-4.824 -2.93666,-50.6863 2.26388,-53.461 17.64554,-9.4151 15.80485,-25.6563 17.36263,-43.1926 -3.12224,-19.7376 -7.31175,-30.8458 8.71232,-50.0293 -14.09546,-4.922 -39.74421,-4.364 -43.50361,-5.9468 -9.64207,-4.0594 -9.13581,-14.2319 -6.97524,-15.3123 -26.04543,6.3214 -31.82958,6.3482 -58.72921,-1.2926 z"
       id="rect3342-3"
       inkscape:connector-curvature="0"
       sodipodi:nodetypes="csccssccccssccscc"
       inkscape:export-filename="C:\Users\Bianka\Desktop\torax-female.png"
       inkscape:export-xdpi="90"
       inkscape:export-ydpi="90" />
  </g>
  <g
     inkscape:groupmode="layer"
     id="layer6"
     inkscape:label="head"
     style="display:inline"
     transform="translate(0,-1953.2598)">
    <path
       style="opacity:0.99599998;fill:none;fill-rule:evenodd;stroke:#000000;stroke-width:2.93838525;stroke-linecap:butt;stroke-linejoin:miter;stroke-miterlimit:4;stroke-dasharray:none;stroke-opacity:1"
       d="m 171.67044,1959.8638 -9.8e-4,0.1073 c -76.135889,1.2594 -80.736449,80.8292 -75.421549,96.1594 2.67833,7.7253 -13.63629,-9.1788 -11.74974,14.2018 1.23955,15.3621 14.37174,7.5043 14.67642,8.3045 13.305919,34.9446 27.858119,53.1428 47.032359,61.3966 7.02227,3.0229 14.66451,4.7119 23.09251,5.4013 l -0.004,0.2485 c 0.81277,-0.019 1.61647,-0.047 2.41537,-0.081 1.38608,0.081 2.79094,0.1399 4.21957,0.1721 l -0.006,-0.4304 c 31.44189,-2.5711 51.94771,-19.0547 70.12718,-66.7985 0.30469,-0.8002 13.43691,7.0577 14.67642,-8.3044 1.88657,-23.3807 -14.42811,-6.4764 -11.74973,-14.2018 5.35842,-15.456 0.63882,-96.2103 -77.30847,-96.1755 z"
       id="path3340"
       inkscape:connector-curvature="0"
       sodipodi:nodetypes="ccssssccccccsscc"
       inkscape:export-filename="C:\Users\Bianka\Desktop\head.png"
       inkscape:export-xdpi="90"
       inkscape:export-ydpi="90" />
  </g>
  <g
     inkscape:groupmode="layer"
     id="layer7"
     inkscape:label="legr"
     style="display:inline"
     transform="translate(0,-1953.2598)">
    <path
       style="opacity:1;fill:none;fill-rule:evenodd;stroke:#000000;stroke-width:2.93838525;stroke-linecap:butt;stroke-linejoin:miter;stroke-miterlimit:4;stroke-dasharray:none;stroke-opacity:1"
       d="m 109.11067,2340.0097 c -19.914339,50.3313 -17.099519,133.258 -10.941249,184.614 5.447239,45.4265 16.207799,99.6431 8.074449,125.7006 0,0 0.22374,26.7945 24.61475,14.9121 -6.64755,-77.1515 32.44149,-63.5818 10.35434,-137.1422 26.41858,-93.6388 10.11952,-93.2102 17.44407,-122.1157 0.43082,-21.0894 -16.14934,-57.8203 -49.54636,-65.9688 z"
       id="rect3344-6-1-4-7-6"
       inkscape:connector-curvature="0"
       sodipodi:nodetypes="csccccc" />
  </g>
  <g
     inkscape:groupmode="layer"
     id="layer8"
     inkscape:label="legl"
     style="display:inline"
     transform="translate(0,-1953.2598)">
    <path
       style="opacity:1;fill:none;fill-rule:evenodd;stroke:#000000;stroke-width:2.93838525;stroke-linecap:butt;stroke-linejoin:miter;stroke-miterlimit:4;stroke-dasharray:none;stroke-opacity:1"
       d="m 234.69931,2339.5523 c 19.91433,50.3314 17.09952,133.258 10.94125,184.614 -5.44725,45.4265 -16.2078,99.643 -8.07445,125.7007 0,0 -0.22375,26.7945 -24.61476,14.912 6.64757,-77.1515 -32.44148,-63.5817 -10.35433,-137.1422 -26.41858,-93.6389 -10.11952,-93.2101 -17.44406,-122.1158 -0.43083,-21.0892 16.14933,-57.8202 49.54635,-65.9687 z"
       id="rect3344-6-1-4-7"
       inkscape:connector-curvature="0"
       sodipodi:nodetypes="csccccc" />
  </g>
</svg>
