<?xml version="1.0" encoding="UTF-8" standalone="no"?>
<!-- Created with Inkscape (http://www.inkscape.org/) -->

<svg
   xmlns:dc="http://purl.org/dc/elements/1.1/"
   xmlns:cc="http://creativecommons.org/ns#"
   xmlns:rdf="http://www.w3.org/1999/02/22-rdf-syntax-ns#"
   xmlns:svg="http://www.w3.org/2000/svg"
   xmlns="http://www.w3.org/2000/svg"
   xmlns:sodipodi="http://sodipodi.sourceforge.net/DTD/sodipodi-0.dtd"
   xmlns:inkscape="http://www.inkscape.org/namespaces/inkscape"
   width="340"
   height="768"
   viewBox="0 0 340.00001 768.00001"
   id="svg2"
   version="1.1"
   inkscape:version="0.91 r13725"
   sodipodi:docname="avatar_male.svg">
  <defs
     id="defs4" />
  <sodipodi:namedview
     id="base"
     pagecolor="#ffffff"
     bordercolor="#666666"
     borderopacity="1.0"
     inkscape:pageopacity="0.0"
     inkscape:pageshadow="2"
     inkscape:zoom="0.49497474"
     inkscape:cx="-140.30049"
     inkscape:cy="495.23591"
     inkscape:document-units="px"
     inkscape:current-layer="layer10"
     showgrid="false"
     inkscape:window-width="1366"
     inkscape:window-height="705"
     inkscape:window-x="-8"
     inkscape:window-y="-8"
     inkscape:window-maximized="1"
     showguides="false"
     inkscape:snap-text-baseline="true"
     units="px" />
  <metadata
     id="metadata7">
    <rdf:RDF>
      <cc:Work
         rdf:about="">
        <dc:format>image/svg+xml</dc:format>
        <dc:type
           rdf:resource="http://purl.org/dc/dcmitype/StillImage" />
        <dc:title />
      </cc:Work>
    </rdf:RDF>
  </metadata>
  <g
     inkscape:groupmode="layer"
     id="layer10"
     inkscape:label="footl"
     transform="translate(0,-1953.2598)">
    <path
       style="opacity:1;fill:none;fill-rule:evenodd;stroke:#000000;stroke-width:2.91915703;stroke-linecap:butt;stroke-linejoin:miter;stroke-miterlimit:4;stroke-dasharray:none;stroke-opacity:1"
       inkscape:transform-center-x="-42.596335"
       inkscape:transform-center-y="-24.718432"
       d="m 259.66788,2661.0278 c 10.92259,28.1653 35.80739,34.0821 35.95548,47.2169 -0.36417,18.6853 -48.13624,13.8239 -56.49154,1.5903 -14.13088,-22.8372 -27.3164,-12.7655 -18.85246,-40.1397 19.07011,13.5937 31.99101,4.3523 39.38852,-8.6675 z"
       id="rect3344-6-1-4-6-2"
       inkscape:connector-curvature="0"
       sodipodi:nodetypes="ccccc" />
  </g>
  <g
     inkscape:groupmode="layer"
     id="layer9"
     inkscape:label="footr"
     style="display:inline"
     transform="translate(0,-1953.2598)">
    <path
       style="opacity:1;fill:none;fill-rule:evenodd;stroke:#000000;stroke-width:2.91915679;stroke-linecap:butt;stroke-linejoin:miter;stroke-miterlimit:4;stroke-dasharray:none;stroke-opacity:1"
       inkscape:transform-center-x="42.596379"
       inkscape:transform-center-y="-24.71847"
       d="m 81.129073,2660.056 c -10.922592,28.1654 -35.807306,34.0823 -35.955489,47.2169 0.364176,18.6852 48.136342,13.824 56.491526,1.5905 14.13098,-22.8372 27.31641,-12.7656 18.85246,-40.1399 -17.80337,9.7593 -30.130317,7.9655 -39.388497,-8.6675 z"
       id="rect3344-6-1-4-6"
       inkscape:connector-curvature="0"
       sodipodi:nodetypes="ccccc" />
  </g>
  <g
     inkscape:groupmode="layer"
     id="layer3"
     inkscape:label="armr"
     style="display:inline"
     transform="translate(0,-1953.2598)">
    <path
       style="opacity:0.93199978;fill:none;fill-opacity:1;fill-rule:evenodd;stroke:#000000;stroke-width:2.91915703;stroke-linecap:round;stroke-linejoin:round;stroke-miterlimit:4;stroke-dasharray:none;stroke-opacity:1"
       d="m 88.61315,2152.3858 c -24.153476,2.6132 -25.67607,34.9135 -33.612643,43.59 -27.62873,30.2035 -21.121288,56.7659 -30.73213,78.4738 -15.7195512,35.5054 -12.624442,93.8086 -13.172757,142.9589 -0.783682,20.7791 15.417946,41.1414 35.7367,28.3935 -5.837649,4.4674 8.338624,-2.7151 -1.123424,-29.7427 -2.066983,-5.9043 4.226911,-5.3961 6.409702,-2.895 15.142435,17.3493 15.518218,-7.5859 3.913438,-13.1841 -5.920904,-2.8561 -11.998893,-2.5096 -11.924714,-10.6418 0.556955,-61.0627 16.956164,-55.3755 14.160477,-99.3993 -1.21401,-19.1174 30.347791,-33.8385 26.198207,-72.0526 22.280754,-20.8347 17.329674,-46.9224 4.147144,-65.5007 z"
       id="rect3344-6-2"
       inkscape:connector-curvature="0"
       sodipodi:nodetypes="cssccssssscc" />
  </g>
  <g
     inkscape:groupmode="layer"
     id="layer4"
     inkscape:label="arml"
     style="display:inline"
     transform="translate(0,-1953.2598)">
    <path
       style="opacity:0.93199978;fill:none;fill-opacity:1;fill-rule:evenodd;stroke:#000000;stroke-width:2.91915703;stroke-linecap:round;stroke-linejoin:round;stroke-miterlimit:4;stroke-dasharray:none;stroke-opacity:1"
       d="m 253.8613,2155.7819 c 24.15348,2.6134 25.67606,34.9136 33.61255,43.5897 27.62874,30.2039 21.12128,56.7661 30.73213,78.474 15.71964,35.5056 12.62452,93.8087 13.17276,142.9591 0.78367,20.779 -15.41795,41.1413 -35.7367,28.3935 5.83764,4.4674 -8.33854,-2.7153 1.12343,-29.7427 2.06697,-5.9044 -4.22692,-5.3962 -6.4097,-2.8952 -15.14244,17.3494 -15.51814,-7.5857 -3.91345,-13.1838 5.9209,-2.8562 11.9989,-2.5096 11.92472,-10.6419 -0.55696,-61.0628 -16.95617,-55.3755 -14.16048,-99.3994 1.21401,-19.1173 -30.3478,-33.8385 -26.19812,-72.0525 -22.28076,-20.8348 -17.32977,-46.9226 -4.14714,-65.5008 z"
       id="rect3344-6-2-8"
       inkscape:connector-curvature="0"
       sodipodi:nodetypes="cssccssssscc" />
  </g>
  <g
     inkscape:groupmode="layer"
     id="layer5"
     inkscape:label="torax"
     style="display:inline"
     transform="translate(0,-1953.2598)">
    <path
       style="opacity:1;fill:none;fill-rule:evenodd;stroke:#000000;stroke-width:2.91915703;stroke-linecap:round;stroke-linejoin:round;stroke-miterlimit:4;stroke-dasharray:none;stroke-opacity:1"
       d="m 90.10477,2152.7883 c 17.53214,26.259 8.061883,57.7333 -5.897518,64.3652 1.030043,21.9324 3.373498,29.0072 14.111434,44.5027 0,0 0.464097,28.6115 5.197774,35.664 8.03999,11.9784 -2.05485,46.7837 1.33243,69.2108 13.31441,3.8448 48.8996,-4.0318 52.42443,42.4709 0,0 13.34818,9.06 25.8178,0.5181 6.39861,-40.0189 30.45103,-40.7386 52.29107,-41.7861 3.38729,-22.427 -7.85332,-56.5021 -1.02603,-69.211 7.99557,-14.8833 4.79311,-34.5963 6.96648,-37.4331 6.79413,-8.8684 13.67282,-11.8448 16.47043,-40.964 -12.38996,-15.4228 -25.52528,-27.5372 -4.12821,-64.366 -16.24615,-24.3573 -46.26625,-28.0601 -46.26625,-28.0601 -22.75033,18.3883 -54.66506,18.283 -78.19953,-1.4604 -3.10471,-2.6046 -30.987572,11.6338 -39.09431,26.549 z"
       id="rect3342-3"
       inkscape:connector-curvature="0"
       sodipodi:nodetypes="ccssccccsscccsc" />
  </g>
  <g
     inkscape:groupmode="layer"
     id="layer6"
     inkscape:label="head"
     style="display:inline"
     transform="translate(0,-1953.2598)">
    <path
       style="opacity:0.99599998;fill:none;fill-rule:evenodd;stroke:#000000;stroke-width:2.91915703;stroke-linecap:butt;stroke-linejoin:miter;stroke-miterlimit:4;stroke-dasharray:none;stroke-opacity:1"
       d="m 168.53034,1956.4526 0,0.1067 c -75.643678,1.2509 -80.214428,80.2938 -74.933916,95.5225 2.661038,7.6743 -13.548099,-9.1181 -11.673806,14.1078 1.231549,15.2603 14.278807,7.4545 14.581552,8.2494 18.0615,47.4264 38.43421,63.801 69.67154,66.3554 l 0,0.2471 c 0.8075,-0.018 1.60601,-0.046 2.39983,-0.081 1.3771,0.082 2.77281,0.1389 4.19226,0.1709 l -0.008,-0.4276 c 31.23857,-2.554 51.61185,-18.9285 69.67373,-66.3559 0.30273,-0.795 13.35009,7.0109 14.58156,-8.2496 1.87436,-23.2258 -14.33485,-6.4336 -11.67374,-14.1077 5.32381,-15.3536 0.63462,-95.5732 -76.80863,-95.5386 z"
       id="path3340"
       inkscape:connector-curvature="0" />
  </g>
  <g
     inkscape:groupmode="layer"
     id="layer7"
     inkscape:label="legr"
     transform="translate(0,-1953.2598)">
    <path
       style="opacity:1;fill:none;fill-rule:evenodd;stroke:#000000;stroke-width:2.91915703;stroke-linecap:butt;stroke-linejoin:miter;stroke-miterlimit:4;stroke-dasharray:none;stroke-opacity:1"
       d="m 104.36813,2368.167 c -19.785617,49.998 -29.04328,106.6193 -21.486156,157.442 5.666516,38.108 -3.965711,82.5579 -2.003627,131.9453 7.950365,15.9983 14.889357,23.8348 39.789323,11.8644 -6.8649,-76.7055 18.77216,-62.3973 7.92829,-132.6954 22.70924,-51.7356 9.46439,-69.0025 27.947,-125.4353 0.42807,-20.9497 -8.37807,-46.8218 -52.17483,-43.121 z"
       id="rect3344-6-1-4"
       inkscape:connector-curvature="0"
       sodipodi:nodetypes="csccccc" />
  </g>
  <g
     inkscape:groupmode="layer"
     id="layer8"
     inkscape:label="legl"
     transform="translate(0,-1953.2598)">
    <path
       style="opacity:1;fill:none;fill-rule:evenodd;stroke:#000000;stroke-width:2.91915703;stroke-linecap:butt;stroke-linejoin:miter;stroke-miterlimit:4;stroke-dasharray:none;stroke-opacity:1"
       d="m 236.1856,2369.2988 c 19.78562,49.998 29.04329,106.6193 21.48615,157.4421 -5.66651,38.1079 3.96562,82.5579 2.00364,131.9452 -7.95037,15.9983 -14.88936,23.8349 -39.78934,11.8645 6.86481,-76.7057 -18.77217,-62.3974 -7.92838,-132.6953 -22.70914,-51.7358 -9.46431,-69.0026 -27.94691,-125.4355 -0.42806,-20.9495 8.37808,-46.8218 52.17484,-43.121 z"
       id="rect3344-6-1-4-7"
       inkscape:connector-curvature="0"
       sodipodi:nodetypes="csccccc" />
  </g>
</svg>
